<?xml version="1.0" encoding="UTF-8"?>
<!DOCTYPE svg PUBLIC "-//W3C//DTD SVG 1.1//EN" "http://www.w3.org/Graphics/SVG/1.1/DTD/svg11.dtd">
<!-- Creator: CorelDRAW X7 -->
<svg xmlns="http://www.w3.org/2000/svg" xml:space="preserve" width="361.692mm" height="122.238mm" version="1.1" style="shape-rendering:geometricPrecision; text-rendering:geometricPrecision; image-rendering:optimizeQuality; fill-rule:evenodd; clip-rule:evenodd"
viewBox="0 0 36169 12224"
 xmlns:xlink="http://www.w3.org/1999/xlink"
 data-name="Group 202">
 <defs>
  <style type="text/css">
   <![CDATA[
    .fil4 {fill:none}
    .fil7 {fill:#FFF000}
    .fil12 {fill:#FFF000}
    .fil10 {fill:#E62129}
    .fil11 {fill:#FDEB09}
    .fil6 {fill:#7789A4}
    .fil5 {fill:white;fill-opacity:0.160784}
    .fil2 {fill:white;fill-opacity:0.200000}
    .fil8 {fill:url(#id0)}
    .fil15 {fill:url(#id1)}
    .fil14 {fill:url(#id2)}
    .fil13 {fill:url(#id3)}
    .fil9 {fill:url(#id4)}
    .fil0 {fill:url(#id5)}
    .fil3 {fill:url(#id6)}
    .fil1 {fill:url(#id7)}
   ]]>
  </style>
  <linearGradient id="id0" gradientUnits="userSpaceOnUse" x1="30643.2" y1="3386.87" x2="31400.1" y2="6686.71">
   <stop offset="0" style="stop-opacity:1; stop-color:#FFF000"/>
   <stop offset="1" style="stop-opacity:1; stop-color:#FF0505"/>
  </linearGradient>
  <linearGradient id="id1" gradientUnits="userSpaceOnUse" x1="18236.1" y1="2953.2" x2="16949.6" y2="9278.3">
   <stop offset="0" style="stop-opacity:1; stop-color:#E62129"/>
   <stop offset="1" style="stop-opacity:1; stop-color:#FFEA08"/>
  </linearGradient>
  <linearGradient id="id2" gradientUnits="userSpaceOnUse" x1="7602.51" y1="2727.27" x2="8206.79" y2="6378.33">
   <stop offset="0" style="stop-opacity:1; stop-color:#FFF000"/>
   <stop offset="1" style="stop-opacity:1; stop-color:#FF0303"/>
  </linearGradient>
  <linearGradient id="id3" gradientUnits="userSpaceOnUse" x1="11526.8" y1="2838.88" x2="10989.3" y2="3537.62">
   <stop offset="0" style="stop-opacity:1; stop-color:#FFF000"/>
   <stop offset="1" style="stop-opacity:1; stop-color:#FCF403"/>
  </linearGradient>
  <linearGradient id="id4" gradientUnits="userSpaceOnUse" x1="23303.9" y1="9012.55" x2="22209.5" y2="9579.39">
   <stop offset="0" style="stop-opacity:1; stop-color:#FFF000"/>
   <stop offset="1" style="stop-opacity:1; stop-color:#FF0808"/>
  </linearGradient>
  <linearGradient id="id5" gradientUnits="userSpaceOnUse" x1="32577.8" y1="1299.15" x2="3591.43" y2="10924.6">
   <stop offset="0" style="stop-opacity:1; stop-color:#A52EFF"/>
   <stop offset="1" style="stop-opacity:1; stop-color:#3D58F3"/>
  </linearGradient>
  <linearGradient id="id6" gradientUnits="userSpaceOnUse" x1="1904.06" y1="1478.83" x2="13905.3" y2="7626.77">
   <stop offset="0" style="stop-opacity:0; stop-color:white"/>
   <stop offset="1" style="stop-opacity:0.2; stop-color:white"/>
  </linearGradient>
  <linearGradient id="id7" gradientUnits="userSpaceOnUse" xlink:href="#id6" x1="34460" y1="1367.03" x2="27583.2" y2="8706.51">
  </linearGradient>
 </defs>
 <g id="Layer_x0020_1">
  <metadata id="CorelCorpID_0Corel-Layer"/>
  <path id="Path_152" class="fil0" d="M0 12224c0,0 3664,-2988 8202,-3212 4538,-224 5517,2132 9948,2317 4432,184 4221,-3054 8150,-3317 3929,-264 4987,2448 7567,2264 2579,-185 2293,-1157 2293,-1157l0 -9101 -36160 -18 0 12224z" data-name="Path 152"/>
  <path id="Path_351" class="fil1" d="M33690 4974c-1093,-1799 -2116,3210 -3669,3316 -781,54 -892,-546 -1124,-1145 -230,-592 -577,-1183 -1804,-1148 -2469,71 -846,-3739 1835,-3845 1785,-71 1865,-1314 1720,-2137l5512 3 0 9101c0,0 174,592 -974,940 -217,-1304 -711,-3794 -1496,-5085z" data-name="Path 351"/>
  <path id="Path_195" class="fil2" d="M2077 8440c-1,0 -1,0 -2,0 -164,0 -322,-65 -438,-182 -116,-116 -182,-273 -182,-438 0,0 0,-1 0,-2 0,0 0,-1 0,-1 0,-165 66,-322 182,-438 116,-117 274,-182 438,-182 1,0 1,0 2,0 1,0 1,0 2,0 164,0 322,65 438,182 116,116 182,273 182,438 0,0 0,1 0,1 0,1 0,2 0,2 0,165 -66,322 -182,438 -116,117 -274,182 -438,182 -1,0 -1,0 -2,0l0 0zm440 -1248c-25,-4 -51,-6 -76,-6 -145,0 -281,70 -364,188l440 -182z" data-name="Path 195"/>
  <path id="Path_355" class="fil3" d="M0 9106l0 -9106 150 0c2053,1369 2344,4213 4877,2752 1395,-805 3090,-1909 4663,-2747l6119 3c-956,615 -2522,1294 -2262,2744 370,2063 1587,4815 -794,4868 -1016,23 -1878,-542 -2758,-1107 -1183,-759 -2400,-1518 -4068,-851 -2500,1000 -4843,3444 -5924,3444l-3 0z" data-name="Path 355"/>
  <path id="Path_342" class="fil2" d="M25707 2619c1,1 1,1 1,1 0,82 -33,160 -90,217 0,0 0,-1 0,-1 0,-81 32,-159 90,-217l-1 0zm-89 -309c121,-1 219,-99 219,-220 -20,-6 -40,-9 -61,-9 -23,0 -46,4 -68,11l-90 218z" data-name="Path 342"/>
  <path id="Ellipse_80" class="fil2" d="M11615 3188c0,-197 -160,-357 -357,-357 -197,0 -357,160 -357,357 0,198 160,357 357,357 197,0 357,-159 357,-357z" data-name="Ellipse 80"/>
  <path id="Ellipse_81" class="fil2" d="M32650 8030c0,-270 -220,-489 -490,-489 -270,0 -489,219 -489,489 0,270 219,490 489,490 270,0 490,-220 490,-490z" data-name="Ellipse 81"/>
  <path id="Ellipse_68" class="fil2" d="M16695 9935c0,-124 -100,-225 -225,-225 -124,0 -225,101 -225,225 0,124 101,225 225,225 125,0 225,-101 225,-225z" data-name="Ellipse 68"/>
  <g id="Path_343" data-name="Path 343">
   <path class="fil4" d="M18657 1847c74,20 133,78 153,153 20,75 -1,155 -56,210l-498 493c-27,27 -60,46 -96,56 -116,31 -234,-38 -265,-153 0,0 0,0 0,0l-180 -672c-31,-115 37,-234 153,-265 36,-9 74,-10 110,0l679 178z"/>
   <path class="fil2" d="M18682 2035c-3,-15 -17,-49 -59,-60l-678 -178c-42,-11 -71,12 -81,22 -10,10 -33,39 -21,81l180 672c11,42 45,55 59,59 14,4 50,9 81,-22l498 -493c31,-31 25,-67 21,-81m128 -35c19,71 3,151 -56,210l-498 493c-118,117 -318,63 -361,-97l-180 -672c-43,-160 103,-307 263,-265l679 178c80,22 134,83 153,153z"/>
  </g>
  <g id="Path_344" data-name="Path 344">
   <path class="fil4" d="M4285 1319c4,69 -29,135 -87,173 -59,38 -133,42 -195,10l-559 -288c-30,-15 -55,-38 -74,-67 -58,-89 -32,-209 57,-268 0,0 0,0 0,0l524 -340c89,-58 209,-32 268,57 18,29 29,61 31,95l35 628z"/>
   <path class="fil2" d="M4140 1403c13,-8 42,-32 40,-78l-36 -628c-3,-46 -34,-67 -48,-74 -14,-7 -49,-20 -88,5l-523 340c-38,25 -41,63 -40,78 1,15 7,53 48,74l559 288c41,21 75,4 88,-5m58 89c-55,36 -128,44 -195,10l-559 -288c-132,-68 -141,-254 -17,-335l524 -340c124,-81 290,3 299,152l35 628c5,74 -32,137 -87,173z"/>
  </g>
  <path id="Path_349" class="fil5" d="M20285 9454c1305,-952 2258,-105 2610,-1305 300,-1020 2335,-688 2785,-67 -2622,431 -3188,2335 -5408,3013 -412,-446 -741,-1090 13,-1641z" data-name="Path 349"/>
  <path id="Ellipse_82" class="fil2" d="M8070 7792c0,-139 -113,-251 -252,-251 -138,0 -251,112 -251,251 0,139 113,251 251,251 139,0 252,-112 252,-251z" data-name="Ellipse 82"/>
  <path class="fil6" d="M5927 5662c1668,-667 2885,92 4068,851 880,565 1742,1130 2758,1107 2381,-53 1164,-2805 794,-4868 -260,-1450 1306,-2129 2262,-2744l-6119 -3c-1573,838 -3268,1942 -4663,2747 -2533,1461 -2824,-1383 -4877,-2752l-150 0 0 9106 3 0c402,0 978,-338 1671,-813 -12,-11 -25,-23 -37,-35 -116,-116 -182,-273 -182,-438l0 -2 0 -1c0,-165 66,-322 182,-438 116,-117 274,-182 438,-182l2 0 2 0c62,0 123,9 181,27 56,-25 117,-38 181,-38 25,0 51,2 76,6l-165 68c60,30 116,70 165,119 63,63 111,137 142,219 982,-697 2108,-1472 3268,-1936zm4974 -2474c0,-197 160,-357 357,-357 197,0 357,160 357,357 0,198 -160,357 -357,357 -197,0 -357,-159 -357,-357z"/>
  <path class="fil7" d="M5927 5662c1668,-667 2885,92 4068,851 880,565 1742,1130 2758,1107 2381,-53 1164,-2805 794,-4868 -260,-1450 1306,-2129 2262,-2744l-6119 -3c-1573,838 -3268,1942 -4663,2747 -2533,1461 -2824,-1383 -4877,-2752l-150 0 0 9106 3 0c402,0 978,-338 1671,-813 -12,-11 -25,-23 -37,-35 -116,-116 -182,-273 -182,-438l0 -2 0 -1c0,-165 66,-322 182,-438 116,-117 274,-182 438,-182l2 0 2 0c62,0 123,9 181,27 56,-25 117,-38 181,-38 25,0 51,2 76,6l-165 68c60,30 116,70 165,119 63,63 111,137 142,219 982,-697 2108,-1472 3268,-1936zm4974 -2474c0,-197 160,-357 357,-357 197,0 357,160 357,357 0,198 -160,357 -357,357 -197,0 -357,-159 -357,-357z"/>
  <path class="fil8" d="M28928 2152c-2681,106 -4304,3916 -1835,3845 1227,-35 1574,556 1804,1148 232,599 343,1199 1124,1145 1553,-106 2576,-5115 3669,-3316 785,1291 1279,3781 1496,5085 1148,-348 974,-940 974,-940l0 -9101 -5512 -3c145,823 65,2066 -1720,2137z"/>
  <path class="fil9" d="M25680 8082c-450,-621 -2485,-953 -2785,67 -352,1200 -1305,353 -2610,1305 -754,551 -425,1195 -13,1641 2219,-678 2787,-2582 5408,-3013z"/>
  <path class="fil10" d="M5027 2752c1395,-805 3090,-1909 4663,-2747l-9540 -5c2053,1369 2344,4213 4877,2752zm-1592 -1543c-49,-28 -79,-73 -91,-122 0,0 0,0 1,1 5,20 13,40 25,59 17,25 39,46 64,62 1,0 1,0 1,0zm745 116c2,46 -27,70 -40,78 -13,9 -47,26 -88,5l-559 -288c-41,-21 -47,-59 -48,-74 -1,-15 2,-53 40,-78l523 -340c39,-25 74,-12 88,-5 14,7 45,28 48,74l36 628zm-753 -446l0 0z"/>
  <path class="fil10" d="M2077 8440l0 0zm7918 -1927c-1183,-759 -2400,-1518 -4068,-851 -1160,464 -2286,1239 -3268,1936 26,69 40,143 40,219l0 1 0 2c0,165 -66,322 -182,438 -116,117 -274,182 -438,182l-2 0 -2 0c-147,0 -289,-53 -401,-147 -693,475 -1269,813 -1671,813l-3 0 0 3118c0,0 3664,-2988 8202,-3212 4538,-224 5517,2132 9948,2317 862,36 1547,-58 2122,-234 -412,-446 -741,-1090 13,-1641 1305,-952 2258,-105 2610,-1305 300,-1020 2335,-688 2785,-67 195,-32 401,-56 620,-70 3929,-264 4987,2448 7567,2264 567,-41 995,-119 1319,-217 -217,-1304 -711,-3794 -1496,-5085 -1093,-1799 -2116,3210 -3669,3316 -781,54 -892,-546 -1124,-1145 -230,-592 -577,-1183 -1804,-1148 -2469,71 -846,-3739 1835,-3845 1785,-71 1865,-1314 1720,-2137l-14839 -7c-956,615 -2522,1294 -2262,2744 370,2063 1587,4815 -794,4868 -1016,23 -1878,-542 -2758,-1107zm15623 -4203l90 -218c22,-7 45,-11 68,-11 21,0 41,3 61,9 0,121 -98,219 -219,220zm-9373 7625c0,-124 101,-225 225,-225 125,0 225,101 225,225 0,124 -100,225 -225,225 -124,0 -225,-101 -225,-225zm15426 -1905c0,-270 219,-489 489,-489 270,0 490,219 490,489 0,270 -220,490 -490,490 -270,0 -489,-220 -489,-490zm-5963 -5411l0 0zm-90 217c0,-81 32,-159 89,-217l1 1c0,82 -33,160 -90,217l0 -1zm-6961 -989c1,1 2,1 3,1 -1,0 -2,0 -3,-1zm-942 87c-21,-79 3,-154 53,-206 0,0 -1,0 -1,1 -50,52 -72,129 -52,205zm308 638l-180 -672c-12,-42 11,-71 21,-81 10,-10 39,-33 81,-22l678 178c42,11 56,45 59,60 4,14 10,50 -21,81l-498 493c-31,31 -67,26 -81,22 -14,-4 -48,-17 -59,-59zm736 -367c51,-55 71,-132 51,-205 19,69 4,146 -51,205zm-505 500c-48,47 -111,66 -171,60 1,0 1,0 2,0 24,2 50,0 75,-6 35,-10 68,-28 94,-54zm-10436 4836c139,0 252,112 252,251 0,139 -113,251 -252,251 -138,0 -251,-112 -251,-251 0,-139 113,-251 251,-251zm10077 -4935l0 0z"/>
  <path class="fil10" d="M31671 8030c0,270 219,490 489,490 270,0 490,-220 490,-490 0,-270 -220,-489 -490,-489 -270,0 -489,219 -489,489z"/>
  <path class="fil10" d="M18163 2609l498 -493c31,-31 25,-67 21,-81 -3,-15 -17,-49 -59,-60l-678 -178c-42,-11 -71,12 -81,22 -10,10 -33,39 -21,81l180 672c11,42 45,55 59,59 14,4 50,9 81,-22z"/>
  <path class="fil10" d="M18661 2116l-498 493c-31,31 -67,26 -81,22 -14,-4 -48,-17 -59,-59l-180 -672c-12,-42 11,-71 21,-81 10,-10 39,-33 81,-22l678 178c42,11 56,45 59,60 4,14 10,50 -21,81zm-1966 7819c0,124 -100,225 -225,225 -124,0 -225,-101 -225,-225 0,-124 101,-225 225,-225 125,0 225,101 225,225zm-14618 -1495l0 0zm3850 -2778c-1160,464 -2286,1239 -3268,1936 26,69 40,143 40,219l0 1 0 2c0,165 -66,322 -182,438 -116,117 -274,182 -438,182l-2 0 -2 0c-147,0 -289,-53 -401,-147 -693,475 -1269,813 -1671,813l-3 0 0 3118c0,0 3664,-2988 8202,-3212 4538,-224 5517,2132 9948,2317 862,36 1547,-58 2122,-234 -412,-446 -741,-1090 13,-1641 1305,-952 2258,-105 2610,-1305 300,-1020 2335,-688 2785,-67 195,-32 401,-56 620,-70 3929,-264 4987,2448 7567,2264 567,-41 995,-119 1319,-217 -217,-1304 -711,-3794 -1496,-5085 -1093,-1799 -2116,3210 -3669,3316 -781,54 -892,-546 -1124,-1145 -230,-592 -577,-1183 -1804,-1148 -2469,71 -846,-3739 1835,-3845 1785,-71 1865,-1314 1720,-2137l-14839 -7c-956,615 -2522,1294 -2262,2744 370,2063 1587,4815 -794,4868 -1016,23 -1878,-542 -2758,-1107 -1183,-759 -2400,-1518 -4068,-851zm19691 -3352l90 -218c22,-7 45,-11 68,-11 21,0 41,3 61,9 0,121 -98,219 -219,220zm-7903 -376c-21,-79 3,-154 52,-205 0,0 0,0 0,0 -50,53 -72,130 -52,205zm-9897 5607c139,0 252,112 252,251 0,139 -113,251 -252,251 -138,0 -251,-112 -251,-251 0,-139 113,-251 251,-251zm23853 489c0,-270 219,-489 489,-489 270,0 490,219 490,489 0,270 -220,490 -490,490 -270,0 -489,-220 -489,-490zm-5963 -5411l0 0zm-90 217c0,-81 32,-159 89,-217l1 1c0,82 -33,160 -90,217l0 -1z"/>
  <path class="fil10" d="M16695 9935c0,-124 -100,-225 -225,-225 -124,0 -225,101 -225,225 0,124 101,225 225,225 125,0 225,-101 225,-225z"/>
  <path class="fil10" d="M16245 9935c0,-124 101,-225 225,-225 125,0 225,101 225,225 0,124 -100,225 -225,225 -124,0 -225,-101 -225,-225zm-8427 -1892c-138,0 -251,-112 -251,-251 0,-139 113,-251 251,-251 139,0 252,112 252,251 0,139 -113,251 -252,251zm-5741 397l0 0zm10676 -820c-1016,23 -1878,-542 -2758,-1107 -1183,-759 -2400,-1518 -4068,-851 -1160,464 -2286,1239 -3268,1936 26,69 40,143 40,219l0 1 0 2c0,165 -66,322 -182,438 -116,117 -274,182 -438,182l-2 0 -2 0c-147,0 -289,-53 -401,-147 -693,475 -1269,813 -1671,813l-3 0 0 3118c0,0 3664,-2988 8202,-3212 4538,-224 5517,2132 9948,2317 862,36 1547,-58 2122,-234 -412,-446 -741,-1090 13,-1641 1305,-952 2258,-105 2610,-1305 300,-1020 2335,-688 2785,-67 195,-32 401,-56 620,-70 3929,-264 4987,2448 7567,2264 567,-41 995,-119 1319,-217 -217,-1304 -711,-3794 -1496,-5085 -1093,-1799 -2116,3210 -3669,3316 -781,54 -892,-546 -1124,-1145 -230,-592 -577,-1183 -1804,-1148 -2469,71 -846,-3739 1835,-3845 1785,-71 1865,-1314 1720,-2137l-14839 -7c-956,615 -2522,1294 -2262,2744 370,2063 1587,4815 -794,4868zm5270 -5048l-180 -672c-12,-42 11,-71 21,-81 10,-10 39,-33 81,-22l678 178c42,11 56,45 59,60 4,14 10,50 -21,81l-498 493c-31,31 -67,26 -81,22 -14,-4 -48,-17 -59,-59zm7595 -262l90 -218c22,-7 45,-11 68,-11 21,0 41,3 61,9 0,121 -98,219 -219,220zm6053 5720c0,-270 219,-489 489,-489 270,0 490,219 490,489 0,270 -220,490 -490,490 -270,0 -489,-220 -489,-490zm-5963 -5411l0 0zm-90 217c0,-81 32,-159 89,-217l1 1c0,82 -33,160 -90,217l0 -1z"/>
  <path class="fil11" d="M7818 8043c139,0 252,-112 252,-251 0,-139 -113,-251 -252,-251 -138,0 -251,112 -251,251 0,139 113,251 251,251z"/>
  <path class="fil10" d="M3493 1120l559 288c41,21 75,4 88,-5 13,-8 42,-32 40,-78l-36 -628c-3,-46 -34,-67 -48,-74 -14,-7 -49,-20 -88,5l-523 340c-38,25 -41,63 -40,78 1,15 7,53 48,74z"/>
  <path class="fil10" d="M11258 2831c-197,0 -357,160 -357,357 0,198 160,357 357,357 197,0 357,-159 357,-357 0,-197 -160,-357 -357,-357z"/>
  <path class="fil7" d="M11258 2831c-197,0 -357,160 -357,357 0,198 160,357 357,357 197,0 357,-159 357,-357 0,-197 -160,-357 -357,-357z"/>
  <path class="fil7" d="M2659 7598c-31,-82 -79,-156 -142,-219 -49,-49 -105,-89 -165,-119l-275 114c47,-66 111,-118 183,-150 -58,-18 -119,-27 -181,-27l-2 0 -2 0c-164,0 -322,65 -438,182 -116,116 -182,273 -182,438l0 1 0 2c0,165 66,322 182,438 12,12 25,24 37,35 307,-211 637,-448 985,-695z"/>
  <path class="fil7" d="M2077 8440l0 0zm582 -842c-348,247 -678,484 -985,695 112,94 254,147 401,147l2 0 2 0c164,0 322,-65 438,-182 116,-116 182,-273 182,-438l0 -2 0 -1c0,-76 -14,-150 -40,-219z"/>
  <path class="fil10" d="M2077 8440l0 0zm11470 -5688c370,2063 1587,4815 -794,4868 -1016,23 -1878,-542 -2758,-1107 -1183,-759 -2400,-1518 -4068,-851 -1160,464 -2286,1239 -3268,1936 26,69 40,143 40,219l0 1 0 2c0,165 -66,322 -182,438 -116,117 -274,182 -438,182l-2 0 -2 0c-147,0 -289,-53 -401,-147 -693,475 -1269,813 -1671,813l-3 0 0 3118c0,0 3664,-2988 8202,-3212 4538,-224 5517,2132 9948,2317 862,36 1547,-58 2122,-234 -412,-446 -741,-1090 13,-1641 1305,-952 2258,-105 2610,-1305 300,-1020 2335,-688 2785,-67 195,-32 401,-56 620,-70 3929,-264 4987,2448 7567,2264 567,-41 995,-119 1319,-217 -217,-1304 -711,-3794 -1496,-5085 -1093,-1799 -2116,3210 -3669,3316 -781,54 -892,-546 -1124,-1145 -230,-592 -577,-1183 -1804,-1148 -2469,71 -846,-3739 1835,-3845 1785,-71 1865,-1314 1720,-2137l-14839 -7c-956,615 -2522,1294 -2262,2744zm-5477 5040c0,139 -113,251 -252,251 -138,0 -251,-112 -251,-251 0,-139 113,-251 251,-251 139,0 252,112 252,251zm10591 -5676l-498 493c-31,31 -67,26 -81,22 -14,-4 -48,-17 -59,-59l-180 -672c-12,-42 11,-71 21,-81 10,-10 39,-33 81,-22l678 178c42,11 56,45 59,60 4,14 10,50 -21,81zm7176 -26c0,121 -98,219 -219,220l90 -218c22,-7 45,-11 68,-11 21,0 41,3 61,9zm-9592 7845c0,-124 101,-225 225,-225 125,0 225,101 225,225 0,124 -100,225 -225,225 -124,0 -225,-101 -225,-225zm15426 -1905c0,-270 219,-489 489,-489 270,0 490,219 490,489 0,270 -220,490 -490,490 -270,0 -489,-220 -489,-490zm-5963 -5411l0 0zm-90 217c0,-81 32,-159 89,-217l1 1c0,82 -33,160 -90,217l0 -1z"/>
  <path class="fil10" d="M25708 2092l-90 218c121,-1 219,-99 219,-220 -20,-6 -40,-9 -61,-9 -23,0 -46,4 -68,11z"/>
  <path class="fil10" d="M25707 2619c-57,58 -89,136 -89,217l0 1c57,-57 90,-135 90,-217l-1 -1z"/>
  <path class="fil10" d="M2517 7192c-25,-4 -51,-6 -76,-6 -64,0 -125,13 -181,38 32,10 62,22 92,36l165 -68z"/>
  <path class="fil10" d="M2077 7374c47,-66 111,-118 183,-150 -58,-18 -119,-27 -181,-27l-2 0 -2 0c-164,0 -322,65 -438,182 -116,116 -182,273 -182,438l0 1 0 2c0,165 66,322 182,438 12,12 25,24 37,35 307,-211 637,-448 985,-695 -31,-82 -79,-156 -142,-219 -49,-49 -105,-89 -165,-119l-275 114z"/>
  <path class="fil12" d="M2352 7260l-275 114c47,-66 111,-118 183,-150 -58,-18 -119,-27 -181,-27l-2 0 -2 0c-164,0 -322,65 -438,182 -116,116 -182,273 -182,438l0 1 0 2c0,165 66,322 182,438 12,12 25,24 37,35 307,-211 637,-448 985,-695 -31,-82 -79,-156 -142,-219 -49,-49 -105,-89 -165,-119z"/>
  <path class="fil10" d="M2260 7224c32,10 62,22 92,36l165 -68c-25,-4 -51,-6 -76,-6 -64,0 -125,13 -181,38z"/>
  <path class="fil7" d="M2260 7224c56,-25 117,-38 181,-38 25,0 51,2 76,6l-165 68c60,30 116,70 165,119 63,63 111,137 142,219 982,-697 2108,-1472 3268,-1936 1668,-667 2885,92 4068,851 880,565 1742,1130 2758,1107 2381,-53 1164,-2805 794,-4868 -260,-1450 1306,-2129 2262,-2744l-6119 -3c-1573,838 -3268,1942 -4663,2747 -2533,1461 -2824,-1383 -4877,-2752l-150 0 0 9106 3 0c402,0 978,-338 1671,-813 -12,-11 -25,-23 -37,-35 -116,-116 -182,-273 -182,-438l0 -2 0 -1c0,-165 66,-322 182,-438 116,-117 274,-182 438,-182l2 0 2 0c62,0 123,9 181,27zm8641 -4036c0,-197 160,-357 357,-357 197,0 357,160 357,357 0,198 -160,357 -357,357 -197,0 -357,-159 -357,-357z"/>
  <path class="fil7" d="M2352 7260c-30,-14 -60,-26 -92,-36 -72,32 -136,84 -183,150l275 -114z"/>
  <path class="fil7" d="M2441 7186c25,0 51,2 76,6l-165 68c60,30 116,70 165,119 63,63 111,137 142,219 982,-697 2108,-1472 3268,-1936 1668,-667 2885,92 4068,851 880,565 1742,1130 2758,1107 2381,-53 1164,-2805 794,-4868 -260,-1450 1306,-2129 2262,-2744l-6119 -3c-1573,838 -3268,1942 -4663,2747 -2533,1461 -2824,-1383 -4877,-2752l-150 0 0 9106 3 0c402,0 978,-338 1671,-813 -12,-11 -25,-23 -37,-35 -116,-116 -182,-273 -182,-438l0 -2 0 -1c0,-165 66,-322 182,-438 116,-117 274,-182 438,-182l2 0 2 0c62,0 123,9 181,27 56,-25 117,-38 181,-38zm8460 -3998c0,-197 160,-357 357,-357 197,0 357,160 357,357 0,198 -160,357 -357,357 -197,0 -357,-159 -357,-357z"/>
  <path class="fil7" d="M2441 7186c25,0 51,2 76,6l-165 68c60,30 116,70 165,119 63,63 111,137 142,219 982,-697 2108,-1472 3268,-1936 1668,-667 2885,92 4068,851 880,565 1742,1130 2758,1107 2381,-53 1164,-2805 794,-4868 -260,-1450 1306,-2129 2262,-2744l-6119 -3c-1573,838 -3268,1942 -4663,2747 -2533,1461 -2824,-1383 -4877,-2752l-150 0 0 9106 3 0c402,0 978,-338 1671,-813 -12,-11 -25,-23 -37,-35 -116,-116 -182,-273 -182,-438l0 -2 0 -1c0,-165 66,-322 182,-438 116,-117 274,-182 438,-182l2 0 2 0c62,0 123,9 181,27 56,-25 117,-38 181,-38zm8460 -3998c0,-197 160,-357 357,-357 197,0 357,160 357,357 0,198 -160,357 -357,357 -197,0 -357,-159 -357,-357z"/>
  <path class="fil7" d="M2517 7192c-25,-4 -51,-6 -76,-6 -64,0 -125,13 -181,38 32,10 62,22 92,36l165 -68z"/>
  <path class="fil7" d="M2441 7186c25,0 51,2 76,6l-165 68c60,30 116,70 165,119 63,63 111,137 142,219 982,-697 2108,-1472 3268,-1936 1668,-667 2885,92 4068,851 880,565 1742,1130 2758,1107 2381,-53 1164,-2805 794,-4868 -260,-1450 1306,-2129 2262,-2744l-6119 -3c-1573,838 -3268,1942 -4663,2747 -2533,1461 -2824,-1383 -4877,-2752l-150 0 0 9106 3 0c402,0 978,-338 1671,-813 -12,-11 -25,-23 -37,-35 -116,-116 -182,-273 -182,-438l0 -2 0 -1c0,-165 66,-322 182,-438 116,-117 274,-182 438,-182l2 0 2 0c62,0 123,9 181,27 56,-25 117,-38 181,-38zm8460 -3998c0,-197 160,-357 357,-357 197,0 357,160 357,357 0,198 -160,357 -357,357 -197,0 -357,-159 -357,-357z"/>
  <path class="fil7" d="M2517 7379c-49,-49 -105,-89 -165,-119l-275 114c47,-66 111,-118 183,-150 -58,-18 -119,-27 -181,-27l-2 0 -2 0c-164,0 -322,65 -438,182 -116,116 -182,273 -182,438l0 1 0 2c0,165 66,322 182,438 12,12 25,24 37,35 307,-211 637,-448 985,-695 -31,-82 -79,-156 -142,-219z"/>
  <path class="fil7" d="M2077 7374l275 -114c-30,-14 -60,-26 -92,-36 -72,32 -136,84 -183,150z"/>
  <path class="fil7" d="M2077 7374c47,-66 111,-118 183,-150 -58,-18 -119,-27 -181,-27l-2 0 -2 0c-164,0 -322,65 -438,182 -116,116 -182,273 -182,438l0 1 0 2c0,165 66,322 182,438 12,12 25,24 37,35 307,-211 637,-448 985,-695 -31,-82 -79,-156 -142,-219 -49,-49 -105,-89 -165,-119l-275 114z"/>
  <path class="fil7" d="M2352 7260l-275 114c47,-66 111,-118 183,-150 -58,-18 -119,-27 -181,-27l-2 0 -2 0c-164,0 -322,65 -438,182 -116,116 -182,273 -182,438l0 1 0 2c0,165 66,322 182,438 12,12 25,24 37,35 307,-211 637,-448 985,-695 -31,-82 -79,-156 -142,-219 -49,-49 -105,-89 -165,-119z"/>
  <path class="fil7" d="M2352 7260l-275 114c47,-66 111,-118 183,-150 -58,-18 -119,-27 -181,-27l-2 0 -2 0c-164,0 -322,65 -438,182 -116,116 -182,273 -182,438l0 1 0 2c0,165 66,322 182,438 12,12 25,24 37,35 307,-211 637,-448 985,-695 -31,-82 -79,-156 -142,-219 -49,-49 -105,-89 -165,-119z"/>
  <path class="fil7" d="M2352 7260l-275 114c47,-66 111,-118 183,-150 -58,-18 -119,-27 -181,-27l-2 0 -2 0c-164,0 -322,65 -438,182 -116,116 -182,273 -182,438l0 1 0 2c0,165 66,322 182,438 12,12 25,24 37,35 307,-211 637,-448 985,-695 -31,-82 -79,-156 -142,-219 -49,-49 -105,-89 -165,-119z"/>
  <path class="fil7" d="M2352 7260l-275 114c47,-66 111,-118 183,-150 -58,-18 -119,-27 -181,-27l-2 0 -2 0c-164,0 -322,65 -438,182 -116,116 -182,273 -182,438l0 1 0 2c0,165 66,322 182,438 12,12 25,24 37,35 307,-211 637,-448 985,-695 -31,-82 -79,-156 -142,-219 -49,-49 -105,-89 -165,-119z"/>
  <path class="fil7" d="M2352 7260l-275 114c47,-66 111,-118 183,-150 -58,-18 -119,-27 -181,-27l-2 0 -2 0c-164,0 -322,65 -438,182 -116,116 -182,273 -182,438l0 1 0 2c0,165 66,322 182,438 12,12 25,24 37,35 307,-211 637,-448 985,-695 -31,-82 -79,-156 -142,-219 -49,-49 -105,-89 -165,-119z"/>
  <path class="fil7" d="M1637 8258c-116,-116 -182,-273 -182,-438l0 -2 0 -1c0,-165 66,-322 182,-438 116,-117 274,-182 438,-182l2 0 2 0c62,0 123,9 181,27 56,-25 117,-38 181,-38 25,0 51,2 76,6l-165 68c60,30 116,70 165,119 63,63 111,137 142,219 982,-697 2108,-1472 3268,-1936 1668,-667 2885,92 4068,851 880,565 1742,1130 2758,1107 2381,-53 1164,-2805 794,-4868 -260,-1450 1306,-2129 2262,-2744l-6119 -3c-1573,838 -3268,1942 -4663,2747 -2533,1461 -2824,-1383 -4877,-2752l-150 0 0 9106 3 0c402,0 978,-338 1671,-813 -12,-11 -25,-23 -37,-35zm9264 -5070c0,-197 160,-357 357,-357 197,0 357,160 357,357 0,198 -160,357 -357,357 -197,0 -357,-159 -357,-357z"/>
  <path class="fil7" d="M2079 7197c62,0 123,9 181,27 56,-25 117,-38 181,-38 25,0 51,2 76,6l-165 68c60,30 116,70 165,119 63,63 111,137 142,219 982,-697 2108,-1472 3268,-1936 1668,-667 2885,92 4068,851 880,565 1742,1130 2758,1107 2381,-53 1164,-2805 794,-4868 -260,-1450 1306,-2129 2262,-2744l-6119 -3c-1573,838 -3268,1942 -4663,2747 -2533,1461 -2824,-1383 -4877,-2752l-150 0 0 9106 3 0c402,0 978,-338 1671,-813 -12,-11 -25,-23 -37,-35 -116,-116 -182,-273 -182,-438l0 -2 0 -1c0,-165 66,-322 182,-438 116,-117 274,-182 438,-182l2 0 2 0zm8822 -4009c0,-197 160,-357 357,-357 197,0 357,160 357,357 0,198 -160,357 -357,357 -197,0 -357,-159 -357,-357z"/>
  <path class="fil7" d="M10901 3188c0,198 160,357 357,357 197,0 357,-159 357,-357 0,-197 -160,-357 -357,-357 -197,0 -357,160 -357,357z"/>
  <path class="fil7" d="M11258 3545c-197,0 -357,-159 -357,-357 0,-197 160,-357 357,-357 197,0 357,160 357,357 0,198 -160,357 -357,357zm-9179 3652c62,0 123,9 181,27 56,-25 117,-38 181,-38 25,0 51,2 76,6l-165 68c60,30 116,70 165,119 63,63 111,137 142,219 982,-697 2108,-1472 3268,-1936 1668,-667 2885,92 4068,851 880,565 1742,1130 2758,1107 2381,-53 1164,-2805 794,-4868 -260,-1450 1306,-2129 2262,-2744l-6119 -3c-1573,838 -3268,1942 -4663,2747 -2533,1461 -2824,-1383 -4877,-2752l-150 0 0 9106 3 0c402,0 978,-338 1671,-813 -12,-11 -25,-23 -37,-35 -116,-116 -182,-273 -182,-438l0 -2 0 -1c0,-165 66,-322 182,-438 116,-117 274,-182 438,-182l2 0 2 0z"/>
  <path class="fil7" d="M11258 3545c-197,0 -357,-159 -357,-357 0,-197 160,-357 357,-357 197,0 357,160 357,357 0,198 -160,357 -357,357zm-9179 3652c62,0 123,9 181,27 56,-25 117,-38 181,-38 25,0 51,2 76,6l-165 68c60,30 116,70 165,119 63,63 111,137 142,219 982,-697 2108,-1472 3268,-1936 1668,-667 2885,92 4068,851 880,565 1742,1130 2758,1107 2381,-53 1164,-2805 794,-4868 -260,-1450 1306,-2129 2262,-2744l-6119 -3c-1573,838 -3268,1942 -4663,2747 -2533,1461 -2824,-1383 -4877,-2752l-150 0 0 9106 3 0c402,0 978,-338 1671,-813 -12,-11 -25,-23 -37,-35 -116,-116 -182,-273 -182,-438l0 -2 0 -1c0,-165 66,-322 182,-438 116,-117 274,-182 438,-182l2 0 2 0z"/>
  <path class="fil7" d="M10901 3188c0,-197 160,-357 357,-357 197,0 357,160 357,357 0,198 -160,357 -357,357 -197,0 -357,-159 -357,-357zm-8822 4009c62,0 123,9 181,27 56,-25 117,-38 181,-38 25,0 51,2 76,6l-165 68c60,30 116,70 165,119 63,63 111,137 142,219 982,-697 2108,-1472 3268,-1936 1668,-667 2885,92 4068,851 880,565 1742,1130 2758,1107 2381,-53 1164,-2805 794,-4868 -260,-1450 1306,-2129 2262,-2744l-6119 -3c-1573,838 -3268,1942 -4663,2747 -2533,1461 -2824,-1383 -4877,-2752l-150 0 0 9106 3 0c402,0 978,-338 1671,-813 -12,-11 -25,-23 -37,-35 -116,-116 -182,-273 -182,-438l0 -2 0 -1c0,-165 66,-322 182,-438 116,-117 274,-182 438,-182l2 0 2 0z"/>
  <path class="fil7" d="M11258 2831c-197,0 -357,160 -357,357 0,198 160,357 357,357 197,0 357,-159 357,-357 0,-197 -160,-357 -357,-357z"/>
  <path class="fil7" d="M11258 2831c-197,0 -357,160 -357,357 0,198 160,357 357,357 197,0 357,-159 357,-357 0,-197 -160,-357 -357,-357z"/>
  <path class="fil7" d="M11258 2831c197,0 357,160 357,357 0,198 -160,357 -357,357 -197,0 -357,-159 -357,-357 0,-197 160,-357 357,-357zm-9179 4366c62,0 123,9 181,27 56,-25 117,-38 181,-38 25,0 51,2 76,6l-165 68c60,30 116,70 165,119 63,63 111,137 142,219 982,-697 2108,-1472 3268,-1936 1668,-667 2885,92 4068,851 880,565 1742,1130 2758,1107 2381,-53 1164,-2805 794,-4868 -260,-1450 1306,-2129 2262,-2744l-6119 -3c-1573,838 -3268,1942 -4663,2747 -2533,1461 -2824,-1383 -4877,-2752l-150 0 0 9106 3 0c402,0 978,-338 1671,-813 -12,-11 -25,-23 -37,-35 -116,-116 -182,-273 -182,-438l0 -2 0 -1c0,-165 66,-322 182,-438 116,-117 274,-182 438,-182l2 0 2 0z"/>
  <path class="fil7" d="M11258 2831c197,0 357,160 357,357 0,198 -160,357 -357,357 -197,0 -357,-159 -357,-357 0,-197 160,-357 357,-357zm-9179 4366c62,0 123,9 181,27 56,-25 117,-38 181,-38 25,0 51,2 76,6l-165 68c60,30 116,70 165,119 63,63 111,137 142,219 982,-697 2108,-1472 3268,-1936 1668,-667 2885,92 4068,851 880,565 1742,1130 2758,1107 2381,-53 1164,-2805 794,-4868 -260,-1450 1306,-2129 2262,-2744l-6119 -3c-1573,838 -3268,1942 -4663,2747 -2533,1461 -2824,-1383 -4877,-2752l-150 0 0 9106 3 0c402,0 978,-338 1671,-813 -12,-11 -25,-23 -37,-35 -116,-116 -182,-273 -182,-438l0 -2 0 -1c0,-165 66,-322 182,-438 116,-117 274,-182 438,-182l2 0 2 0z"/>
  <path class="fil13" d="M11615 3188c0,-197 -160,-357 -357,-357 -197,0 -357,160 -357,357 0,198 160,357 357,357 197,0 357,-159 357,-357z"/>
  <path class="fil7" d="M10901 3188c0,-197 160,-357 357,-357 197,0 357,160 357,357 0,198 -160,357 -357,357 -197,0 -357,-159 -357,-357zm-8822 4009c62,0 123,9 181,27 56,-25 117,-38 181,-38 25,0 51,2 76,6l-165 68c60,30 116,70 165,119 63,63 111,137 142,219 982,-697 2108,-1472 3268,-1936 1668,-667 2885,92 4068,851 880,565 1742,1130 2758,1107 2381,-53 1164,-2805 794,-4868 -260,-1450 1306,-2129 2262,-2744l-6119 -3c-1573,838 -3268,1942 -4663,2747 -2533,1461 -2824,-1383 -4877,-2752l-150 0 0 9106 3 0c402,0 978,-338 1671,-813 -12,-11 -25,-23 -37,-35 -116,-116 -182,-273 -182,-438l0 -2 0 -1c0,-165 66,-322 182,-438 116,-117 274,-182 438,-182l2 0 2 0z"/>
  <path class="fil7" d="M10901 3188c0,-197 160,-357 357,-357 197,0 357,160 357,357 0,198 -160,357 -357,357 -197,0 -357,-159 -357,-357zm-8822 4009c62,0 123,9 181,27 56,-25 117,-38 181,-38 25,0 51,2 76,6l-165 68c60,30 116,70 165,119 63,63 111,137 142,219 982,-697 2108,-1472 3268,-1936 1668,-667 2885,92 4068,851 880,565 1742,1130 2758,1107 2381,-53 1164,-2805 794,-4868 -260,-1450 1306,-2129 2262,-2744l-6119 -3c-1573,838 -3268,1942 -4663,2747 -2533,1461 -2824,-1383 -4877,-2752l-150 0 0 9106 3 0c402,0 978,-338 1671,-813 -12,-11 -25,-23 -37,-35 -116,-116 -182,-273 -182,-438l0 -2 0 -1c0,-165 66,-322 182,-438 116,-117 274,-182 438,-182l2 0 2 0z"/>
  <path class="fil7" d="M10901 3188c0,-197 160,-357 357,-357 197,0 357,160 357,357 0,198 -160,357 -357,357 -197,0 -357,-159 -357,-357zm-8822 4009c62,0 123,9 181,27 56,-25 117,-38 181,-38 25,0 51,2 76,6l-165 68c60,30 116,70 165,119 63,63 111,137 142,219 982,-697 2108,-1472 3268,-1936 1668,-667 2885,92 4068,851 880,565 1742,1130 2758,1107 2381,-53 1164,-2805 794,-4868 -260,-1450 1306,-2129 2262,-2744l-6119 -3c-1573,838 -3268,1942 -4663,2747 -2533,1461 -2824,-1383 -4877,-2752l-150 0 0 9106 3 0c402,0 978,-338 1671,-813 -12,-11 -25,-23 -37,-35 -116,-116 -182,-273 -182,-438l0 -2 0 -1c0,-165 66,-322 182,-438 116,-117 274,-182 438,-182l2 0 2 0z"/>
  <path class="fil7" d="M10901 3188c0,-197 160,-357 357,-357 197,0 357,160 357,357 0,198 -160,357 -357,357 -197,0 -357,-159 -357,-357zm-8822 4009c62,0 123,9 181,27 56,-25 117,-38 181,-38 25,0 51,2 76,6l-165 68c60,30 116,70 165,119 63,63 111,137 142,219 982,-697 2108,-1472 3268,-1936 1668,-667 2885,92 4068,851 880,565 1742,1130 2758,1107 2381,-53 1164,-2805 794,-4868 -260,-1450 1306,-2129 2262,-2744l-6119 -3c-1573,838 -3268,1942 -4663,2747 -2533,1461 -2824,-1383 -4877,-2752l-150 0 0 9106 3 0c402,0 978,-338 1671,-813 -12,-11 -25,-23 -37,-35 -116,-116 -182,-273 -182,-438l0 -2 0 -1c0,-165 66,-322 182,-438 116,-117 274,-182 438,-182l2 0 2 0z"/>
  <path class="fil7" d="M10901 3188c0,-197 160,-357 357,-357 197,0 357,160 357,357 0,198 -160,357 -357,357 -197,0 -357,-159 -357,-357zm-8822 4009c62,0 123,9 181,27 56,-25 117,-38 181,-38 25,0 51,2 76,6l-165 68c60,30 116,70 165,119 63,63 111,137 142,219 982,-697 2108,-1472 3268,-1936 1668,-667 2885,92 4068,851 880,565 1742,1130 2758,1107 2381,-53 1164,-2805 794,-4868 -260,-1450 1306,-2129 2262,-2744l-6119 -3c-1573,838 -3268,1942 -4663,2747 -2533,1461 -2824,-1383 -4877,-2752l-150 0 0 9106 3 0c402,0 978,-338 1671,-813 -12,-11 -25,-23 -37,-35 -116,-116 -182,-273 -182,-438l0 -2 0 -1c0,-165 66,-322 182,-438 116,-117 274,-182 438,-182l2 0 2 0z"/>
  <path class="fil7" d="M10901 3188c0,-197 160,-357 357,-357 197,0 357,160 357,357 0,198 -160,357 -357,357 -197,0 -357,-159 -357,-357zm-8822 4009c62,0 123,9 181,27 56,-25 117,-38 181,-38 25,0 51,2 76,6l-165 68c60,30 116,70 165,119 63,63 111,137 142,219 982,-697 2108,-1472 3268,-1936 1668,-667 2885,92 4068,851 880,565 1742,1130 2758,1107 2381,-53 1164,-2805 794,-4868 -260,-1450 1306,-2129 2262,-2744l-6119 -3c-1573,838 -3268,1942 -4663,2747 -2533,1461 -2824,-1383 -4877,-2752l-150 0 0 9106 3 0c402,0 978,-338 1671,-813 -12,-11 -25,-23 -37,-35 -116,-116 -182,-273 -182,-438l0 -2 0 -1c0,-165 66,-322 182,-438 116,-117 274,-182 438,-182l2 0 2 0z"/>
  <path class="fil7" d="M5027 2752c-2533,1461 -2824,-1383 -4877,-2752l-150 0 0 9106 3 0c402,0 978,-338 1671,-813 -12,-11 -25,-23 -37,-35 -116,-116 -182,-273 -182,-438l0 -2 0 -1c0,-165 66,-322 182,-438 116,-117 274,-182 438,-182l2 0 2 0c62,0 123,9 181,27 56,-25 117,-38 181,-38 25,0 51,2 76,6l-165 68c60,30 116,70 165,119 63,63 111,137 142,219 982,-697 2108,-1472 3268,-1936 1668,-667 2885,92 4068,851 880,565 1742,1130 2758,1107 2381,-53 1164,-2805 794,-4868 -260,-1450 1306,-2129 2262,-2744l-6119 -3c-1573,838 -3268,1942 -4663,2747zm5874 436c0,-197 160,-357 357,-357 197,0 357,160 357,357 0,198 -160,357 -357,357 -197,0 -357,-159 -357,-357z"/>
  <path class="fil7" d="M5027 2752c-2533,1461 -2824,-1383 -4877,-2752l-150 0 0 9106 3 0c402,0 978,-338 1671,-813 -12,-11 -25,-23 -37,-35 -116,-116 -182,-273 -182,-438l0 -2 0 -1c0,-165 66,-322 182,-438 116,-117 274,-182 438,-182l2 0 2 0c62,0 123,9 181,27 56,-25 117,-38 181,-38 25,0 51,2 76,6l-165 68c60,30 116,70 165,119 63,63 111,137 142,219 982,-697 2108,-1472 3268,-1936 1668,-667 2885,92 4068,851 880,565 1742,1130 2758,1107 2381,-53 1164,-2805 794,-4868 -260,-1450 1306,-2129 2262,-2744l-6119 -3c-1573,838 -3268,1942 -4663,2747zm5874 436c0,-197 160,-357 357,-357 197,0 357,160 357,357 0,198 -160,357 -357,357 -197,0 -357,-159 -357,-357z"/>
  <path class="fil7" d="M5027 2752c-2533,1461 -2824,-1383 -4877,-2752l-150 0 0 9106 3 0c402,0 978,-338 1671,-813 -12,-11 -25,-23 -37,-35 -116,-116 -182,-273 -182,-438l0 -2 0 -1c0,-165 66,-322 182,-438 116,-117 274,-182 438,-182l2 0 2 0c62,0 123,9 181,27 56,-25 117,-38 181,-38 25,0 51,2 76,6l-165 68c60,30 116,70 165,119 63,63 111,137 142,219 982,-697 2108,-1472 3268,-1936 1668,-667 2885,92 4068,851 880,565 1742,1130 2758,1107 2381,-53 1164,-2805 794,-4868 -260,-1450 1306,-2129 2262,-2744l-6119 -3c-1573,838 -3268,1942 -4663,2747zm5874 436c0,-197 160,-357 357,-357 197,0 357,160 357,357 0,198 -160,357 -357,357 -197,0 -357,-159 -357,-357z"/>
  <path class="fil7" d="M5027 2752c-2533,1461 -2824,-1383 -4877,-2752l-150 0 0 9106 3 0c402,0 978,-338 1671,-813 -12,-11 -25,-23 -37,-35 -116,-116 -182,-273 -182,-438l0 -2 0 -1c0,-165 66,-322 182,-438 116,-117 274,-182 438,-182l2 0 2 0c62,0 123,9 181,27 56,-25 117,-38 181,-38 25,0 51,2 76,6l-165 68c60,30 116,70 165,119 63,63 111,137 142,219 982,-697 2108,-1472 3268,-1936 1668,-667 2885,92 4068,851 880,565 1742,1130 2758,1107 2381,-53 1164,-2805 794,-4868 -260,-1450 1306,-2129 2262,-2744l-6119 -3c-1573,838 -3268,1942 -4663,2747zm5874 436c0,-197 160,-357 357,-357 197,0 357,160 357,357 0,198 -160,357 -357,357 -197,0 -357,-159 -357,-357z"/>
  <path class="fil14" d="M5027 2752c-2533,1461 -2824,-1383 -4877,-2752l-150 0 0 9106 3 0c402,0 978,-338 1671,-813 -12,-11 -25,-23 -37,-35 -116,-116 -182,-273 -182,-438l0 -2 0 -1c0,-165 66,-322 182,-438 116,-117 274,-182 438,-182l2 0 2 0c62,0 123,9 181,27 56,-25 117,-38 181,-38 25,0 51,2 76,6l-165 68c60,30 116,70 165,119 63,63 111,137 142,219 982,-697 2108,-1472 3268,-1936 1668,-667 2885,92 4068,851 880,565 1742,1130 2758,1107 2381,-53 1164,-2805 794,-4868 -260,-1450 1306,-2129 2262,-2744l-6119 -3c-1573,838 -3268,1942 -4663,2747zm5874 436c0,-197 160,-357 357,-357 197,0 357,160 357,357 0,198 -160,357 -357,357 -197,0 -357,-159 -357,-357z"/>
  <path class="fil10" d="M150 0c2053,1369 2344,4213 4877,2752 1395,-805 3090,-1909 4663,-2747l-9540 -5zm3902 1408l-559 -288c-41,-21 -47,-59 -48,-74 -1,-15 2,-53 40,-78l523 -340c39,-25 74,-12 88,-5 14,7 45,28 48,74l36 628c2,46 -27,70 -40,78 -13,9 -47,26 -88,5zm-682 -261c17,25 39,46 64,62l1 0c-49,-28 -79,-73 -91,-122l1 1c5,20 13,40 25,59z"/>
  <path class="fil10" d="M3493 1120l559 288c41,21 75,4 88,-5 13,-8 42,-32 40,-78l-36 -628c-3,-46 -34,-67 -48,-74 -14,-7 -49,-20 -88,5l-523 340c-38,25 -41,63 -40,78 1,15 7,53 48,74z"/>
  <path class="fil10" d="M3493 1120l559 288c41,21 75,4 88,-5 13,-8 42,-32 40,-78l-36 -628c-3,-46 -34,-67 -48,-74 -14,-7 -49,-20 -88,5l-523 340c-38,25 -41,63 -40,78 1,15 7,53 48,74z"/>
  <path class="fil10" d="M3493 1120l559 288c41,21 75,4 88,-5 13,-8 42,-32 40,-78l-36 -628c-3,-46 -34,-67 -48,-74 -14,-7 -49,-20 -88,5l-523 340c-38,25 -41,63 -40,78 1,15 7,53 48,74z"/>
  <path class="fil10" d="M3493 1120l559 288c41,21 75,4 88,-5 13,-8 42,-32 40,-78l-36 -628c-3,-46 -34,-67 -48,-74 -14,-7 -49,-20 -88,5l-523 340c-38,25 -41,63 -40,78 1,15 7,53 48,74z"/>
  <path class="fil10" d="M4052 1408l-559 -288c-41,-21 -47,-59 -48,-74 -1,-15 2,-53 40,-78l523 -340c39,-25 74,-12 88,-5 14,7 45,28 48,74l36 628c2,46 -27,70 -40,78 -13,9 -47,26 -88,5zm975 1344c1395,-805 3090,-1909 4663,-2747l-9540 -5c2053,1369 2344,4213 4877,2752z"/>
  <path class="fil10" d="M4144 697l36 628c2,46 -27,70 -40,78 -13,9 -47,26 -88,5l-559 -288c-41,-21 -47,-59 -48,-74 -1,-15 2,-53 40,-78l523 -340c39,-25 74,-12 88,-5 14,7 45,28 48,74zm883 2055c1395,-805 3090,-1909 4663,-2747l-9540 -5c2053,1369 2344,4213 4877,2752z"/>
  <path class="fil10" d="M4180 1325l-36 -628c-3,-46 -34,-67 -48,-74 -14,-7 -49,-20 -88,5l-523 340c-38,25 -41,63 -40,78 1,15 7,53 48,74l559 288c41,21 75,4 88,-5 13,-8 42,-32 40,-78z"/>
  <path class="fil10" d="M3493 1120c-41,-21 -47,-59 -48,-74 -1,-15 2,-53 40,-78l523 -340c39,-25 74,-12 88,-5 14,7 45,28 48,74l36 628c2,46 -27,70 -40,78 -13,9 -47,26 -88,5l-559 -288zm1534 1632c1395,-805 3090,-1909 4663,-2747l-9540 -5c2053,1369 2344,4213 4877,2752z"/>
  <path class="fil10" d="M3493 1120c-41,-21 -47,-59 -48,-74 -1,-15 2,-53 40,-78l523 -340c39,-25 74,-12 88,-5 14,7 45,28 48,74l36 628c2,46 -27,70 -40,78 -13,9 -47,26 -88,5l-559 -288zm1534 1632c1395,-805 3090,-1909 4663,-2747l-9540 -5c2053,1369 2344,4213 4877,2752z"/>
  <path class="fil10" d="M3493 1120c-41,-21 -47,-59 -48,-74 -1,-15 2,-53 40,-78l523 -340c39,-25 74,-12 88,-5 14,7 45,28 48,74l36 628c2,46 -27,70 -40,78 -13,9 -47,26 -88,5l-559 -288zm1534 1632c1395,-805 3090,-1909 4663,-2747l-9540 -5c2053,1369 2344,4213 4877,2752z"/>
  <path class="fil10" d="M3445 1046c1,15 7,53 48,74l559 288c41,21 75,4 88,-5 13,-8 42,-32 40,-78l-36 -628c-3,-46 -34,-67 -48,-74 -14,-7 -49,-20 -88,5l-523 340c-38,25 -41,63 -40,78z"/>
  <path class="fil10" d="M3445 1046c1,15 7,53 48,74l559 288c41,21 75,4 88,-5 13,-8 42,-32 40,-78l-36 -628c-3,-46 -34,-67 -48,-74 -14,-7 -49,-20 -88,5l-523 340c-38,25 -41,63 -40,78z"/>
  <path class="fil10" d="M2077 8440l0 0zm11470 -5688c370,2063 1587,4815 -794,4868 -1016,23 -1878,-542 -2758,-1107 -1183,-759 -2400,-1518 -4068,-851 -1160,464 -2286,1239 -3268,1936 26,69 40,143 40,219l0 1 0 2c0,165 -66,322 -182,438 -116,117 -274,182 -438,182l-2 0 -2 0c-147,0 -289,-53 -401,-147 -693,475 -1269,813 -1671,813l-3 0 0 3118c0,0 3664,-2988 8202,-3212 4538,-224 5517,2132 9948,2317 862,36 1547,-58 2122,-234 -412,-446 -741,-1090 13,-1641 1305,-952 2258,-105 2610,-1305 300,-1020 2335,-688 2785,-67 195,-32 401,-56 620,-70 3929,-264 4987,2448 7567,2264 567,-41 995,-119 1319,-217 -217,-1304 -711,-3794 -1496,-5085 -1093,-1799 -2116,3210 -3669,3316 -781,54 -892,-546 -1124,-1145 -230,-592 -577,-1183 -1804,-1148 -2469,71 -846,-3739 1835,-3845 1785,-71 1865,-1314 1720,-2137l-14839 -7c-956,615 -2522,1294 -2262,2744zm-5477 5040c0,139 -113,251 -252,251 -138,0 -251,-112 -251,-251 0,-139 113,-251 251,-251 139,0 252,112 252,251zm10591 -5676l-498 493c-31,31 -67,26 -81,22 -14,-4 -48,-17 -59,-59l-180 -672c-12,-42 11,-71 21,-81 10,-10 39,-33 81,-22l678 178c42,11 56,45 59,60 4,14 10,50 -21,81zm6957 194l90 -218c22,-7 45,-11 68,-11 21,0 41,3 61,9 0,121 -98,219 -219,220zm-9373 7625c0,-124 101,-225 225,-225 125,0 225,101 225,225 0,124 -100,225 -225,225 -124,0 -225,-101 -225,-225zm15426 -1905c0,-270 219,-489 489,-489 270,0 490,219 490,489 0,270 -220,490 -490,490 -270,0 -489,-220 -489,-490zm-5963 -5411l0 0zm-90 217c0,-81 32,-159 89,-217l1 1c0,82 -33,160 -90,217l0 -1z"/>
  <path class="fil10" d="M2077 8440l0 0zm11470 -5688c370,2063 1587,4815 -794,4868 -1016,23 -1878,-542 -2758,-1107 -1183,-759 -2400,-1518 -4068,-851 -1160,464 -2286,1239 -3268,1936 26,69 40,143 40,219l0 1 0 2c0,165 -66,322 -182,438 -116,117 -274,182 -438,182l-2 0 -2 0c-147,0 -289,-53 -401,-147 -693,475 -1269,813 -1671,813l-3 0 0 3118c0,0 3664,-2988 8202,-3212 4538,-224 5517,2132 9948,2317 862,36 1547,-58 2122,-234 -412,-446 -741,-1090 13,-1641 1305,-952 2258,-105 2610,-1305 300,-1020 2335,-688 2785,-67 195,-32 401,-56 620,-70 3929,-264 4987,2448 7567,2264 567,-41 995,-119 1319,-217 -217,-1304 -711,-3794 -1496,-5085 -1093,-1799 -2116,3210 -3669,3316 -781,54 -892,-546 -1124,-1145 -230,-592 -577,-1183 -1804,-1148 -2469,71 -846,-3739 1835,-3845 1785,-71 1865,-1314 1720,-2137l-14839 -7c-956,615 -2522,1294 -2262,2744zm-5477 5040c0,139 -113,251 -252,251 -138,0 -251,-112 -251,-251 0,-139 113,-251 251,-251 139,0 252,112 252,251zm10591 -5676l-498 493c-31,31 -67,26 -81,22 -14,-4 -48,-17 -59,-59l-180 -672c-12,-42 11,-71 21,-81 10,-10 39,-33 81,-22l678 178c42,11 56,45 59,60 4,14 10,50 -21,81zm6957 194l90 -218c22,-7 45,-11 68,-11 21,0 41,3 61,9 0,121 -98,219 -219,220zm-9373 7625c0,-124 101,-225 225,-225 125,0 225,101 225,225 0,124 -100,225 -225,225 -124,0 -225,-101 -225,-225zm15426 -1905c0,-270 219,-489 489,-489 270,0 490,219 490,489 0,270 -220,490 -490,490 -270,0 -489,-220 -489,-490zm-5963 -5411l0 0zm-90 217c0,-81 32,-159 89,-217l1 1c0,82 -33,160 -90,217l0 -1z"/>
  <path class="fil10" d="M2077 8440l0 0zm11470 -5688c370,2063 1587,4815 -794,4868 -1016,23 -1878,-542 -2758,-1107 -1183,-759 -2400,-1518 -4068,-851 -1160,464 -2286,1239 -3268,1936 26,69 40,143 40,219l0 1 0 2c0,165 -66,322 -182,438 -116,117 -274,182 -438,182l-2 0 -2 0c-147,0 -289,-53 -401,-147 -693,475 -1269,813 -1671,813l-3 0 0 3118c0,0 3664,-2988 8202,-3212 4538,-224 5517,2132 9948,2317 862,36 1547,-58 2122,-234 -412,-446 -741,-1090 13,-1641 1305,-952 2258,-105 2610,-1305 300,-1020 2335,-688 2785,-67 195,-32 401,-56 620,-70 3929,-264 4987,2448 7567,2264 567,-41 995,-119 1319,-217 -217,-1304 -711,-3794 -1496,-5085 -1093,-1799 -2116,3210 -3669,3316 -781,54 -892,-546 -1124,-1145 -230,-592 -577,-1183 -1804,-1148 -2469,71 -846,-3739 1835,-3845 1785,-71 1865,-1314 1720,-2137l-14839 -7c-956,615 -2522,1294 -2262,2744zm-5477 5040c0,139 -113,251 -252,251 -138,0 -251,-112 -251,-251 0,-139 113,-251 251,-251 139,0 252,112 252,251zm10591 -5676l-498 493c-31,31 -67,26 -81,22 -14,-4 -48,-17 -59,-59l-180 -672c-12,-42 11,-71 21,-81 10,-10 39,-33 81,-22l678 178c42,11 56,45 59,60 4,14 10,50 -21,81zm6957 194l90 -218c22,-7 45,-11 68,-11 21,0 41,3 61,9 0,121 -98,219 -219,220zm-9373 7625c0,-124 101,-225 225,-225 125,0 225,101 225,225 0,124 -100,225 -225,225 -124,0 -225,-101 -225,-225zm15426 -1905c0,-270 219,-489 489,-489 270,0 490,219 490,489 0,270 -220,490 -490,490 -270,0 -489,-220 -489,-490zm-5963 -5411l0 0zm-90 217c0,-81 32,-159 89,-217l1 1c0,82 -33,160 -90,217l0 -1z"/>
  <path class="fil10" d="M2077 8440l0 0zm11470 -5688c370,2063 1587,4815 -794,4868 -1016,23 -1878,-542 -2758,-1107 -1183,-759 -2400,-1518 -4068,-851 -1160,464 -2286,1239 -3268,1936 26,69 40,143 40,219l0 1 0 2c0,165 -66,322 -182,438 -116,117 -274,182 -438,182l-2 0 -2 0c-147,0 -289,-53 -401,-147 -693,475 -1269,813 -1671,813l-3 0 0 3118c0,0 3664,-2988 8202,-3212 4538,-224 5517,2132 9948,2317 862,36 1547,-58 2122,-234 -412,-446 -741,-1090 13,-1641 1305,-952 2258,-105 2610,-1305 300,-1020 2335,-688 2785,-67 195,-32 401,-56 620,-70 3929,-264 4987,2448 7567,2264 567,-41 995,-119 1319,-217 -217,-1304 -711,-3794 -1496,-5085 -1093,-1799 -2116,3210 -3669,3316 -781,54 -892,-546 -1124,-1145 -230,-592 -577,-1183 -1804,-1148 -2469,71 -846,-3739 1835,-3845 1785,-71 1865,-1314 1720,-2137l-14839 -7c-956,615 -2522,1294 -2262,2744zm-5477 5040c0,139 -113,251 -252,251 -138,0 -251,-112 -251,-251 0,-139 113,-251 251,-251 139,0 252,112 252,251zm10591 -5676l-498 493c-31,31 -67,26 -81,22 -14,-4 -48,-17 -59,-59l-180 -672c-12,-42 11,-71 21,-81 10,-10 39,-33 81,-22l678 178c42,11 56,45 59,60 4,14 10,50 -21,81zm6957 194l90 -218c22,-7 45,-11 68,-11 21,0 41,3 61,9 0,121 -98,219 -219,220zm-9373 7625c0,-124 101,-225 225,-225 125,0 225,101 225,225 0,124 -100,225 -225,225 -124,0 -225,-101 -225,-225zm15426 -1905c0,-270 219,-489 489,-489 270,0 490,219 490,489 0,270 -220,490 -490,490 -270,0 -489,-220 -489,-490zm-5963 -5411l0 0zm-90 217c0,-81 32,-159 89,-217l1 1c0,82 -33,160 -90,217l0 -1z"/>
  <path class="fil10" d="M2077 8440l0 0zm11470 -5688c370,2063 1587,4815 -794,4868 -1016,23 -1878,-542 -2758,-1107 -1183,-759 -2400,-1518 -4068,-851 -1160,464 -2286,1239 -3268,1936 26,69 40,143 40,219l0 1 0 2c0,165 -66,322 -182,438 -116,117 -274,182 -438,182l-2 0 -2 0c-147,0 -289,-53 -401,-147 -693,475 -1269,813 -1671,813l-3 0 0 3118c0,0 3664,-2988 8202,-3212 4538,-224 5517,2132 9948,2317 862,36 1547,-58 2122,-234 -412,-446 -741,-1090 13,-1641 1305,-952 2258,-105 2610,-1305 300,-1020 2335,-688 2785,-67 195,-32 401,-56 620,-70 3929,-264 4987,2448 7567,2264 567,-41 995,-119 1319,-217 -217,-1304 -711,-3794 -1496,-5085 -1093,-1799 -2116,3210 -3669,3316 -781,54 -892,-546 -1124,-1145 -230,-592 -577,-1183 -1804,-1148 -2469,71 -846,-3739 1835,-3845 1785,-71 1865,-1314 1720,-2137l-14839 -7c-956,615 -2522,1294 -2262,2744zm-5477 5040c0,139 -113,251 -252,251 -138,0 -251,-112 -251,-251 0,-139 113,-251 251,-251 139,0 252,112 252,251zm10591 -5676l-498 493c-31,31 -67,26 -81,22 -14,-4 -48,-17 -59,-59l-180 -672c-12,-42 11,-71 21,-81 10,-10 39,-33 81,-22l678 178c42,11 56,45 59,60 4,14 10,50 -21,81zm6957 194l90 -218c22,-7 45,-11 68,-11 21,0 41,3 61,9 0,121 -98,219 -219,220zm-9373 7625c0,-124 101,-225 225,-225 125,0 225,101 225,225 0,124 -100,225 -225,225 -124,0 -225,-101 -225,-225zm15426 -1905c0,-270 219,-489 489,-489 270,0 490,219 490,489 0,270 -220,490 -490,490 -270,0 -489,-220 -489,-490zm-5963 -5411l0 0zm-90 217c0,-81 32,-159 89,-217l1 1c0,82 -33,160 -90,217l0 -1z"/>
  <path class="fil10" d="M2077 8440l0 0zm11470 -5688c370,2063 1587,4815 -794,4868 -1016,23 -1878,-542 -2758,-1107 -1183,-759 -2400,-1518 -4068,-851 -1160,464 -2286,1239 -3268,1936 26,69 40,143 40,219l0 1 0 2c0,165 -66,322 -182,438 -116,117 -274,182 -438,182l-2 0 -2 0c-147,0 -289,-53 -401,-147 -693,475 -1269,813 -1671,813l-3 0 0 3118c0,0 3664,-2988 8202,-3212 4538,-224 5517,2132 9948,2317 862,36 1547,-58 2122,-234 -412,-446 -741,-1090 13,-1641 1305,-952 2258,-105 2610,-1305 300,-1020 2335,-688 2785,-67 195,-32 401,-56 620,-70 3929,-264 4987,2448 7567,2264 567,-41 995,-119 1319,-217 -217,-1304 -711,-3794 -1496,-5085 -1093,-1799 -2116,3210 -3669,3316 -781,54 -892,-546 -1124,-1145 -230,-592 -577,-1183 -1804,-1148 -2469,71 -846,-3739 1835,-3845 1785,-71 1865,-1314 1720,-2137l-14839 -7c-956,615 -2522,1294 -2262,2744zm-5477 5040c0,139 -113,251 -252,251 -138,0 -251,-112 -251,-251 0,-139 113,-251 251,-251 139,0 252,112 252,251zm10591 -5676l-498 493c-31,31 -67,26 -81,22 -14,-4 -48,-17 -59,-59l-180 -672c-12,-42 11,-71 21,-81 10,-10 39,-33 81,-22l678 178c42,11 56,45 59,60 4,14 10,50 -21,81zm6957 194l90 -218c22,-7 45,-11 68,-11 21,0 41,3 61,9 0,121 -98,219 -219,220zm-9373 7625c0,-124 101,-225 225,-225 125,0 225,101 225,225 0,124 -100,225 -225,225 -124,0 -225,-101 -225,-225zm15426 -1905c0,-270 219,-489 489,-489 270,0 490,219 490,489 0,270 -220,490 -490,490 -270,0 -489,-220 -489,-490zm-5963 -5411l0 0zm-90 217c0,-81 32,-159 89,-217l1 1c0,82 -33,160 -90,217l0 -1z"/>
  <path class="fil10" d="M2077 8440l0 0zm11470 -5688c370,2063 1587,4815 -794,4868 -1016,23 -1878,-542 -2758,-1107 -1183,-759 -2400,-1518 -4068,-851 -1160,464 -2286,1239 -3268,1936 26,69 40,143 40,219l0 1 0 2c0,165 -66,322 -182,438 -116,117 -274,182 -438,182l-2 0 -2 0c-147,0 -289,-53 -401,-147 -693,475 -1269,813 -1671,813l-3 0 0 3118c0,0 3664,-2988 8202,-3212 4538,-224 5517,2132 9948,2317 862,36 1547,-58 2122,-234 -412,-446 -741,-1090 13,-1641 1305,-952 2258,-105 2610,-1305 300,-1020 2335,-688 2785,-67 195,-32 401,-56 620,-70 3929,-264 4987,2448 7567,2264 567,-41 995,-119 1319,-217 -217,-1304 -711,-3794 -1496,-5085 -1093,-1799 -2116,3210 -3669,3316 -781,54 -892,-546 -1124,-1145 -230,-592 -577,-1183 -1804,-1148 -2469,71 -846,-3739 1835,-3845 1785,-71 1865,-1314 1720,-2137l-14839 -7c-956,615 -2522,1294 -2262,2744zm-5477 5040c0,139 -113,251 -252,251 -138,0 -251,-112 -251,-251 0,-139 113,-251 251,-251 139,0 252,112 252,251zm10591 -5676l-498 493c-31,31 -67,26 -81,22 -14,-4 -48,-17 -59,-59l-180 -672c-12,-42 11,-71 21,-81 10,-10 39,-33 81,-22l678 178c42,11 56,45 59,60 4,14 10,50 -21,81zm6957 194l90 -218c22,-7 45,-11 68,-11 21,0 41,3 61,9 0,121 -98,219 -219,220zm-9373 7625c0,-124 101,-225 225,-225 125,0 225,101 225,225 0,124 -100,225 -225,225 -124,0 -225,-101 -225,-225zm15426 -1905c0,-270 219,-489 489,-489 270,0 490,219 490,489 0,270 -220,490 -490,490 -270,0 -489,-220 -489,-490zm-5963 -5411l0 0zm-90 217c0,-81 32,-159 89,-217l1 1c0,82 -33,160 -90,217l0 -1z"/>
  <path class="fil10" d="M2077 8440l0 0zm11470 -5688c370,2063 1587,4815 -794,4868 -1016,23 -1878,-542 -2758,-1107 -1183,-759 -2400,-1518 -4068,-851 -1160,464 -2286,1239 -3268,1936 26,69 40,143 40,219l0 1 0 2c0,165 -66,322 -182,438 -116,117 -274,182 -438,182l-2 0 -2 0c-147,0 -289,-53 -401,-147 -693,475 -1269,813 -1671,813l-3 0 0 3118c0,0 3664,-2988 8202,-3212 4538,-224 5517,2132 9948,2317 862,36 1547,-58 2122,-234 -412,-446 -741,-1090 13,-1641 1305,-952 2258,-105 2610,-1305 300,-1020 2335,-688 2785,-67 195,-32 401,-56 620,-70 3929,-264 4987,2448 7567,2264 567,-41 995,-119 1319,-217 -217,-1304 -711,-3794 -1496,-5085 -1093,-1799 -2116,3210 -3669,3316 -781,54 -892,-546 -1124,-1145 -230,-592 -577,-1183 -1804,-1148 -2469,71 -846,-3739 1835,-3845 1785,-71 1865,-1314 1720,-2137l-14839 -7c-956,615 -2522,1294 -2262,2744zm-5477 5040c0,139 -113,251 -252,251 -138,0 -251,-112 -251,-251 0,-139 113,-251 251,-251 139,0 252,112 252,251zm10591 -5676l-498 493c-31,31 -67,26 -81,22 -14,-4 -48,-17 -59,-59l-180 -672c-12,-42 11,-71 21,-81 10,-10 39,-33 81,-22l678 178c42,11 56,45 59,60 4,14 10,50 -21,81zm6957 194l90 -218c22,-7 45,-11 68,-11 21,0 41,3 61,9 0,121 -98,219 -219,220zm-9373 7625c0,-124 101,-225 225,-225 125,0 225,101 225,225 0,124 -100,225 -225,225 -124,0 -225,-101 -225,-225zm15426 -1905c0,-270 219,-489 489,-489 270,0 490,219 490,489 0,270 -220,490 -490,490 -270,0 -489,-220 -489,-490zm-5963 -5411l0 0zm-90 217c0,-81 32,-159 89,-217l1 1c0,82 -33,160 -90,217l0 -1z"/>
  <path class="fil10" d="M2077 8440l0 0zm11470 -5688c370,2063 1587,4815 -794,4868 -1016,23 -1878,-542 -2758,-1107 -1183,-759 -2400,-1518 -4068,-851 -1160,464 -2286,1239 -3268,1936 26,69 40,143 40,219l0 1 0 2c0,165 -66,322 -182,438 -116,117 -274,182 -438,182l-2 0 -2 0c-147,0 -289,-53 -401,-147 -693,475 -1269,813 -1671,813l-3 0 0 3118c0,0 3664,-2988 8202,-3212 4538,-224 5517,2132 9948,2317 862,36 1547,-58 2122,-234 -412,-446 -741,-1090 13,-1641 1305,-952 2258,-105 2610,-1305 300,-1020 2335,-688 2785,-67 195,-32 401,-56 620,-70 3929,-264 4987,2448 7567,2264 567,-41 995,-119 1319,-217 -217,-1304 -711,-3794 -1496,-5085 -1093,-1799 -2116,3210 -3669,3316 -781,54 -892,-546 -1124,-1145 -230,-592 -577,-1183 -1804,-1148 -2469,71 -846,-3739 1835,-3845 1785,-71 1865,-1314 1720,-2137l-14839 -7c-956,615 -2522,1294 -2262,2744zm-5477 5040c0,139 -113,251 -252,251 -138,0 -251,-112 -251,-251 0,-139 113,-251 251,-251 139,0 252,112 252,251zm10591 -5676l-498 493c-31,31 -67,26 -81,22 -14,-4 -48,-17 -59,-59l-180 -672c-12,-42 11,-71 21,-81 10,-10 39,-33 81,-22l678 178c42,11 56,45 59,60 4,14 10,50 -21,81zm6957 194l90 -218c22,-7 45,-11 68,-11 21,0 41,3 61,9 0,121 -98,219 -219,220zm-9373 7625c0,-124 101,-225 225,-225 125,0 225,101 225,225 0,124 -100,225 -225,225 -124,0 -225,-101 -225,-225zm15426 -1905c0,-270 219,-489 489,-489 270,0 490,219 490,489 0,270 -220,490 -490,490 -270,0 -489,-220 -489,-490zm-5963 -5411l0 0zm-90 217c0,-81 32,-159 89,-217l1 1c0,82 -33,160 -90,217l0 -1z"/>
  <path class="fil10" d="M2077 8440l0 0zm11470 -5688c370,2063 1587,4815 -794,4868 -1016,23 -1878,-542 -2758,-1107 -1183,-759 -2400,-1518 -4068,-851 -1160,464 -2286,1239 -3268,1936 26,69 40,143 40,219l0 1 0 2c0,165 -66,322 -182,438 -116,117 -274,182 -438,182l-2 0 -2 0c-147,0 -289,-53 -401,-147 -693,475 -1269,813 -1671,813l-3 0 0 3118c0,0 3664,-2988 8202,-3212 4538,-224 5517,2132 9948,2317 862,36 1547,-58 2122,-234 -412,-446 -741,-1090 13,-1641 1305,-952 2258,-105 2610,-1305 300,-1020 2335,-688 2785,-67 195,-32 401,-56 620,-70 3929,-264 4987,2448 7567,2264 567,-41 995,-119 1319,-217 -217,-1304 -711,-3794 -1496,-5085 -1093,-1799 -2116,3210 -3669,3316 -781,54 -892,-546 -1124,-1145 -230,-592 -577,-1183 -1804,-1148 -2469,71 -846,-3739 1835,-3845 1785,-71 1865,-1314 1720,-2137l-14839 -7c-956,615 -2522,1294 -2262,2744zm-5477 5040c0,139 -113,251 -252,251 -138,0 -251,-112 -251,-251 0,-139 113,-251 251,-251 139,0 252,112 252,251zm10591 -5676l-498 493c-31,31 -67,26 -81,22 -14,-4 -48,-17 -59,-59l-180 -672c-12,-42 11,-71 21,-81 10,-10 39,-33 81,-22l678 178c42,11 56,45 59,60 4,14 10,50 -21,81zm6957 194l90 -218c22,-7 45,-11 68,-11 21,0 41,3 61,9 0,121 -98,219 -219,220zm-9373 7625c0,-124 101,-225 225,-225 125,0 225,101 225,225 0,124 -100,225 -225,225 -124,0 -225,-101 -225,-225zm15426 -1905c0,-270 219,-489 489,-489 270,0 490,219 490,489 0,270 -220,490 -490,490 -270,0 -489,-220 -489,-490zm-5963 -5411l0 0zm-90 217c0,-81 32,-159 89,-217l1 1c0,82 -33,160 -90,217l0 -1z"/>
  <path class="fil10" d="M2077 8440l0 0zm11470 -5688c370,2063 1587,4815 -794,4868 -1016,23 -1878,-542 -2758,-1107 -1183,-759 -2400,-1518 -4068,-851 -1160,464 -2286,1239 -3268,1936 26,69 40,143 40,219l0 1 0 2c0,165 -66,322 -182,438 -116,117 -274,182 -438,182l-2 0 -2 0c-147,0 -289,-53 -401,-147 -693,475 -1269,813 -1671,813l-3 0 0 3118c0,0 3664,-2988 8202,-3212 4538,-224 5517,2132 9948,2317 862,36 1547,-58 2122,-234 -412,-446 -741,-1090 13,-1641 1305,-952 2258,-105 2610,-1305 300,-1020 2335,-688 2785,-67 195,-32 401,-56 620,-70 3929,-264 4987,2448 7567,2264 567,-41 995,-119 1319,-217 -217,-1304 -711,-3794 -1496,-5085 -1093,-1799 -2116,3210 -3669,3316 -781,54 -892,-546 -1124,-1145 -230,-592 -577,-1183 -1804,-1148 -2469,71 -846,-3739 1835,-3845 1785,-71 1865,-1314 1720,-2137l-14839 -7c-956,615 -2522,1294 -2262,2744zm-5477 5040c0,139 -113,251 -252,251 -138,0 -251,-112 -251,-251 0,-139 113,-251 251,-251 139,0 252,112 252,251zm10591 -5676l-498 493c-31,31 -67,26 -81,22 -14,-4 -48,-17 -59,-59l-180 -672c-12,-42 11,-71 21,-81 10,-10 39,-33 81,-22l678 178c42,11 56,45 59,60 4,14 10,50 -21,81zm6957 194l90 -218c22,-7 45,-11 68,-11 21,0 41,3 61,9 0,121 -98,219 -219,220zm-9148 7400c125,0 225,101 225,225 0,124 -100,225 -225,225 -124,0 -225,-101 -225,-225 0,-124 101,-225 225,-225zm15201 -1680c0,-270 219,-489 489,-489 270,0 490,219 490,489 0,270 -220,490 -490,490 -270,0 -489,-220 -489,-490zm-5963 -5411l0 0zm-90 217c0,-81 32,-159 89,-217l1 1c0,82 -33,160 -90,217l0 -1z"/>
  <path class="fil10" d="M2077 8440l0 0zm11470 -5688c370,2063 1587,4815 -794,4868 -1016,23 -1878,-542 -2758,-1107 -1183,-759 -2400,-1518 -4068,-851 -1160,464 -2286,1239 -3268,1936 26,69 40,143 40,219l0 1 0 2c0,165 -66,322 -182,438 -116,117 -274,182 -438,182l-2 0 -2 0c-147,0 -289,-53 -401,-147 -693,475 -1269,813 -1671,813l-3 0 0 3118c0,0 3664,-2988 8202,-3212 4538,-224 5517,2132 9948,2317 862,36 1547,-58 2122,-234 -412,-446 -741,-1090 13,-1641 1305,-952 2258,-105 2610,-1305 300,-1020 2335,-688 2785,-67 195,-32 401,-56 620,-70 3929,-264 4987,2448 7567,2264 567,-41 995,-119 1319,-217 -217,-1304 -711,-3794 -1496,-5085 -1093,-1799 -2116,3210 -3669,3316 -781,54 -892,-546 -1124,-1145 -230,-592 -577,-1183 -1804,-1148 -2469,71 -846,-3739 1835,-3845 1785,-71 1865,-1314 1720,-2137l-14839 -7c-956,615 -2522,1294 -2262,2744zm-5477 5040c0,139 -113,251 -252,251 -138,0 -251,-112 -251,-251 0,-139 113,-251 251,-251 139,0 252,112 252,251zm10591 -5676l-498 493c-31,31 -67,26 -81,22 -14,-4 -48,-17 -59,-59l-180 -672c-12,-42 11,-71 21,-81 10,-10 39,-33 81,-22l678 178c42,11 56,45 59,60 4,14 10,50 -21,81zm6957 194l90 -218c22,-7 45,-11 68,-11 21,0 41,3 61,9 0,121 -98,219 -219,220zm-9148 7400c125,0 225,101 225,225 0,124 -100,225 -225,225 -124,0 -225,-101 -225,-225 0,-124 101,-225 225,-225zm15201 -1680c0,-270 219,-489 489,-489 270,0 490,219 490,489 0,270 -220,490 -490,490 -270,0 -489,-220 -489,-490zm-5963 -5411l0 0zm-90 217c0,-81 32,-159 89,-217l1 1c0,82 -33,160 -90,217l0 -1z"/>
  <path class="fil10" d="M2077 8440l0 0zm11470 -5688c370,2063 1587,4815 -794,4868 -1016,23 -1878,-542 -2758,-1107 -1183,-759 -2400,-1518 -4068,-851 -1160,464 -2286,1239 -3268,1936 26,69 40,143 40,219l0 1 0 2c0,165 -66,322 -182,438 -116,117 -274,182 -438,182l-2 0 -2 0c-147,0 -289,-53 -401,-147 -693,475 -1269,813 -1671,813l-3 0 0 3118c0,0 3664,-2988 8202,-3212 4538,-224 5517,2132 9948,2317 862,36 1547,-58 2122,-234 -412,-446 -741,-1090 13,-1641 1305,-952 2258,-105 2610,-1305 300,-1020 2335,-688 2785,-67 195,-32 401,-56 620,-70 3929,-264 4987,2448 7567,2264 567,-41 995,-119 1319,-217 -217,-1304 -711,-3794 -1496,-5085 -1093,-1799 -2116,3210 -3669,3316 -781,54 -892,-546 -1124,-1145 -230,-592 -577,-1183 -1804,-1148 -2469,71 -846,-3739 1835,-3845 1785,-71 1865,-1314 1720,-2137l-14839 -7c-956,615 -2522,1294 -2262,2744zm-5477 5040c0,139 -113,251 -252,251 -138,0 -251,-112 -251,-251 0,-139 113,-251 251,-251 139,0 252,112 252,251zm10591 -5676l-498 493c-31,31 -67,26 -81,22 -14,-4 -48,-17 -59,-59l-180 -672c-12,-42 11,-71 21,-81 10,-10 39,-33 81,-22l678 178c42,11 56,45 59,60 4,14 10,50 -21,81zm6957 194l90 -218c22,-7 45,-11 68,-11 21,0 41,3 61,9 0,121 -98,219 -219,220zm-9148 7400c125,0 225,101 225,225 0,124 -100,225 -225,225 -124,0 -225,-101 -225,-225 0,-124 101,-225 225,-225zm15201 -1680c0,-270 219,-489 489,-489 270,0 490,219 490,489 0,270 -220,490 -490,490 -270,0 -489,-220 -489,-490zm-5963 -5411l0 0zm-90 217c0,-81 32,-159 89,-217l1 1c0,82 -33,160 -90,217l0 -1z"/>
  <path class="fil10" d="M2077 8440l0 0zm11470 -5688c370,2063 1587,4815 -794,4868 -1016,23 -1878,-542 -2758,-1107 -1183,-759 -2400,-1518 -4068,-851 -1160,464 -2286,1239 -3268,1936 26,69 40,143 40,219l0 1 0 2c0,165 -66,322 -182,438 -116,117 -274,182 -438,182l-2 0 -2 0c-147,0 -289,-53 -401,-147 -693,475 -1269,813 -1671,813l-3 0 0 3118c0,0 3664,-2988 8202,-3212 4538,-224 5517,2132 9948,2317 862,36 1547,-58 2122,-234 -412,-446 -741,-1090 13,-1641 1305,-952 2258,-105 2610,-1305 300,-1020 2335,-688 2785,-67 195,-32 401,-56 620,-70 3929,-264 4987,2448 7567,2264 567,-41 995,-119 1319,-217 -217,-1304 -711,-3794 -1496,-5085 -1093,-1799 -2116,3210 -3669,3316 -781,54 -892,-546 -1124,-1145 -230,-592 -577,-1183 -1804,-1148 -2469,71 -846,-3739 1835,-3845 1785,-71 1865,-1314 1720,-2137l-14839 -7c-956,615 -2522,1294 -2262,2744zm-5477 5040c0,139 -113,251 -252,251 -138,0 -251,-112 -251,-251 0,-139 113,-251 251,-251 139,0 252,112 252,251zm10591 -5676l-498 493c-31,31 -67,26 -81,22 -14,-4 -48,-17 -59,-59l-180 -672c-12,-42 11,-71 21,-81 10,-10 39,-33 81,-22l678 178c42,11 56,45 59,60 4,14 10,50 -21,81zm6957 194l90 -218c22,-7 45,-11 68,-11 21,0 41,3 61,9 0,121 -98,219 -219,220zm-9148 7400c125,0 225,101 225,225 0,124 -100,225 -225,225 -124,0 -225,-101 -225,-225 0,-124 101,-225 225,-225zm15201 -1680c0,-270 219,-489 489,-489 270,0 490,219 490,489 0,270 -220,490 -490,490 -270,0 -489,-220 -489,-490zm-5963 -5411l0 0zm-90 217c0,-81 32,-159 89,-217l1 1c0,82 -33,160 -90,217l0 -1z"/>
  <path class="fil10" d="M2077 8440l0 0zm11470 -5688c370,2063 1587,4815 -794,4868 -1016,23 -1878,-542 -2758,-1107 -1183,-759 -2400,-1518 -4068,-851 -1160,464 -2286,1239 -3268,1936 26,69 40,143 40,219l0 1 0 2c0,165 -66,322 -182,438 -116,117 -274,182 -438,182l-2 0 -2 0c-147,0 -289,-53 -401,-147 -693,475 -1269,813 -1671,813l-3 0 0 3118c0,0 3664,-2988 8202,-3212 4538,-224 5517,2132 9948,2317 862,36 1547,-58 2122,-234 -412,-446 -741,-1090 13,-1641 1305,-952 2258,-105 2610,-1305 300,-1020 2335,-688 2785,-67 195,-32 401,-56 620,-70 3929,-264 4987,2448 7567,2264 567,-41 995,-119 1319,-217 -217,-1304 -711,-3794 -1496,-5085 -1093,-1799 -2116,3210 -3669,3316 -781,54 -892,-546 -1124,-1145 -230,-592 -577,-1183 -1804,-1148 -2469,71 -846,-3739 1835,-3845 1785,-71 1865,-1314 1720,-2137l-14839 -7c-956,615 -2522,1294 -2262,2744zm-5477 5040c0,139 -113,251 -252,251 -138,0 -251,-112 -251,-251 0,-139 113,-251 251,-251 139,0 252,112 252,251zm10591 -5676l-498 493c-31,31 -67,26 -81,22 -14,-4 -48,-17 -59,-59l-180 -672c-12,-42 11,-71 21,-81 10,-10 39,-33 81,-22l678 178c42,11 56,45 59,60 4,14 10,50 -21,81zm6957 194l90 -218c22,-7 45,-11 68,-11 21,0 41,3 61,9 0,121 -98,219 -219,220zm-9148 7400c125,0 225,101 225,225 0,124 -100,225 -225,225 -124,0 -225,-101 -225,-225 0,-124 101,-225 225,-225zm15201 -1680c0,-270 219,-489 489,-489 270,0 490,219 490,489 0,270 -220,490 -490,490 -270,0 -489,-220 -489,-490zm-5963 -5411l0 0zm-90 217c0,-81 32,-159 89,-217l1 1c0,82 -33,160 -90,217l0 -1z"/>
  <path class="fil10" d="M2077 8440l0 0zm11470 -5688c370,2063 1587,4815 -794,4868 -1016,23 -1878,-542 -2758,-1107 -1183,-759 -2400,-1518 -4068,-851 -1160,464 -2286,1239 -3268,1936 26,69 40,143 40,219l0 1 0 2c0,165 -66,322 -182,438 -116,117 -274,182 -438,182l-2 0 -2 0c-147,0 -289,-53 -401,-147 -693,475 -1269,813 -1671,813l-3 0 0 3118c0,0 3664,-2988 8202,-3212 4538,-224 5517,2132 9948,2317 862,36 1547,-58 2122,-234 -412,-446 -741,-1090 13,-1641 1305,-952 2258,-105 2610,-1305 300,-1020 2335,-688 2785,-67 195,-32 401,-56 620,-70 3929,-264 4987,2448 7567,2264 567,-41 995,-119 1319,-217 -217,-1304 -711,-3794 -1496,-5085 -1093,-1799 -2116,3210 -3669,3316 -781,54 -892,-546 -1124,-1145 -230,-592 -577,-1183 -1804,-1148 -2469,71 -846,-3739 1835,-3845 1785,-71 1865,-1314 1720,-2137l-14839 -7c-956,615 -2522,1294 -2262,2744zm-5477 5040c0,139 -113,251 -252,251 -138,0 -251,-112 -251,-251 0,-139 113,-251 251,-251 139,0 252,112 252,251zm10591 -5676l-498 493c-31,31 -67,26 -81,22 -14,-4 -48,-17 -59,-59l-180 -672c-12,-42 11,-71 21,-81 10,-10 39,-33 81,-22l678 178c42,11 56,45 59,60 4,14 10,50 -21,81zm6957 194l90 -218c22,-7 45,-11 68,-11 21,0 41,3 61,9 0,121 -98,219 -219,220zm-9148 7400c125,0 225,101 225,225 0,124 -100,225 -225,225 -124,0 -225,-101 -225,-225 0,-124 101,-225 225,-225zm15201 -1680c0,-270 219,-489 489,-489 270,0 490,219 490,489 0,270 -220,490 -490,490 -270,0 -489,-220 -489,-490zm-5963 -5411l0 0zm-90 217c0,-81 32,-159 89,-217l1 1c0,82 -33,160 -90,217l0 -1z"/>
  <path class="fil10" d="M2077 8440l0 0zm11470 -5688c370,2063 1587,4815 -794,4868 -1016,23 -1878,-542 -2758,-1107 -1183,-759 -2400,-1518 -4068,-851 -1160,464 -2286,1239 -3268,1936 26,69 40,143 40,219l0 1 0 2c0,165 -66,322 -182,438 -116,117 -274,182 -438,182l-2 0 -2 0c-147,0 -289,-53 -401,-147 -693,475 -1269,813 -1671,813l-3 0 0 3118c0,0 3664,-2988 8202,-3212 4538,-224 5517,2132 9948,2317 862,36 1547,-58 2122,-234 -412,-446 -741,-1090 13,-1641 1305,-952 2258,-105 2610,-1305 300,-1020 2335,-688 2785,-67 195,-32 401,-56 620,-70 3929,-264 4987,2448 7567,2264 567,-41 995,-119 1319,-217 -217,-1304 -711,-3794 -1496,-5085 -1093,-1799 -2116,3210 -3669,3316 -781,54 -892,-546 -1124,-1145 -230,-592 -577,-1183 -1804,-1148 -2469,71 -846,-3739 1835,-3845 1785,-71 1865,-1314 1720,-2137l-14839 -7c-956,615 -2522,1294 -2262,2744zm-5477 5040c0,139 -113,251 -252,251 -138,0 -251,-112 -251,-251 0,-139 113,-251 251,-251 139,0 252,112 252,251zm10591 -5676l-498 493c-31,31 -67,26 -81,22 -14,-4 -48,-17 -59,-59l-180 -672c-12,-42 11,-71 21,-81 10,-10 39,-33 81,-22l678 178c42,11 56,45 59,60 4,14 10,50 -21,81zm6957 194l90 -218c22,-7 45,-11 68,-11 21,0 41,3 61,9 0,121 -98,219 -219,220zm-9148 7400c125,0 225,101 225,225 0,124 -100,225 -225,225 -124,0 -225,-101 -225,-225 0,-124 101,-225 225,-225zm15201 -1680c0,-270 219,-489 489,-489 270,0 490,219 490,489 0,270 -220,490 -490,490 -270,0 -489,-220 -489,-490zm-5963 -5411l0 0zm-90 217c0,-81 32,-159 89,-217l1 1c0,82 -33,160 -90,217l0 -1z"/>
  <path class="fil15" d="M2077 8440l0 0zm11470 -5688c370,2063 1587,4815 -794,4868 -1016,23 -1878,-542 -2758,-1107 -1183,-759 -2400,-1518 -4068,-851 -1160,464 -2286,1239 -3268,1936 26,69 40,143 40,219l0 1 0 2c0,165 -66,322 -182,438 -116,117 -274,182 -438,182l-2 0 -2 0c-147,0 -289,-53 -401,-147 -693,475 -1269,813 -1671,813l-3 0 0 3118c0,0 3664,-2988 8202,-3212 4538,-224 5517,2132 9948,2317 862,36 1547,-58 2122,-234 -412,-446 -741,-1090 13,-1641 1305,-952 2258,-105 2610,-1305 300,-1020 2335,-688 2785,-67 195,-32 401,-56 620,-70 3929,-264 4987,2448 7567,2264 567,-41 995,-119 1319,-217 -217,-1304 -711,-3794 -1496,-5085 -1093,-1799 -2116,3210 -3669,3316 -781,54 -892,-546 -1124,-1145 -230,-592 -577,-1183 -1804,-1148 -2469,71 -846,-3739 1835,-3845 1785,-71 1865,-1314 1720,-2137l-14839 -7c-956,615 -2522,1294 -2262,2744zm-5477 5040c0,139 -113,251 -252,251 -138,0 -251,-112 -251,-251 0,-139 113,-251 251,-251 139,0 252,112 252,251zm10591 -5676l-498 493c-31,31 -67,26 -81,22 -14,-4 -48,-17 -59,-59l-180 -672c-12,-42 11,-71 21,-81 10,-10 39,-33 81,-22l678 178c42,11 56,45 59,60 4,14 10,50 -21,81zm6957 194l90 -218c22,-7 45,-11 68,-11 21,0 41,3 61,9 0,121 -98,219 -219,220zm-9148 7400c125,0 225,101 225,225 0,124 -100,225 -225,225 -124,0 -225,-101 -225,-225 0,-124 101,-225 225,-225zm15201 -1680c0,-270 219,-489 489,-489 270,0 490,219 490,489 0,270 -220,490 -490,490 -270,0 -489,-220 -489,-490zm-5963 -5411l0 0zm-90 217c0,-81 32,-159 89,-217l1 1c0,82 -33,160 -90,217l0 -1z"/>
 </g>
</svg>
