<?xml version="1.0" encoding="UTF-8"?>
<!DOCTYPE svg PUBLIC "-//W3C//DTD SVG 1.1//EN" "http://www.w3.org/Graphics/SVG/1.1/DTD/svg11.dtd">
<!-- Creator: CorelDRAW X7 -->
<svg xmlns="http://www.w3.org/2000/svg" xml:space="preserve" width="210mm" height="297mm" version="1.1" style="shape-rendering:geometricPrecision; text-rendering:geometricPrecision; image-rendering:optimizeQuality; fill-rule:evenodd; clip-rule:evenodd"
viewBox="0 0 21000 29700"
 xmlns:xlink="http://www.w3.org/1999/xlink">
 <defs>
  <style type="text/css">
   <![CDATA[
    .str2 {stroke:#EA8BEF;stroke-width:27.31;stroke-linecap:round;stroke-opacity:0.400000}
    .str0 {stroke:#6442CE;stroke-width:32.76;stroke-opacity:0.568627}
    .str1 {stroke:#EA8BEF;stroke-width:27.31;stroke-linecap:round;stroke-opacity:0.631373}
    .str3 {stroke:#04006A;stroke-width:10.93}
    .fil43 {fill:none}
    .fil19 {fill:none}
    .fil2 {fill:none}
    .fil10 {fill:none}
    .fil86 {fill:#FFF000}
    .fil87 {fill:#FFF000}
    .fil88 {fill:#E62129}
    .fil89 {fill:#E62129}
    .fil90 {fill:#E6CF1D}
    .fil32 {fill:#4F349B}
    .fil57 {fill:#5F3BB7}
    .fil22 {fill:#602FDA}
    .fil50 {fill:#6149B7}
    .fil56 {fill:#7938E0}
    .fil85 {fill:#804ECE}
    .fil73 {fill:#A02240}
    .fil26 {fill:#A15EDD}
    .fil37 {fill:#BA2744}
    .fil49 {fill:#D8DDE5}
    .fil25 {fill:#E83867}
    .fil46 {fill:#EBEFF7}
    .fil30 {fill:#ED4C76}
    .fil51 {fill:#F0668F}
    .fil69 {fill:#F26893}
    .fil67 {fill:#F28941}
    .fil53 {fill:#F2F2F7}
    .fil21 {fill:white}
    .fil0 {fill:#C9A8F4;fill-opacity:0.239216}
    .fil28 {fill:#CAC2CE;fill-opacity:0.568627}
    .fil23 {fill:#E3DCE5;fill-opacity:0.568627}
    .fil27 {fill:#E3DCE5;fill-opacity:0.611765}
    .fil24 {fill:#CAC2CE;fill-opacity:0.650980}
    .fil84 {fill:#D054E2;fill-opacity:0.658824}
    .fil20 {fill:url(#id0)}
    .fil54 {fill:url(#id1)}
    .fil47 {fill:url(#id2)}
    .fil66 {fill:url(#id3)}
    .fil55 {fill:url(#id4)}
    .fil65 {fill:url(#id5)}
    .fil68 {fill:url(#id6)}
    .fil63 {fill:url(#id7)}
    .fil12 {fill:url(#id8)}
    .fil59 {fill:url(#id9)}
    .fil13 {fill:url(#id10)}
    .fil79 {fill:url(#id11)}
    .fil78 {fill:url(#id12)}
    .fil82 {fill:url(#id13)}
    .fil83 {fill:url(#id14)}
    .fil5 {fill:url(#id15)}
    .fil70 {fill:url(#id16)}
    .fil48 {fill:url(#id17)}
    .fil38 {fill:url(#id18)}
    .fil39 {fill:url(#id19)}
    .fil29 {fill:url(#id20)}
    .fil14 {fill:url(#id21)}
    .fil7 {fill:url(#id22)}
    .fil33 {fill:url(#id23)}
    .fil60 {fill:url(#id24)}
    .fil45 {fill:url(#id25)}
    .fil31 {fill:url(#id26)}
    .fil1 {fill:url(#id27)}
    .fil4 {fill:url(#id28)}
    .fil74 {fill:url(#id29)}
    .fil15 {fill:url(#id30)}
    .fil8 {fill:url(#id31)}
    .fil17 {fill:url(#id32)}
    .fil3 {fill:url(#id33)}
    .fil41 {fill:url(#id34)}
    .fil11 {fill:url(#id35)}
    .fil81 {fill:url(#id36)}
    .fil16 {fill:url(#id37)}
    .fil6 {fill:url(#id38)}
    .fil9 {fill:url(#id39)}
    .fil80 {fill:url(#id40)}
    .fil72 {fill:url(#id41)}
    .fil18 {fill:url(#id42)}
    .fil77 {fill:url(#id43)}
    .fil71 {fill:url(#id44)}
    .fil76 {fill:url(#id45)}
    .fil62 {fill:url(#id46)}
    .fil52 {fill:url(#id47)}
    .fil34 {fill:url(#id48)}
    .fil61 {fill:url(#id49)}
    .fil64 {fill:url(#id50)}
    .fil36 {fill:url(#id51)}
    .fil40 {fill:url(#id52)}
    .fil44 {fill:url(#id53)}
    .fil58 {fill:url(#id54)}
    .fil75 {fill:url(#id55)}
    .fil42 {fill:url(#id56)}
    .fil35 {fill:url(#id57)}
   ]]>
  </style>
  <linearGradient id="id0" gradientUnits="userSpaceOnUse" x1="8669.63" y1="14800.2" x2="12915" y2="14800.2">
   <stop offset="0" style="stop-opacity:1; stop-color:#6656CC"/>
   <stop offset="1" style="stop-opacity:1; stop-color:#7472D6"/>
  </linearGradient>
  <linearGradient id="id1" gradientUnits="userSpaceOnUse" x1="6276.98" y1="17155.4" x2="6433.1" y2="17155.4">
   <stop offset="0" style="stop-opacity:1; stop-color:#6D5BB8"/>
   <stop offset="0.490196" style="stop-opacity:0; stop-color:#6753B8"/>
   <stop offset="1" style="stop-opacity:0; stop-color:#604AB7"/>
  </linearGradient>
  <linearGradient id="id2" gradientUnits="userSpaceOnUse" x1="14362.7" y1="14805.5" x2="14419.1" y2="14805.5">
   <stop offset="0" style="stop-opacity:1; stop-color:#FF911E"/>
   <stop offset="1" style="stop-opacity:0; stop-color:#FE931E"/>
  </linearGradient>
  <linearGradient id="id3" gradientUnits="userSpaceOnUse" x1="5322.81" y1="15397.7" x2="5552.75" y2="15965">
   <stop offset="0" style="stop-opacity:1; stop-color:#E85B7D"/>
   <stop offset="1" style="stop-opacity:1; stop-color:#FF78AF"/>
  </linearGradient>
  <linearGradient id="id4" gradientUnits="userSpaceOnUse" x1="5790.04" y1="16080.6" x2="5626.72" y2="18428.3">
   <stop offset="0" style="stop-opacity:1; stop-color:#6D5BB8"/>
   <stop offset="1" style="stop-opacity:0; stop-color:#604AB7"/>
  </linearGradient>
  <linearGradient id="id5" gradientUnits="userSpaceOnUse" xlink:href="#id2" x1="6594.83" y1="15607" x2="6113.33" y2="14723.9">
  </linearGradient>
  <linearGradient id="id6" gradientUnits="userSpaceOnUse" xlink:href="#id3" x1="6582.63" y1="15354.9" x2="6406.35" y2="16289">
  </linearGradient>
  <linearGradient id="id7" gradientUnits="userSpaceOnUse" x1="6192.9" y1="15772.6" x2="6550.24" y2="14248.6">
   <stop offset="0" style="stop-opacity:1; stop-color:#F4BA38"/>
   <stop offset="1" style="stop-opacity:1; stop-color:#FFD349"/>
  </linearGradient>
  <linearGradient id="id8" gradientUnits="userSpaceOnUse" x1="13297.7" y1="15519.5" x2="11736.6" y2="13300.3">
   <stop offset="0" style="stop-opacity:1; stop-color:#8151CC"/>
   <stop offset="1" style="stop-opacity:1; stop-color:#B557E3"/>
  </linearGradient>
  <linearGradient id="id9" gradientUnits="userSpaceOnUse" xlink:href="#id3" x1="5725.05" y1="13714.9" x2="5606.17" y2="13705.5">
  </linearGradient>
  <linearGradient id="id10" gradientUnits="userSpaceOnUse" xlink:href="#id8" x1="13913.5" y1="16741.5" x2="12790.3" y2="14604">
  </linearGradient>
  <linearGradient id="id11" gradientUnits="userSpaceOnUse" xlink:href="#id7" x1="7698.47" y1="16761.8" x2="7269.79" y2="14452">
  </linearGradient>
  <linearGradient id="id12" gradientUnits="userSpaceOnUse" xlink:href="#id2" x1="8784.94" y1="15451.8" x2="8429.44" y2="14899.8">
  </linearGradient>
  <linearGradient id="id13" gradientUnits="userSpaceOnUse" xlink:href="#id3" x1="8105.36" y1="14178" x2="8104.04" y2="14171.9">
  </linearGradient>
  <linearGradient id="id14" gradientUnits="userSpaceOnUse" xlink:href="#id3" x1="8067.75" y1="14183.7" x2="8064.41" y2="14174.5">
  </linearGradient>
  <linearGradient id="id15" gradientUnits="userSpaceOnUse" xlink:href="#id8" x1="9386.21" y1="17583.3" x2="7416.29" y2="15872.3">
  </linearGradient>
  <linearGradient id="id16" gradientUnits="userSpaceOnUse" x1="8188.93" y1="15724.2" x2="8120.49" y2="18540.4">
   <stop offset="0" style="stop-opacity:1; stop-color:#7C45CC"/>
   <stop offset="1" style="stop-opacity:1; stop-color:#AB6FD6"/>
  </linearGradient>
  <linearGradient id="id17" gradientUnits="userSpaceOnUse" xlink:href="#id3" x1="15058.4" y1="14046.8" x2="14837.8" y2="13524.8">
  </linearGradient>
  <linearGradient id="id18" gradientUnits="userSpaceOnUse" x1="15231.1" y1="15493.7" x2="14794.3" y2="16759.5">
   <stop offset="0" style="stop-opacity:1; stop-color:#662ACC"/>
   <stop offset="1" style="stop-opacity:1; stop-color:#7459D6"/>
  </linearGradient>
  <linearGradient id="id19" gradientUnits="userSpaceOnUse" x1="15142.9" y1="15392.5" x2="14935.8" y2="16186.9">
   <stop offset="0" style="stop-opacity:1; stop-color:#5629A9"/>
   <stop offset="1" style="stop-opacity:0; stop-color:#603DB7"/>
  </linearGradient>
  <linearGradient id="id20" gradientUnits="userSpaceOnUse" xlink:href="#id3" x1="14177.5" y1="14161.6" x2="14059.8" y2="13609.4">
  </linearGradient>
  <linearGradient id="id21" gradientUnits="userSpaceOnUse" xlink:href="#id8" x1="14168.4" y1="17583.3" x2="12198.2" y2="15872.5">
  </linearGradient>
  <linearGradient id="id22" gradientUnits="userSpaceOnUse" x1="7558.59" y1="18437.6" x2="8842.77" y2="18039.3">
   <stop offset="0" style="stop-opacity:1; stop-color:#9F42DD"/>
   <stop offset="127.369" style="stop-opacity:1; stop-color:#C35BDE"/>
   <stop offset="1" style="stop-opacity:1; stop-color:#E774E0"/>
  </linearGradient>
  <linearGradient id="id23" gradientUnits="userSpaceOnUse" x1="15298.2" y1="18743.9" x2="15456.5" y2="18743.9">
   <stop offset="0" style="stop-opacity:1; stop-color:#E85B7D"/>
   <stop offset="116.122" style="stop-opacity:1; stop-color:#F36996"/>
   <stop offset="1" style="stop-opacity:1; stop-color:#FF78AF"/>
  </linearGradient>
  <linearGradient id="id24" gradientUnits="userSpaceOnUse" x1="6038.56" y1="13710.2" x2="6154.38" y2="13710.2">
   <stop offset="0" style="stop-opacity:1; stop-color:#E85B7D"/>
   <stop offset="0.490196" style="stop-opacity:1; stop-color:#F36996"/>
   <stop offset="1" style="stop-opacity:1; stop-color:#FF78AF"/>
  </linearGradient>
  <linearGradient id="id25" gradientUnits="userSpaceOnUse" xlink:href="#id2" x1="15529.6" y1="15174.1" x2="15551.7" y2="15174.1">
  </linearGradient>
  <linearGradient id="id26" gradientUnits="userSpaceOnUse" x1="14248.4" y1="13847.6" x2="14249" y2="13847.6">
   <stop offset="0" style="stop-opacity:1; stop-color:#F99393"/>
   <stop offset="1" style="stop-opacity:1; stop-color:#FFB0B4"/>
  </linearGradient>
  <linearGradient id="id27" gradientUnits="userSpaceOnUse" xlink:href="#id8" x1="8996.54" y1="15825.8" x2="7489.58" y2="13619.6">
  </linearGradient>
  <linearGradient id="id28" gradientUnits="userSpaceOnUse" xlink:href="#id8" x1="8795.17" y1="16741.5" x2="7669.97" y2="14604">
  </linearGradient>
  <linearGradient id="id29" gradientUnits="userSpaceOnUse" xlink:href="#id3" x1="9572.53" y1="15138.7" x2="9177.27" y2="14344.4">
  </linearGradient>
  <linearGradient id="id30" gradientUnits="userSpaceOnUse" x1="12654.3" y1="18528.1" x2="14046.5" y2="18528.1">
   <stop offset="0" style="stop-opacity:1; stop-color:#9F42DD"/>
   <stop offset="11.3294" style="stop-opacity:1; stop-color:#C35BDE"/>
   <stop offset="1" style="stop-opacity:1; stop-color:#E774E0"/>
  </linearGradient>
  <linearGradient id="id31" gradientUnits="userSpaceOnUse" x1="7664.88" y1="18300.9" x2="8951.34" y2="17169.7">
   <stop offset="0" style="stop-opacity:1; stop-color:#9F42DD"/>
   <stop offset="75.6314" style="stop-opacity:1; stop-color:#C35BDE"/>
   <stop offset="1" style="stop-opacity:1; stop-color:#E774E0"/>
  </linearGradient>
  <linearGradient id="id32" gradientUnits="userSpaceOnUse" x1="12633.3" y1="18300.8" x2="13919.6" y2="17169.6">
   <stop offset="0" style="stop-opacity:1; stop-color:#9F42DD"/>
   <stop offset="6.2902" style="stop-opacity:1; stop-color:#C35BDE"/>
   <stop offset="1" style="stop-opacity:1; stop-color:#E774E0"/>
  </linearGradient>
  <linearGradient id="id33" gradientUnits="userSpaceOnUse" xlink:href="#id8" x1="9847.46" y1="15520" x2="8287.3" y2="13299.8">
  </linearGradient>
  <linearGradient id="id34" gradientUnits="userSpaceOnUse" xlink:href="#id7" x1="15100.5" y1="15335" x2="14916.1" y2="13982.4">
  </linearGradient>
  <linearGradient id="id35" gradientUnits="userSpaceOnUse" xlink:href="#id8" x1="14095" y1="15825.8" x2="12588" y2="13619.6">
  </linearGradient>
  <linearGradient id="id36" gradientUnits="userSpaceOnUse" xlink:href="#id3" x1="8081.68" y1="15564.2" x2="7234.98" y2="16012.2">
  </linearGradient>
  <linearGradient id="id37" gradientUnits="userSpaceOnUse" x1="12741.8" y1="18437.9" x2="14026" y2="18039">
   <stop offset="0" style="stop-opacity:1; stop-color:#9F42DD"/>
   <stop offset="10.2706" style="stop-opacity:1; stop-color:#C35BDE"/>
   <stop offset="1" style="stop-opacity:1; stop-color:#E774E0"/>
  </linearGradient>
  <linearGradient id="id38" gradientUnits="userSpaceOnUse" x1="7538.02" y1="18528.1" x2="8930.24" y2="18528.1">
   <stop offset="0" style="stop-opacity:1; stop-color:#9F42DD"/>
   <stop offset="-111.184" style="stop-opacity:1; stop-color:#C35BDE"/>
   <stop offset="1" style="stop-opacity:1; stop-color:#E774E0"/>
  </linearGradient>
  <linearGradient id="id39" gradientUnits="userSpaceOnUse" x1="9000.44" y1="18385.3" x2="8198.9" y2="16113">
   <stop offset="0" style="stop-opacity:1; stop-color:#9F42DD"/>
   <stop offset="1" style="stop-opacity:1; stop-color:#E774E0"/>
  </linearGradient>
  <linearGradient id="id40" gradientUnits="userSpaceOnUse" x1="7145.84" y1="15206.1" x2="7586.08" y2="14774.5">
   <stop offset="0" style="stop-opacity:1; stop-color:#FF911E"/>
   <stop offset="-98.4627" style="stop-opacity:0; stop-color:#FF921E"/>
   <stop offset="1" style="stop-opacity:0; stop-color:#FE931E"/>
  </linearGradient>
  <linearGradient id="id41" gradientUnits="userSpaceOnUse" xlink:href="#id4" x1="8460.88" y1="16276.8" x2="8189.48" y2="18445.9">
  </linearGradient>
  <linearGradient id="id42" gradientUnits="userSpaceOnUse" xlink:href="#id39" x1="13386.5" y1="18385" x2="12583.1" y2="16113.4">
  </linearGradient>
  <linearGradient id="id43" gradientUnits="userSpaceOnUse" x1="8506.17" y1="16813.3" x2="8762.65" y2="14348.2">
   <stop offset="0" style="stop-opacity:1; stop-color:#F4BA38"/>
   <stop offset="0.490196" style="stop-opacity:1; stop-color:#F9C640"/>
   <stop offset="1" style="stop-opacity:1; stop-color:#FFD349"/>
  </linearGradient>
  <linearGradient id="id44" gradientUnits="userSpaceOnUse" xlink:href="#id4" x1="8149.8" y1="15863.4" x2="7838.9" y2="18444.1">
  </linearGradient>
  <linearGradient id="id45" gradientUnits="userSpaceOnUse" xlink:href="#id3" x1="8198.61" y1="14471.4" x2="7870.65" y2="13880.8">
  </linearGradient>
  <linearGradient id="id46" gradientUnits="userSpaceOnUse" xlink:href="#id7" x1="5677.26" y1="15833.9" x2="5577.12" y2="14178.9">
  </linearGradient>
  <linearGradient id="id47" gradientUnits="userSpaceOnUse" xlink:href="#id16" x1="5979.92" y1="15873.6" x2="5731.5" y2="18421.2">
  </linearGradient>
  <linearGradient id="id48" gradientUnits="userSpaceOnUse" xlink:href="#id3" x1="15451.8" y1="16602.5" x2="15084.3" y2="18387.5">
  </linearGradient>
  <linearGradient id="id49" gradientUnits="userSpaceOnUse" xlink:href="#id3" x1="6295.04" y1="13856.1" x2="6001.18" y2="13467.5">
  </linearGradient>
  <linearGradient id="id50" gradientUnits="userSpaceOnUse" xlink:href="#id2" x1="5305.31" y1="15640.7" x2="5751.67" y2="14709.2">
  </linearGradient>
  <linearGradient id="id51" gradientUnits="userSpaceOnUse" xlink:href="#id3" x1="15030.4" y1="16605.2" x2="14622.9" y2="18384.4">
  </linearGradient>
  <linearGradient id="id52" gradientUnits="userSpaceOnUse" xlink:href="#id3" x1="15544.5" y1="15652.7" x2="15367.6" y2="16122.3">
  </linearGradient>
  <linearGradient id="id53" gradientUnits="userSpaceOnUse" xlink:href="#id2" x1="15550.7" y1="15395.9" x2="15316.2" y2="14532.7">
  </linearGradient>
  <linearGradient id="id54" gradientUnits="userSpaceOnUse" xlink:href="#id3" x1="5886.55" y1="13774.5" x2="5900.19" y2="14231.5">
  </linearGradient>
  <linearGradient id="id55" gradientUnits="userSpaceOnUse" x1="8778.58" y1="15135.5" x2="8889.49" y2="15135.5">
   <stop offset="0" style="stop-opacity:1; stop-color:#891531"/>
   <stop offset="-59.9255" style="stop-opacity:0; stop-color:#891531"/>
   <stop offset="1" style="stop-opacity:0; stop-color:#891531"/>
  </linearGradient>
  <linearGradient id="id56" gradientUnits="userSpaceOnUse" xlink:href="#id2" x1="14676.7" y1="14893.8" x2="14585" y2="14389.3">
  </linearGradient>
  <linearGradient id="id57" gradientUnits="userSpaceOnUse" x1="14716.5" y1="18746" x2="14874.8" y2="18746">
   <stop offset="0" style="stop-opacity:1; stop-color:#E85B7D"/>
   <stop offset="123.659" style="stop-opacity:1; stop-color:#F36996"/>
   <stop offset="1" style="stop-opacity:1; stop-color:#FF78AF"/>
  </linearGradient>
 </defs>
 <g id="Layer_x0020_1">
  <metadata id="CorelCorpID_0Corel-Layer"/>
  <g id="OBJECTS">
   <g id="Group_31" data-name="Group 31">
    <g id="Group_1" data-name="Group 1">
     <path id="Path_1" class="fil0" d="M5880 18568c-350,21 -1000,130 -971,431 28,301 418,213 790,85 372,-128 846,157 916,-42 71,-199 -252,-501 -735,-474z" data-name="Path 1"/>
     <path id="Path_2" class="fil0" d="M7468 18900c0,0 -231,63 13,238 243,174 506,-238 786,-169 281,69 756,106 625,-256 -131,-362 -1205,-31 -1424,187z" data-name="Path 2"/>
     <path id="Path_3" class="fil0" d="M15326 18672c-160,-103 -880,100 -868,325 12,225 574,50 755,262 182,212 1218,125 113,-587z" data-name="Path 3"/>
     <path id="Path_4" class="fil0" d="M9206 18579c0,0 -735,730 -567,955 169,224 3016,-325 3571,0 556,324 1255,-150 581,-962 -674,-811 -3585,7 -3585,7z" data-name="Path 4"/>
     <path id="Path_5" class="fil0" d="M8624 16631c-749,540 -1998,1269 -3314,-397 -1240,-1571 -256,-5035 1942,-5653 2149,-604 3696,2544 4491,1503 796,-1041 1722,-2785 3226,-1653 1503,1132 3206,5589 138,7118 -2170,1081 -2175,-4020 -6483,-918z" data-name="Path 5"/>
    </g>
    <g id="Group_15" data-name="Group 15">
     <g id="Group_6" data-name="Group 6">
      <g id="Group_2" data-name="Group 2">
       <path id="Path_6" class="fil1" d="M9282 14887l-41 870c0,0 -163,-854 -508,-870 -346,-15 -422,-310 -377,-559 46,-249 -10,-544 -386,-686 -376,-143 -335,-432 -549,-432 -214,0 -463,508 51,859 513,351 76,956 671,1230 595,275 15,971 1174,936l-35 -1348z" data-name="Path 6"/>
       <path id="Path_7" class="fil2 str0" d="M7411 13530c0,0 81,218 381,386 300,168 117,646 453,971 335,326 586,528 690,1037" data-name="Path 7"/>
      </g>
      <g id="Group_3" data-name="Group 3">
       <path id="Path_8" class="fil3" d="M9863 14870l-324 808c0,0 127,-860 -195,-989 -321,-128 -296,-431 -171,-651 125,-221 169,-517 -140,-776 -308,-258 -174,-518 -376,-588 -202,-70 -604,328 -234,828 369,500 -243,928 229,1383 471,454 -305,922 802,1269l409 -1284z" data-name="Path 8"/>
       <path id="Path_9" class="fil2 str0" d="M8542 12973c0,0 5,233 233,490 228,257 -102,648 108,1066 210,418 381,692 311,1206" data-name="Path 9"/>
      </g>
      <g id="Group_4" data-name="Group 4">
       <path id="Path_10" class="fil4" d="M9170 15309l369 788c0,0 -542,-680 -855,-533 -313,148 -518,-78 -593,-319 -76,-242 -263,-477 -662,-428 -399,49 -498,-226 -687,-127 -189,100 -173,666 445,737 618,71 513,811 1167,776 654,-34 466,853 1475,281l-659 -1175z" data-name="Path 10"/>
       <path id="Path_11" class="fil2 str0" d="M6882 14979c0,0 174,155 518,164 343,9 404,517 852,649 449,131 766,194 1094,596" data-name="Path 11"/>
      </g>
      <g id="Group_5" data-name="Group 5">
       <path id="Path_12" class="fil5" d="M9339 16364l369 788c0,0 -542,-680 -855,-533 -313,148 -518,-77 -594,-319 -75,-242 -262,-477 -661,-428 -399,50 -498,-226 -687,-126 -189,99 -173,665 445,736 618,72 513,811 1167,777 654,-34 465,852 1475,281l-659 -1176z" data-name="Path 12"/>
       <path id="Path_13" class="fil2 str0" d="M7051 16034c0,0 174,155 517,164 344,9 404,517 853,649 448,131 765,194 1093,596" data-name="Path 13"/>
      </g>
     </g>
     <g id="Group_8" data-name="Group 8">
      <path id="Path_14" class="fil6" d="M8930 18723c0,0 -1300,-17 -1387,-243 -86,-225 936,-225 1387,243z" data-name="Path 14"/>
      <path id="Path_15" class="fil7" d="M8930 18723c0,0 -295,-694 -953,-919 -659,-225 -659,381 -87,451 572,69 1040,468 1040,468z" data-name="Path 15"/>
      <path id="Path_16" class="fil8" d="M9069 18550c0,0 -434,-1006 -728,-1370 -295,-364 -520,-503 -694,-399 -173,104 -138,451 243,746 381,294 763,728 1040,1196l139 -173z" data-name="Path 16"/>
      <path id="Path_17" class="fil9" d="M8930 18723c0,0 -190,-1006 -606,-1872 -389,-813 -107,-1231 201,-1022 369,249 585,1331 532,2750l-127 144z" data-name="Path 17"/>
      <g id="Group_7" data-name="Group 7">
       <path id="Path_18" class="fil10 str1" d="M7777 18471c353,7 703,76 1032,204" data-name="Path 18"/>
       <path id="Path_19" class="fil10 str1" d="M7725 17917c0,0 670,112 1124,758" data-name="Path 19"/>
       <path id="Path_20" class="fil10 str1" d="M7777 17067c0,0 694,364 1145,1543" data-name="Path 20"/>
       <path id="Path_21" class="fil10 str1" d="M8401 16079c252,616 461,1282 633,2124l-8 8" data-name="Path 21"/>
      </g>
     </g>
     <g id="Group_13" data-name="Group 13">
      <g id="Group_9" data-name="Group 9">
       <path id="Path_22" class="fil11" d="M12303 14887l41 870c0,0 162,-854 508,-870 346,-15 422,-310 376,-559 -46,-249 10,-544 386,-686 377,-143 336,-432 550,-432 213,0 462,508 -51,859 -514,351 -76,956 -671,1230 -595,275 -16,971 -1175,936l36 -1348z" data-name="Path 22"/>
       <path id="Path_23" class="fil2 str0" d="M14174 13530c0,0 -82,218 -381,386 -300,168 -117,646 -453,971 -335,326 -587,528 -690,1037" data-name="Path 23"/>
      </g>
      <g id="Group_10" data-name="Group 10">
       <path id="Path_24" class="fil12" d="M11722 14870l324 808c0,0 -127,-860 194,-989 322,-128 297,-431 172,-651 -125,-221 -169,-517 139,-776 309,-258 175,-518 377,-588 201,-70 604,328 234,828 -370,500 242,928 -229,1383 -472,454 304,922 -802,1269l-409 -1284z" data-name="Path 24"/>
       <path id="Path_25" class="fil2 str0" d="M13043 12973c0,0 -5,233 -234,490 -228,257 102,648 -108,1066 -210,418 -380,692 -311,1206" data-name="Path 25"/>
      </g>
      <g id="Group_11" data-name="Group 11">
       <path id="Path_26" class="fil13" d="M12414 15309l-368 788c0,0 541,-680 854,-533 313,148 518,-78 594,-319 75,-242 262,-477 661,-428 399,49 498,-226 687,-127 189,100 173,666 -445,737 -618,72 -512,811 -1167,776 -654,-34 -465,853 -1475,281l659 -1175z" data-name="Path 26"/>
       <path id="Path_27" class="fil2 str0" d="M14702 14979c0,0 -174,155 -517,164 -344,9 -404,517 -853,649 -448,131 -765,194 -1093,596" data-name="Path 27"/>
      </g>
      <g id="Group_12" data-name="Group 12">
       <path id="Path_28" class="fil14" d="M12246 16364l-369 788c0,0 542,-680 855,-532 313,147 518,-78 593,-320 76,-242 262,-477 662,-428 399,50 498,-226 687,-126 189,99 172,665 -445,736 -618,72 -513,811 -1167,777 -654,-34 -466,852 -1475,281l659 -1176z" data-name="Path 28"/>
       <path id="Path_29" class="fil2 str0" d="M14534 16034c0,0 -174,155 -518,164 -343,9 -404,517 -852,649 -449,131 -766,194 -1094,596" data-name="Path 29"/>
      </g>
     </g>
     <path id="Path_30" class="fil15" d="M12654 18723c0,0 1301,-17 1387,-243 87,-225 -936,-225 -1387,243z" data-name="Path 30"/>
     <path id="Path_31" class="fil16" d="M12654 18723c0,0 295,-694 954,-919 659,-225 659,381 87,451 -573,69 -1041,468 -1041,468z" data-name="Path 31"/>
     <path id="Path_32" class="fil17" d="M12516 18550c0,0 433,-1006 728,-1370 295,-364 520,-503 693,-399 174,104 139,451 -242,746 -382,294 -763,728 -1041,1196l-138 -173z" data-name="Path 32"/>
     <path id="Path_33" class="fil18" d="M12654 18723c0,0 191,-1006 606,-1872 390,-813 108,-1231 -201,-1022 -368,249 -584,1331 -532,2750l127 144z" data-name="Path 33"/>
     <g id="Group_14" data-name="Group 14">
      <path id="Path_34" class="fil10 str1" d="M13807 18471c-353,7 -702,76 -1031,204" data-name="Path 34"/>
      <path id="Path_35" class="fil19 str2" d="M13859 17917c0,0 -670,112 -1124,758" data-name="Path 35"/>
      <path id="Path_36" class="fil19 str2" d="M13807 17067c0,0 -693,364 -1144,1543" data-name="Path 36"/>
      <path id="Path_37" class="fil10 str1" d="M13183 16079c-251,616 -461,1282 -633,2124l9 8" data-name="Path 37"/>
     </g>
    </g>
    <g id="Group_22" data-name="Group 22">
     <path class="fil20" d="M9082 10815l3421 0c227,0 412,185 412,412l0 7146c0,228 -185,412 -412,412l-3421 0c-228,0 -412,-184 -412,-412l0 -7146c0,-227 184,-412 412,-412z" data-name="Rectangle 2"/>
     <path id="Path_38" class="fil21" d="M12756 11375l0 6847c0,219 -178,396 -397,397l-3131 0c-219,-1 -396,-178 -397,-397l0 -6847c1,-218 178,-396 397,-397l847 0c32,0 61,20 73,50l61 148c11,27 38,45 68,45l1175 0c0,0 0,0 0,0 29,0 56,-17 67,-44l57 -129c19,-42 61,-69 107,-69l676 0c219,0 397,178 397,397l0 -1z" data-name="Path 38"/>
     <path id="Union_1" class="fil22" d="M8833 11860l0 -343 -2 0 0 -147c1,-219 178,-396 397,-397l847 0c32,0 61,20 73,50l61 147c11,28 38,46 68,46l1175 0c29,0 55,-17 67,-44l57 -129c18,-43 60,-70 107,-70l676 0c219,1 397,178 397,397l0 120 1 0 0 370 -3924 0z" data-name="Union 1"/>
     <g id="Group_16" data-name="Group 16">
      <path id="Path_40" class="fil23" d="M11479 13893c0,379 -308,687 -687,687 -379,0 -686,-308 -686,-687 0,-379 307,-686 686,-686 1,0 1,0 2,0 378,0 685,306 685,685 0,0 0,1 0,1l0 0z" data-name="Path 40"/>
      <path id="Path_41" class="fil24" d="M11235 14417c19,-8 38,-13 59,-13 49,0 94,27 118,70 -61,-13 -120,-32 -177,-57l0 0z" data-name="Path 41"/>
      <path id="Path_42" class="fil24" d="M11077 13671c0,158 -127,285 -285,285 -157,0 -285,-127 -285,-285 0,-157 128,-285 285,-285 158,0 285,128 285,285 0,0 0,0 0,0z" data-name="Path 42"/>
     </g>
     <g id="Group_20" data-name="Group 20">
      <g id="Group_17" data-name="Group 17">
       <circle id="Ellipse_1" class="fil25" cx="11910" cy="16789" r="414" data-name="Ellipse 1"/>
       <path id="Path_43" class="fil21" d="M11986 16621c0,0 37,-115 68,-119 30,-4 146,74 127,200 -19,126 -194,309 -329,320 -136,11 -226,-73 -214,-101 13,-29 68,-100 117,-75 49,24 92,76 148,31 56,-44 151,-123 157,-166 6,-43 -74,-45 -74,-90z" data-name="Path 43"/>
      </g>
      <g id="Group_18" data-name="Group 18">
       <circle id="Ellipse_2" class="fil26" cx="9677" cy="16789" r="414" data-name="Ellipse 2"/>
       <path id="Path_44" class="fil21" d="M9753 16621c0,0 37,-115 67,-119 31,-4 147,74 127,200 -19,126 -193,309 -329,320 -135,11 -225,-73 -213,-101 12,-29 68,-100 117,-75 49,24 91,76 148,32 56,-45 150,-124 156,-167 7,-43 -73,-45 -73,-90z" data-name="Path 44"/>
      </g>
      <g id="Group_19" data-name="Group 19">
       <path id="Path_45" class="fil27" d="M10408 16789c0,35 -28,64 -63,64 -35,0 -64,-29 -64,-64 0,-35 29,-63 64,-63 35,0 63,28 63,63l0 0z" data-name="Path 45"/>
       <path id="Path_46" class="fil27" d="M10688 16792c0,35 -28,63 -63,63 -35,0 -64,-28 -64,-63 0,-35 29,-63 64,-63 35,0 63,28 63,63l0 0z" data-name="Path 46"/>
       <path id="Path_47" class="fil27" d="M10968 16789c0,35 -29,64 -64,64 -35,0 -63,-29 -63,-64 0,-35 28,-63 63,-63 35,0 64,28 64,63l0 0z" data-name="Path 47"/>
       <path id="Path_48" class="fil27" d="M11248 16792c0,35 -29,63 -64,63 -35,0 -63,-28 -63,-63 0,-35 28,-63 63,-63 35,0 64,28 64,63l0 0z" data-name="Path 48"/>
      </g>
     </g>
     <g id="Group_21" data-name="Group 21">
      <path id="Path_49" class="fil28" d="M11274 15150l-1056 0c0,0 0,0 0,0 -83,0 -150,-68 -150,-151l0 0c0,-83 67,-150 150,-150 0,0 0,0 0,0l1056 0c0,0 0,0 0,0 83,0 151,67 151,150l0 0c0,83 -68,151 -151,151 0,0 0,0 0,0l0 0z" data-name="Path 49"/>
      <path class="fil27" d="M9875 15599l316 0c22,0 40,18 40,40l0 15c0,22 -18,40 -40,40l-316 0c-22,0 -40,-18 -40,-40l0 -15c0,-22 18,-40 40,-40z" data-name="Rectangle 3"/>
      <path class="fil27" d="M10419 15599l316 0c22,0 40,18 40,40l0 15c0,22 -18,40 -40,40l-316 0c-22,0 -40,-18 -40,-40l0 -15c0,-22 18,-40 40,-40z" data-name="Rectangle 4"/>
      <path class="fil27" d="M10958 15599l316 0c22,0 40,18 40,40l0 15c0,22 -18,40 -40,40l-316 0c-22,0 -40,-18 -40,-40l0 -15c0,-22 18,-40 40,-40z" data-name="Rectangle 5"/>
      <path class="fil27" d="M11501 15599l317 0c22,0 40,18 40,40l0 15c0,22 -18,40 -40,40l-317 0c-22,0 -39,-18 -39,-40l0 -15c0,-22 17,-40 39,-40z" data-name="Rectangle 6"/>
      <path id="Path_50" class="fil27" d="M11871 15409l-2155 0c-42,-1 -76,-35 -76,-77l0 0c0,-42 34,-77 76,-77 0,0 0,0 0,0l2155 0c42,0 76,35 76,77l0 0c0,0 0,0 0,0 0,42 -34,77 -76,77l0 0z" data-name="Path 50"/>
     </g>
     <path id="Path_51" class="fil27" d="M11444 18181l-1399 0c-65,0 -119,-54 -119,-119l0 0c0,-66 54,-119 119,-119l1399 0c66,0 119,53 119,119l0 0c0,0 0,0 0,0 0,65 -53,119 -119,119 0,0 0,0 0,0l0 0z" data-name="Path 51"/>
    </g>
    <g id="Group_23" data-name="Group 23">
     <path id="Path_52" class="fil29" d="M14225 14028l25 148 -12 0 -89 19 -31 6c-16,-103 -42,-142 -87,-243 -16,-43 -28,-88 -33,-133 -12,-77 -13,-149 -8,-152 8,-4 46,182 46,182 0,0 -29,-252 -13,-252 16,0 48,217 50,230 -2,-14 -25,-259 -9,-263 16,-4 69,256 71,264 -1,-8 -25,-224 -13,-227 14,-3 28,91 41,161 6,25 13,50 21,74 41,-58 17,-152 29,-152 12,0 37,86 37,136 0,4 0,11 -1,18l0 0c0,2 0,5 0,7l0 0c-1,10 -2,21 -4,33 -7,62 -20,144 -20,144z" data-name="Path 52"/>
     <path id="Path_53" class="fil30" d="M14132 14088c1,36 7,72 17,107l-31 6c-17,-103 -43,-142 -87,-243 12,52 33,101 61,147 7,-79 40,-71 40,-17z" data-name="Path 53"/>
     <path id="Path_54" class="fil31 str3" d="M14249 13844c0,2 0,5 -1,7 0,0 0,0 0,-1 0,-2 1,-4 1,-6l0 0z" data-name="Path 54"/>
     <path id="Path_55" class="fil30" d="M14250 14176l-12 0 -89 19 87 -21c0,0 -46,-128 -37,-165 6,-30 36,-76 46,-125 -7,62 -20,144 -20,144l25 148z" data-name="Path 55"/>
     <path id="Path_56" class="fil32" d="M15504 18558l13 400 -19 0 -21 -198c0,0 10,151 -103,231 -144,103 -194,-10 -152,-74 65,-103 99,-198 115,-367 23,-16 50,-25 78,-25 33,0 64,12 89,33l0 0z" data-name="Path 56"/>
     <path id="Path_57" class="fil33" d="M15349 18599c20,6 40,9 60,9 15,0 29,-2 44,-5 14,-3 -10,206 -91,264 -87,62 -65,-28 -50,-61 33,-75 37,-207 37,-207z" data-name="Path 57"/>
     <path id="Path_58" class="fil34" d="M15073 16540c0,0 66,413 87,595 20,181 123,1180 177,1423 12,3 24,4 37,4 29,0 58,-8 83,-23 25,-16 -33,-892 -17,-1168 17,-276 -20,-639 17,-850 28,-160 -236,-76 -363,-27 5,34 -21,46 -21,46z" data-name="Path 58"/>
     <path id="Path_59" class="fil32" d="M14923 18560l12 400 -19 0 -20 -198c0,0 9,151 -104,231 -144,103 -193,-10 -152,-74 66,-103 99,-198 115,-367 23,-16 51,-25 79,-25 32,0 64,12 88,33l1 0z" data-name="Path 59"/>
     <path id="Path_60" class="fil35" d="M14768 18601c19,6 39,9 59,9 15,0 30,-2 44,-5 14,-3 -10,207 -91,264 -87,62 -64,-28 -49,-61 33,-75 37,-207 37,-207z" data-name="Path 60"/>
     <path id="Path_61" class="fil36" d="M14905 16712c-7,206 11,468 -1,680 -17,277 16,1168 16,1168 -16,-4 -31,-10 -45,-19 -54,-244 -157,-1242 -177,-1424 -21,-181 -87,-594 -87,-594 0,0 27,-12 66,-27 127,-49 391,-133 363,27 -51,58 -96,122 -135,189l0 0z" data-name="Path 61"/>
     <path id="Path_62" class="fil30" d="M14837 18584c38,-131 39,-353 1,-564 -50,-277 -8,-430 0,-673 8,-243 -58,-578 -58,-578l125 -57c-7,206 11,468 -1,680 -17,277 16,1168 16,1168 -25,15 -53,24 -83,24l0 0z" data-name="Path 62"/>
     <path id="Path_63" class="fil30" d="M15419 18584c38,-131 39,-353 1,-564 -50,-277 -9,-430 0,-673 8,-243 -58,-578 -58,-578l125 -57c-8,206 11,468 -1,680 -17,277 16,1168 16,1168 -25,15 -54,24 -83,24l0 0z" data-name="Path 63"/>
     <path id="Path_65" class="fil37" d="M14675 14098c0,0 29,-131 -17,-446 -45,-313 -10,-517 114,-464 0,0 0,-95 144,-124 145,-29 308,81 345,287 37,206 62,623 128,747 66,124 -714,0 -714,0z" data-name="Path 64"/>
     <path id="Path_66" class="fil38" d="M15565 16169c-7,284 -22,576 -22,576 -581,206 -1056,24 -1056,24 -37,-292 -48,-719 24,-1014 46,-184 81,-312 81,-312l937 -33c39,163 42,481 36,759z" data-name="Path 66"/>
     <path id="Path_67" class="fil39" d="M15565 16169c-137,-70 -266,-158 -383,-260 -287,-241 -570,-186 -671,-154 46,-184 81,-312 81,-312l937 -33c39,163 42,481 36,759z" data-name="Path 67"/>
     <path id="Path_68" class="fil40" d="M15549 15591c1,3 1,6 1,9 0,31 -6,62 -17,91 -13,38 -48,71 -74,107 -1,7 -1,14 -1,21 0,0 0,1 0,1 0,25 41,108 20,99 -14,-5 -39,-61 -49,-94 -14,28 -22,59 -22,90 0,7 0,14 1,21 17,70 41,124 29,124 -12,0 -34,-45 -58,-104 -10,38 -15,77 -16,116 0,29 12,115 4,111 -11,-5 -29,-70 -33,-99 -8,-53 -5,-136 4,-152 17,-29 132,-198 132,-198l81 39 32 15 -34 -197z" data-name="Path 68"/>
     <path id="Path_69" class="fil30" d="M15550 15591c0,3 0,6 0,9 0,31 -6,62 -17,91 -13,38 -48,71 -74,107 -9,13 -14,28 -16,43 -1,16 -13,-43 32,-101 46,-58 29,-120 37,-144 7,-16 14,-30 24,-44l31 15 -17 24z" data-name="Path 69"/>
     <path id="Path_70" class="fil41" d="M15917 14754c-4,-45 -450,-714 -483,-726 -33,-13 -363,-37 -437,-17l-92 2c0,0 -267,31 -317,85 -34,37 -130,324 -186,495 -20,62 -35,109 -39,124 -1,2 -2,4 -2,4l-18 -109 -76 -460 -194 37c0,0 49,470 70,647 20,178 66,351 119,388 54,37 198,13 231,-41 47,-78 85,-162 114,-249 21,-62 39,-119 51,-160 1,-7 3,-14 5,-20 1,-6 0,21 0,59 0,3 0,7 -1,10 130,55 270,84 412,84 140,0 280,-28 409,-83 16,-7 32,-15 48,-23 2,-1 4,-2 6,-3l-21 37 0 0 149 75c0,0 182,-376 248,-529 66,-152 8,418 4,373zm-1548 94c-2,19 -44,215 -73,346 -9,42 -16,77 -21,98 -3,14 -5,22 -5,22 0,0 0,-1 0,-3 1248,-107 1193,-461 1193,-520 4,-69 13,-138 25,-206 12,-69 1,1 2,3 20,24 138,164 134,191l-1255 69z" data-name="Path 70"/>
     <path id="Path_71" class="fil42" d="M14634 14593c5,39 17,127 23,181 -11,41 -29,98 -50,160 -18,-110 -49,-325 -31,-362 25,-49 115,-222 115,-222 0,0 -66,185 -57,243z" data-name="Path 71"/>
     <path id="Path_72" class="fil43 str3" d="M14662 14813c1,4 1,6 1,6l-1 4c0,-3 0,-7 0,-10z" data-name="Path 72"/>
     <path id="Path_74" class="fil44" d="M15463 14791c0,59 56,413 61,451 -21,76 -46,151 -76,225 -15,8 -76,31 -92,38 9,-120 62,-244 21,-487 -72,-421 -9,-594 -9,-594l123 164c-2,-2 -3,-3 -3,-3 -12,68 -21,137 -25,206l0 0z" data-name="Path 73"/>
     <path id="Path_75" class="fil45" d="M15552 15138c-8,30 -15,58 -22,85 4,-21 12,-56 21,-98l1 13z" data-name="Path 75"/>
     <path id="Path_76" class="fil46" d="M15162 14040c0,0 -27,110 -61,241 -52,202 -119,456 -129,448 -6,-4 -16,-87 -28,-194 -21,-204 -46,-495 -46,-495l264 0z" data-name="Path 76"/>
     <path id="Path_77" class="fil47" d="M14419 15018l-56 -302c4,-14 19,-61 39,-123l17 425z" data-name="Path 77"/>
     <path id="Path_78" class="fil48" d="M15162 14040c0,0 -116,128 -264,0 -4,1 -8,1 -12,1 -8,0 -16,-1 -23,-4 -37,-12 -128,-144 -136,-425 0,0 61,-31 102,-137 31,89 98,162 186,198l1 4c4,22 24,125 65,173 0,0 4,-173 58,-161 53,12 22,151 16,165 -8,21 -29,8 -29,8 0,0 -1,63 36,178z" data-name="Path 78"/>
     <path id="Path_79" class="fil30" d="M15021 13809c-10,7 -21,11 -33,13l0 0c11,-4 23,-8 33,-13l0 0z" data-name="Path 79"/>
     <path id="Path_80" class="fil30" d="M15018 13467c-95,-6 -170,-91 -205,-140 30,90 98,162 185,198l20 -58z" data-name="Path 80"/>
     <path id="Path_81" class="fil49" d="M15101 14281c-52,202 -119,456 -129,448 -6,-4 -16,-87 -28,-194l157 -254z" data-name="Path 81"/>
    </g>
    <g id="Group_24" data-name="Group 24">
     <polygon id="Path_82" class="fil46" points="5675,14231 5856,14060 6219,14231 6155,15961 5854,15961 " data-name="Path 82"/>
     <path id="Path_83" class="fil50" d="M5449 18822c-23,12 -48,19 -73,22l-295 -71c97,-29 173,-78 197,-114 14,-35 22,-72 23,-109 4,-41 5,-77 5,-77l159 -24c0,0 1,43 1,100 0,107 -2,263 -17,273z" data-name="Path 83"/>
     <path id="Path_84" class="fil51" d="M5466 18549c-28,4 -56,6 -84,6 -27,0 -54,-2 -81,-5 4,-41 5,-77 5,-77l159 -24c0,0 1,43 1,100z" data-name="Path 84"/>
     <path id="Path_85" class="fil50" d="M6501 18830c0,0 -215,71 -262,62 -48,-9 -16,-121 -8,-185 1,-19 1,-38 1,-57 0,-31 -1,-61 -4,-92 -4,-58 -9,-109 -9,-109l163 0c0,0 2,51 5,103 3,44 7,89 10,107 8,40 104,171 104,171z" data-name="Path 85"/>
     <path id="Path_86" class="fil51" d="M6387 18552c-42,3 -97,5 -159,6 -4,-58 -9,-109 -9,-109l163 0c0,0 2,51 5,103z" data-name="Path 86"/>
     <path id="Path_87" class="fil52" d="M6433 15822l0 1397c0,111 -24,1270 -24,1270l-198 0c0,0 -119,-1044 -123,-1226 -4,-183 -83,-989 -83,-989l-2 6 -256 867c-37,140 -65,282 -84,425 -36,258 -186,917 -186,917l-199 0 88 -1286 138 -1397c179,22 358,34 538,34 78,0 158,-2 235,-7 52,-2 104,-6 156,-11z" data-name="Path 87"/>
     <path id="Path_88" class="fil53" d="M5377 18846c0,0 -98,-131 -231,-95 -134,35 -102,83 -79,95 51,14 103,20 155,20 53,0 105,-6 156,-20l-1 0z" data-name="Path 88"/>
     <path id="Path_89" class="fil53" d="M6493 18882c-32,6 -273,34 -278,0 0,-3 -1,-6 -1,-9 0,-43 33,-81 76,-87 68,-12 203,32 222,52 20,20 0,40 -19,44z" data-name="Path 89"/>
     <path id="Path_90" class="fil54" d="M6433 15822l0 1397c0,111 -24,1270 -24,1270l-52 0c7,-101 11,-203 11,-304 0,-116 -5,-232 -14,-347 -32,-365 -52,-500 0,-933 41,-345 -42,-873 -77,-1071 52,-3 104,-7 156,-12z" data-name="Path 90"/>
     <path id="Path_91" class="fil55" d="M6003 16280l-256 867c-37,139 -65,282 -84,425 -36,258 -186,917 -186,917l-63 0c59,-213 103,-432 130,-651 39,-273 -14,-292 68,-691 39,-194 174,-377 214,-607 28,-177 73,-352 135,-520l42 260z" data-name="Path 91"/>
     <path id="Path_92" class="fil56" d="M6774 16350c0,0 28,258 20,274 -8,15 -233,96 -262,19 -39,-107 0,-694 0,-694 0,0 -4,-203 40,-195 44,8 202,596 202,596z" data-name="Path 92"/>
     <path id="Path_93" class="fil57" d="M6564 16135c0,0 -24,-277 0,-313 24,-36 56,-32 103,182 48,215 56,381 88,397 26,11 54,18 83,20 28,2 -191,-758 -242,-758 -52,0 -115,60 -103,457 0,0 12,146 71,15z" data-name="Path 93"/>
     <path id="Path_94" class="fil58" d="M6044 13774l-4 139 -3 92 -5 126c-154,227 -266,0 -266,0l-15 -145 -5 -48 -3 -29 301 -135z" data-name="Path 94"/>
     <path id="Path_95" class="fil30" d="M6036 13908l0 92c-37,51 -87,106 -127,107 -53,2 -122,-72 -159,-116l-7 -47c71,-47 214,-43 293,-36z" data-name="Path 95"/>
     <path id="Path_96" class="fil37" d="M5620 13659c0,0 -37,-138 -23,-205 15,-66 78,-37 78,-37 -7,-14 -11,-30 -11,-46 0,-25 9,-50 26,-69 48,-55 245,-81 360,-33 116,48 45,152 45,152 0,0 145,-37 45,219l-223 93 -297 -71 0 -3z" data-name="Path 96"/>
     <path id="Path_97" class="fil59" d="M5686 13655c0,0 -55,-60 -74,-22 -18,37 22,174 112,167l-38 -145z" data-name="Path 97"/>
     <path id="Path_98" class="fil60" d="M6076 13655c0,0 55,-60 74,-22 19,37 -22,174 -111,167l37 -145z" data-name="Path 98"/>
     <path id="Path_99" class="fil61" d="M6094 13653l0 0c-1,8 -30,244 -44,288 -17,-18 -31,-37 -43,-59 -26,-50 -51,-312 -51,-312 28,-38 45,-83 48,-130 1,-10 2,-22 3,-34 0,0 205,-65 333,24 0,0 0,1 0,2 -114,28 -206,111 -246,221l0 0z" data-name="Path 99"/>
     <path id="Path_100" class="fil30" d="M6087 13640c0,9 -15,246 -26,290 -22,52 -62,95 -113,121 98,-66 138,-402 139,-411z" data-name="Path 100"/>
     <path id="Path_101" class="fil30" d="M6050 13477c0,0 0,0 0,1 -137,-32 -285,12 -335,29 1,-11 1,-22 1,-34 0,0 201,-78 334,4z" data-name="Path 101"/>
     <path id="Path_102" class="fil62" d="M5917 15870c-70,-9 -140,-26 -207,-52l-39 -1012c0,0 -63,203 -82,290 -3,12 -5,23 -5,35 4,32 51,254 51,254l-230 88c0,0 -115,-226 -115,-302 0,-75 167,-802 202,-857 36,-56 473,-171 473,-171l-48 1727z" data-name="Path 102"/>
     <path id="Path_103" class="fil63" d="M6432 15147c2,-10 2,-21 2,-32 0,-8 0,-16 -1,-23 -8,-40 -63,-211 -63,-211 8,96 63,1008 63,1008 -52,2 -114,0 -170,-4 -97,-6 -179,-15 -179,-15l-44 -1739c164,19 324,65 472,135 24,16 191,798 191,830 0,31 -68,262 -68,262l-224 -63 -2 -1c0,0 1,-2 2,-7 3,-20 15,-85 21,-137l0 0 0 0 0 -2 0 -1z" data-name="Path 103"/>
     <path id="Path_104" class="fil64" d="M5719 15858c-70,-9 -140,-26 -207,-52l-39 -1012c0,0 -63,204 -82,290l-53 155 166 -747c37,149 55,302 55,455 0,55 -2,110 -7,165 -22,277 163,490 167,746z" data-name="Path 104"/>
     <path id="Path_105" class="fil43" d="M6409 15294c0,0 1,-2 2,-6 0,2 0,4 0,7l-2 -1z" data-name="Path 105"/>
     <path id="Path_106" class="fil43" d="M6432 15148c0,0 0,1 0,2l0 -2z" data-name="Path 106"/>
     <path id="Path_107" class="fil65" d="M6370 14881c8,96 63,1008 63,1008 -52,2 -114,0 -170,-4 99,-196 67,-598 35,-793 -36,-218 0,-651 0,-651 0,0 147,552 147,571 0,18 -11,116 -13,135 2,-10 2,-21 2,-32 0,-8 0,-15 -1,-23 -8,-40 -63,-211 -63,-211z" data-name="Path 107"/>
     <path id="Path_108" class="fil66" d="M5643 15977c-22,23 -48,42 -77,56 -112,-175 -334,-615 -334,-615l157 -60 73 -28c10,22 46,157 92,302 45,145 89,345 89,345z" data-name="Path 108"/>
     <path id="Path_109" class="fil30" d="M5643 15977c-5,16 -14,30 -25,43 -32,-143 -102,-186 -141,-349 -24,-95 -62,-186 -113,-270l73 -27c10,22 46,156 91,301 46,145 115,302 115,302z" data-name="Path 109"/>
     <path id="Path_110" class="fil67" d="M5473 15445c0,0 -242,87 -254,95 -12,8 -80,-127 -80,-127l314 -111c0,0 37,117 20,143z" data-name="Path 110"/>
     <path id="Path_111" class="fil56" d="M6219 14151c0,0 -48,1171 276,1463l-50 109c0,0 -377,-378 -317,-1580 0,0 31,-20 91,8z" data-name="Path 111"/>
     <path id="Path_112" class="fil68" d="M6584 16024c8,24 16,159 -20,175 -36,16 -119,8 -119,8 0,0 135,147 115,151 -20,4 -143,-104 -151,-127 -8,-24 -59,-223 -55,-326 4,-103 55,-619 55,-619l140 44 86 28c-25,79 -162,555 -162,555 0,1 0,1 1,2 27,65 70,220 70,220 0,0 32,-135 40,-111z" data-name="Path 112"/>
     <path id="Path_113" class="fil30" d="M6473 15913c0,1 0,1 1,2l-41 46c48,-123 24,-254 79,-405 25,-65 37,-134 37,-203 0,-8 0,-15 0,-23l87 28c-26,80 -163,555 -163,555z" data-name="Path 113"/>
     <path id="Path_114" class="fil67" d="M6378 15258l313 88c-86,-16 -171,-40 -254,-68 -59,115 -59,-20 -59,-20z" data-name="Path 114"/>
    </g>
    <g id="Group_25" data-name="Group 25">
     <path id="Path_115" class="fil50" d="M7580 19004c48,32 416,-161 444,-182 25,-18 5,-164 1,-193 -1,-3 -1,-4 -1,-4l1 -91 -209 -41 6 134 0 10c1,5 2,11 2,17 0,17 -5,33 -14,47 -20,29 -279,271 -230,303z" data-name="Path 115"/>
     <path id="Path_116" class="fil69" d="M7816 18493l6 134c33,14 68,21 104,21 34,0 67,-6 99,-19 -1,-3 -1,-4 -1,-4l1 -91 -209 -41z" data-name="Path 116"/>
     <path id="Path_117" class="fil50" d="M8440 18810c20,25 92,16 149,20 56,4 444,57 464,0 20,-54 -392,-192 -418,-201l-2 0 2 -101 -198 -59 3 164 -1 2c-2,18 -18,153 1,175z" data-name="Path 117"/>
     <path id="Path_118" class="fil69" d="M8440 18633l-1 2c29,6 58,10 87,10 37,0 74,-6 109,-16l-2 0 2 -101 -198 -59 3 164z" data-name="Path 118"/>
     <path id="Path_119" class="fil70" d="M7685 16808l48 465c0,0 33,730 89,1279 16,4 33,7 50,7 33,0 66,-9 95,-26 29,-17 69,-1275 81,-1396 10,-100 28,-589 34,-756 2,-35 2,-56 2,-56 0,0 202,820 218,884 17,65 53,981 85,1324 18,3 35,4 53,4 32,0 64,-4 95,-14 31,-9 81,-1356 89,-1441 8,-84 -73,-565 -73,-565l-327 -811 -18 2 -474 38 -47 1062z" data-name="Path 119"/>
     <path id="Path_120" class="fil71" d="M7685 16808l48 465c0,0 33,730 89,1279 18,8 37,15 57,19l0 0c-27,-76 -15,-429 -2,-647 12,-217 4,-274 -29,-589 -32,-315 121,-613 154,-977 32,-363 242,-367 242,-367l60 -255 -474 39 -145 1033z" data-name="Path 120"/>
     <path id="Path_121" class="fil72" d="M8139 16161l0 239c1,-35 2,-56 2,-56 0,0 202,820 218,884 16,65 52,981 84,1324 14,4 28,8 42,10 11,-129 -7,-372 -19,-662 -3,-51 -4,-104 -4,-156 0,-181 16,-364 48,-542 16,-101 -109,-218 -186,-468 -76,-251 -185,-573 -185,-573z" data-name="Path 121"/>
     <path id="Path_122" class="fil46" d="M7830 14334l46 745 47 753c250,80 359,0 359,0l11 -355 30 -1022 -166 -169c0,0 -109,230 -145,222 -37,-8 -182,-174 -182,-174z" data-name="Path 122"/>
     <path id="Path_123" class="fil49" d="M7876 15079l47 753c250,80 359,0 359,0l11 -355c-21,-11 -43,-17 -66,-17 -1,0 -1,0 -1,0 -243,-4 -327,-674 -327,-674l-23 293z" data-name="Path 123"/>
     <path id="Path_125" class="fil73" d="M7794 13402c-9,-51 -50,-90 -101,-97 -93,-20 -258,109 -230,331 28,222 202,133 202,133l129 -367z" data-name="Path 124"/>
     <path id="Path_126" class="fil37" d="M8207 13850l31 315c0,0 59,-541 28,-638 -32,-101 -113,-161 -182,-76 0,0 -16,-97 -157,-105 -141,-8 -295,129 -303,395 0,5 0,10 0,15 0,151 73,293 197,380l386 -286z" data-name="Path 126"/>
     <path id="Path_127" class="fil74" d="M8913 15049l121 76 90 56c0,0 232,-713 264,-730 32,-16 254,-28 279,-40 6,-3 21,-11 40,-22l0 0c55,-32 141,-84 129,-87 -16,-4 -85,41 -145,45 -61,4 -287,-37 -339,-13 -53,25 -113,146 -186,279 -73,133 -253,436 -253,436z" data-name="Path 127"/>
     <path id="Path_128" class="fil30" d="M9034 15125l90 56c0,0 232,-713 264,-730 32,-16 254,-28 279,-40 6,-3 21,-11 40,-22 -84,11 -170,19 -254,22 -93,0 -126,16 -154,133 -28,117 -182,517 -254,569 -5,3 -8,7 -10,12l-1 0z" data-name="Path 128"/>
     <path id="Path_129" class="fil75" d="M8779 15222l110 -144 -50 64c0,0 -11,-36 -29,-93l-31 173z" data-name="Path 129"/>
     <path id="Path_130" class="fil76" d="M7766 13927c16,12 40,-16 40,-16 9,96 42,285 34,377 -3,35 -52,48 -52,48 0,0 167,216 228,212 60,-4 170,-262 170,-262 -12,-25 -21,-52 -25,-80 0,-2 0,-4 0,-4 3,4 6,6 10,8l0 0c7,3 15,5 22,5 1,0 1,0 2,0l0 0c8,0 17,-1 25,-4l0 0c2,0 3,-1 5,-3 60,-46 79,-404 79,-404 -44,90 -108,170 -187,233 -79,63 -48,-129 -85,-93 -36,36 -283,-29 -266,-17z" data-name="Path 130"/>
     <path id="Path_131" class="fil37" d="M7830 13854c0,0 12,246 61,347 0,0 -25,-327 20,-476l-81 129z" data-name="Path 131"/>
     <path id="Path_132" class="fil77" d="M8210 15267c-24,451 28,1211 80,1461 53,250 517,121 517,121 0,0 -77,-392 -145,-654 -55,-209 -127,-816 -155,-1055 -7,-62 -11,-99 -11,-99 0,0 174,537 311,549 1,0 1,0 2,0 21,0 42,-7 58,-20 129,-88 275,-428 275,-428l-210 -117 -41 52 -1 1 -51 64c0,0 -11,-36 -29,-93 -60,-186 -197,-594 -277,-686 -105,-121 -406,-75 -406,-75 0,0 103,583 83,979z" data-name="Path 132"/>
     <path id="Path_133" class="fil78" d="M8507 15139c-7,-61 -11,-98 -11,-98 0,0 174,536 311,549 -46,-20 -81,-58 -97,-105 -56,-150 -64,-295 -161,-384 -97,-89 -117,-242 -141,-339 23,128 57,254 99,377l0 0z" data-name="Path 133"/>
     <path id="Path_134" class="fil79" d="M6910 15303c12,109 161,214 161,214l159 -178 15 -16 -61 -56 400 -343c0,0 0,5 0,14 4,90 26,574 40,837 16,291 -60,1106 -60,1106 0,0 427,69 480,-190 52,-258 -53,-1356 -57,-1473 -4,-117 -171,-894 -171,-894 0,0 -224,15 -317,91 -93,77 -601,779 -589,888z" data-name="Path 134"/>
     <path id="Path_135" class="fil80" d="M7092 15230l138 109 15 -16 -61 -56 400 -343c0,0 0,5 1,14l55 -297c-78,94 -150,194 -213,299 -122,194 -335,290 -335,290z" data-name="Path 135"/>
     <path id="Path_136" class="fil81" d="M7071 15517c190,113 594,323 594,323 15,19 34,34 56,44 45,24 186,0 202,8 16,8 48,81 56,77 9,-4 -12,-85 -16,-97 -4,-12 -105,-48 -105,-48 0,0 105,20 117,36 13,16 73,101 77,97 40,4 79,14 116,29 25,12 61,72 73,77 12,4 -4,-53 -12,-69 -8,-16 -117,-81 -149,-93 -20,-8 -75,1 -125,4 -7,1 -15,2 -22,2 -16,0 -32,-2 -47,-6 -49,-16 -476,-387 -476,-387l-45 48 -294 -45z" data-name="Path 136"/>
     <path id="Path_137" class="fil30" d="M7201 15376c69,52 342,258 419,310 -8,1 -15,1 -23,1 -16,0 -31,-1 -47,-5 -48,-16 -476,-388 -476,-388l127 82z" data-name="Path 137"/>
     <path id="Path_138" class="fil30" d="M8018 13621c-62,-50 -111,-116 -141,-190 62,51 110,116 141,190l0 0z" data-name="Path 138"/>
     <path id="Path_139" class="fil82" d="M8103 14178c2,-1 4,-2 5,-3 -4,-2 -7,-3 -7,-3 1,2 2,4 2,6l0 0z" data-name="Path 139"/>
     <path id="Path_140" class="fil83" d="M8054 14177c7,3 15,4 23,4 0,0 0,0 1,0 -8,0 -16,-2 -24,-4l0 0z" data-name="Path 140"/>
     <path id="Path_141" class="fil30" d="M7949 14082c0,0 3,151 120,170 -12,-25 -21,-52 -24,-79 -39,-22 -72,-53 -96,-91l0 0z" data-name="Path 141"/>
    </g>
    <g id="Group_27" data-name="Group 27">
     <path id="Path_142" class="fil84" d="M16199 11477l-1317 0c0,0 0,0 0,0 -67,0 -122,54 -122,122 0,0 0,0 0,0l0 942c0,0 0,0 0,0 0,44 25,85 64,107l-123 350c-2,3 -2,7 -2,11 0,18 15,33 33,33 8,0 16,-2 22,-7l447 -372 998 0c67,0 122,-55 122,-122l0 -942c0,0 0,0 0,0 0,-68 -55,-122 -122,-122 0,0 0,0 0,0l0 0z" data-name="Path 142"/>
     <g id="Group_26" data-name="Group 26">
      <path id="Path_143" class="fil26" d="M15918 12069c0,0 0,0 0,1 0,208 -169,377 -377,377 -209,0 -377,-169 -377,-377 0,-208 168,-377 376,-377 0,0 1,0 1,0 208,0 377,168 377,376 0,0 0,0 0,0l0 0z" data-name="Path 143"/>
      <path id="Path_144" class="fil21" d="M15784 12357c10,-5 21,-7 32,-7 27,0 52,15 65,38 -33,-7 -65,-17 -97,-31l0 0z" data-name="Path 144"/>
      <path id="Path_145" class="fil21" d="M15697 11948c0,0 0,0 0,0 0,86 -70,156 -157,156 -86,0 -156,-70 -156,-156 0,-87 70,-157 156,-157 0,0 0,0 0,0 87,0 157,70 157,157l0 0z" data-name="Path 145"/>
     </g>
    </g>
    <g id="Group_29" data-name="Group 29">
     <path id="Path_146" class="fil84" d="M5743 12542l0 -942c0,-67 -54,-122 -122,-122l-1316 0c0,0 0,0 0,0 -68,0 -122,55 -122,122 0,0 0,0 0,0l0 942c0,0 0,0 0,0 0,67 54,122 122,122 0,0 0,0 0,0l961 0 404 429c4,5 10,7 17,7 12,0 22,-10 22,-23 0,-1 0,-3 0,-4l-83 -409c66,-3 117,-57 117,-122l0 0z" data-name="Path 146"/>
     <g id="Group_28" data-name="Group 28">
      <circle id="Ellipse_3" class="fil26" transform="matrix(0.82 -0.573 0.573 0.82 4965.34 12073.3)" r="373" data-name="Ellipse 3"/>
      <path id="Path_147" class="fil21" d="M5033 11922c0,0 33,-103 61,-107 28,-3 132,67 114,180 -17,114 -174,278 -296,288 -121,10 -202,-66 -191,-92 11,-25 61,-89 105,-67 44,22 82,68 133,29 50,-40 135,-111 141,-150 5,-38 -67,-40 -67,-81z" data-name="Path 147"/>
     </g>
    </g>
    <g id="Group_30" data-name="Group 30">
     <path id="Path_148" class="fil84" d="M7903 11275l-1316 0c-68,0 -122,55 -122,122l0 942c0,67 54,122 122,122 0,0 0,0 0,0l628 0 289 516c4,7 11,11 19,11 12,0 22,-10 22,-22 0,0 0,-1 0,-1l-33 -504 391 0c0,0 0,0 0,0 68,0 123,-55 123,-122l0 -942c0,-67 -55,-122 -123,-122l0 0z" data-name="Path 148"/>
     <path id="Path_149" class="fil21" d="M7556 11719l0 339c0,21 -18,39 -39,39l-544 0c-21,0 -38,-18 -38,-39 0,0 0,0 0,0l0 -339c0,0 0,0 0,0 0,-2 0,-4 0,-7l277 156c10,6 22,9 33,9 12,0 23,-3 33,-9l277 -156c0,3 1,5 1,7 0,0 0,0 0,0l0 0z" data-name="Path 149"/>
     <path id="Path_150" class="fil21" d="M7555 11661l-277 156c-10,6 -21,9 -33,9 -11,0 -22,-3 -32,-9l-277 -156c0,0 0,-1 0,-1 1,-1 2,-1 3,-1l545 0c6,-14 20,-23 35,-23 16,0 31,10 36,25l0 0z" data-name="Path 150"/>
     <path id="Path_151" class="fil85" d="M6835 11634c-1,1 -1,2 -1,3l-1 -1c1,0 1,-1 2,-2z" data-name="Path 151"/>
    </g>
   </g>
  </g>
  <path class="fil86" d="M5179 12379c-169,118 -401,77 -519,-92 -118,-169 -77,-401 92,-519 169,-118 401,-77 519,92 118,169 77,401 -92,519zm-45 285c157,-375 362,-728 609,-1037l0 -27c0,-67 -54,-122 -122,-122l-1316 0c-68,0 -122,55 -122,122l0 942c0,67 54,122 122,122l829 0z"/>
  <path class="fil87" d="M5743 12542l0 0zm0 -915c-247,309 -452,662 -609,1037l132 0 404 429c16,17 43,2 39,-20l-83 -409c66,-3 117,-57 117,-122l0 -915z"/>
  <path class="fil88" d="M5100 12003c5,-38 -67,-40 -67,-81 0,0 33,-103 61,-107 28,-3 132,67 114,180 -17,114 -174,278 -296,288 -121,10 -202,-66 -191,-92 11,-25 61,-89 105,-67 44,22 82,68 133,29 50,-40 135,-111 141,-150zm-440 284c118,169 350,210 519,92 169,-118 210,-350 92,-519 -118,-169 -350,-210 -519,-92 -169,118 -210,350 -92,519z"/>
  <path class="fil88" d="M7903 11275l0 0zm-1438 122l0 942c0,67 54,122 122,122l628 0 289 516c11,20 42,11 41,-12l-33 -504 391 0c68,0 123,-55 123,-122l0 -942c0,-67 -55,-122 -123,-122l-1316 0c-68,0 -122,55 -122,122zm1052 700l-544 0c-21,0 -38,-18 -38,-39l0 -346 277 156c21,12 46,12 66,0l277 -156 1 7 0 339c0,21 -18,39 -39,39zm38 -436l0 0zm-720 -27l-1 3 -1 -1 2 -2zm101 26l0 0zm619 1l-277 156c-10,6 -21,9 -33,9 -11,0 -22,-3 -32,-9l-277 -157 3 -1 545 0c6,-14 20,-23 35,-23 16,0 31,10 36,25z"/>
  <path class="fil87" d="M15918 12069l0 0zm-134 288c-65,56 -150,90 -243,90 -209,0 -377,-169 -377,-377 0,-209 168,-377 377,-377 208,0 377,168 377,376 0,116 -52,219 -134,288zm-1024 -758l0 942c0,44 25,85 64,107l-125 361c0,28 33,44 55,26l447 -372 998 0c67,0 122,-55 122,-122l0 -182c-134,-317 -289,-614 -455,-882l-984 0c-67,0 -122,54 -122,122zm1024 758l0 0zm97 31c-33,-7 -65,-17 -97,-31 10,-5 21,-7 32,-7 27,0 52,15 65,38z"/>
  <path class="fil88" d="M16321 11599l0 0zm-122 -122l0 0zm-333 0c166,268 321,565 455,882l0 -760c0,-68 -55,-122 -122,-122l-333 0z"/>
  <path class="fil87" d="M16321 11599l0 0zm-122 -122l-333 0c166,268 321,565 455,882l0 -760c0,-68 -55,-122 -122,-122z"/>
  <path class="fil88" d="M15784 12357l0 0zm134 -288c0,-208 -169,-376 -377,-376 -209,0 -377,168 -377,377 0,208 168,377 377,377 93,0 178,-34 243,-90 82,-69 134,-172 134,-288zm-221 -121c0,86 -70,156 -157,156 -86,0 -156,-70 -156,-156 0,-87 70,-157 156,-157 87,0 157,70 157,157z"/>
  <path class="fil87" d="M9774 16386c-31,-7 -64,-11 -97,-11 -105,0 -201,39 -274,103 -3,2 -5,5 -8,7 -55,51 -96,117 -117,192 -5,16 -8,33 -11,50 -3,21 -5,41 -5,62 0,229 186,415 415,415 42,0 84,-7 122,-19 169,-52 292,-209 292,-396 0,-195 -135,-359 -317,-403zm-193 495c18,10 36,16 55,13 11,-2 22,-7 34,-16 56,-45 150,-124 156,-167 7,-43 -73,-45 -73,-90 0,0 37,-115 67,-119 31,-4 147,74 127,200 -16,103 -135,244 -252,298 -17,8 -34,14 -50,18 -9,2 -18,3 -27,4 -8,1 -15,1 -23,1 -122,1 -202,-75 -190,-102 5,-13 19,-34 37,-51 23,-22 52,-38 80,-24 20,10 39,25 59,35z"/>
  <path class="fil87" d="M13228 14328c42,226 -17,490 -287,548 -3,3 -6,6 -8,9 -6,5 -12,11 -18,17l0 426c116,-151 261,-281 425,-441 336,-325 153,-803 453,-971 81,-45 146,-95 198,-142 -5,-56 -5,-99 -1,-101 4,-2 14,37 24,79 3,-3 7,-7 10,-10 -6,-67 -10,-139 -1,-139 8,0 20,53 30,109 3,-4 6,-7 9,-11 -4,-65 -6,-129 2,-131 7,-2 19,40 32,90 8,-11 16,-21 23,-31 0,-13 1,-21 3,-22 2,0 5,2 7,6 11,22 23,96 34,155 6,25 13,50 21,74 41,-58 17,-152 29,-152 12,0 37,86 37,136l-1 18 0 7 -4 33c0,0 0,0 0,0 0,0 0,0 0,1 -3,27 -7,59 -11,85 348,-340 124,-760 -70,-760 -214,0 -173,289 -550,432 -376,142 -432,437 -386,686z"/>
  <path class="fil87" d="M13793 13916c-300,168 -117,646 -453,971 -164,160 -309,290 -425,441l0 243c88,39 168,48 238,35 47,-119 121,-230 289,-307 14,-6 27,-13 40,-20 4,-11 8,-23 12,-34 46,-149 135,-295 288,-374 57,-264 17,-566 301,-781 -23,-41 -41,-86 -52,-132 -16,-43 -28,-88 -33,-133 -3,-18 -5,-35 -7,-51 -52,47 -117,97 -198,142z"/>
  <path class="fil87" d="M13782 14871c-153,79 -242,225 -288,374 -4,11 -8,23 -12,34 -57,156 -169,298 -329,327 -70,13 -150,4 -238,-35l0 347c22,-8 44,-15 67,-23 25,-26 51,-48 77,-66 11,-7 21,-14 31,-19 78,-43 154,-45 215,-10 9,-3 18,-6 27,-8 449,-132 509,-640 853,-649 8,0 17,0 25,-1 -30,-75 -54,-190 -67,-306 -1,-6 -2,-13 -3,-21 -147,-15 -264,8 -358,56z"/>
  <path class="fil87" d="M14271 15311l-1 3 0 -3c0,0 1,0 1,0zm-86 -168c-344,9 -404,517 -853,649 -9,2 -18,5 -27,8 72,40 124,131 140,266 83,-104 203,-181 373,-197 136,-194 263,-405 579,-442 202,-23 340,-99 427,-195 -148,32 -329,59 -553,79l4 -19 12 -56c-9,-3 -18,-7 -25,-12 -18,-13 -36,-42 -52,-82 -8,1 -17,1 -25,1z"/>
  <path class="fil87" d="M13987 15872c-62,-7 -118,-8 -169,-3 -170,16 -290,93 -373,197 4,35 6,74 5,115 -5,163 -53,371 -165,617 342,-178 421,-592 731,-600 219,-5 369,-70 449,-117 8,-117 22,-229 46,-326 2,-5 3,-11 4,-16 -118,45 -251,168 -528,133z"/>
  <path class="fil87" d="M14016 16198c-310,8 -389,422 -731,600 -8,18 -16,35 -25,53 -9,20 -18,39 -28,59 -53,115 -103,233 -149,349 37,1 72,0 104,-4 20,-27 38,-52 57,-75 40,-50 79,-95 117,-137 158,-173 295,-272 413,-292 104,-131 232,-243 455,-269 89,-10 166,-31 231,-59 -4,-113 -3,-230 5,-342 -80,47 -230,112 -449,117z"/>
  <path class="fil87" d="M12941 14876c456,-452 -146,-877 221,-1374 370,-500 -33,-898 -234,-828 -5,1 -9,3 -13,5l0 645 0 1557 0 21c6,-6 12,-12 18,-17l8 -9z"/>
  <path class="fil87" d="M8670 13324l0 -645c-4,-2 -9,-4 -13,-5 -202,-70 -604,328 -234,828 215,291 97,557 55,819 21,11 40,25 55,42 37,43 88,156 137,283l0 -1322z"/>
  <path class="fil87" d="M7461 13621c-13,-149 62,-255 140,-297 -48,-67 -93,-114 -180,-114 -214,0 -463,508 51,859 116,79 184,172 226,271 58,-11 107,-15 116,-15 13,-8 25,-20 26,-37 4,-40 -1,-99 -8,-161l-11 9c-111,-78 -181,-200 -195,-333 -6,-6 -13,-12 -19,-17 -53,6 -127,-12 -144,-150 -1,-5 -1,-10 -2,-15z"/>
  <path class="fil87" d="M8297 13898c-10,110 -32,279 -72,310 -2,2 -3,3 -5,3 -8,3 -17,4 -25,4l0 0 -2 0c-7,0 -15,-2 -22,-5l0 0c-4,-2 -7,-4 -10,-8l0 4c4,26 12,52 23,76 46,-3 113,-5 179,5 17,-130 5,-268 -66,-389z"/>
  <path class="fil87" d="M7597 15215c-57,-43 -120,-70 -197,-72 -23,-1 -46,-2 -67,-4l-149 128 61 56 -15 16 -31 36 2 1c19,14 54,41 96,73 143,40 241,122 321,218 -7,-140 -15,-310 -21,-452z"/>
  <path class="fil87" d="M7333 15139c21,2 44,3 67,4 77,2 140,29 197,72 -6,-131 -11,-239 -12,-277l-1 -14 -251 215z"/>
  <path class="fil87" d="M7023 15063c49,-80 109,-169 170,-256 -214,-49 -306,-193 -451,-117 -44,23 -76,72 -93,133 30,143 54,261 54,273 0,7 -3,23 -8,45 45,82 120,159 230,213 -8,-17 -13,-34 -15,-51 -4,-34 44,-127 113,-240z"/>
  <path class="fil87" d="M8508 15144c12,105 32,280 56,460 34,-6 69,-17 106,-33l0 -121c-47,-81 -90,-182 -122,-264 -13,-14 -27,-28 -40,-42z"/>
  <path class="fil87" d="M8670 15571c-37,16 -72,27 -106,33 13,99 27,200 42,292 21,7 43,15 64,22l0 -347z"/>
  <path class="fil88" d="M7615 16203c7,-122 11,-240 11,-334 -9,1 -18,2 -28,3 -399,50 -498,-226 -687,-126 -189,99 -173,665 445,736 93,11 170,37 235,73 9,-108 17,-232 24,-352z"/>
  <path class="fil88" d="M12756 11375l0 0zm-2279 485l1432 0 847 0 0 -370 0 -114c0,-2 0,-4 0,-6 0,-155 -89,-289 -219,-354 -53,-27 -114,-43 -178,-43l-676 0c-47,0 -89,27 -107,70l-57 129c-12,27 -38,44 -67,44l-1175 0c-30,0 -57,-18 -68,-46l-61 -147c-12,-30 -41,-50 -73,-50l-814 0 -33 0c-219,1 -396,178 -397,397 0,2 0,4 0,5l0 142 2 0 0 343 1644 0z"/>
  <path class="fil87" d="M12756 11376l0 0zm-3925 -1l0 -5c0,2 0,4 0,5zm1446 -159l1175 0c29,0 55,-17 67,-44l57 -129c18,-43 60,-70 107,-70l676 0c64,0 125,16 178,43 130,65 219,199 219,354 0,2 0,4 0,6l0 114 1 0 0 370 -1 0 0 1111 0 574 0 443 0 388 0 538 0 633 0 42 0 95 0 297 0 204 0 122 0 107 0 3 0 213 0 340 0 358 0 8 0 692 0 194c0,91 -30,174 -82,241 -36,47 -83,86 -137,113 -3,2 -5,3 -8,4 -51,25 -109,39 -170,39l-3131 0c-19,0 -38,-2 -57,-4 -41,-6 -79,-18 -115,-35 -2,-2 -5,-3 -8,-4 -128,-66 -217,-200 -217,-354l0 -189 0 -687 0 -16 0 -359 0 -342 0 -143 0 -70 0 -101 0 -130 0 -203 0 -287 0 -101 0 -7c-1,0 -2,1 -3,1 -4,1 -8,1 -12,1 -3,1 -5,1 -7,1l-2 0c-22,-2 -45,-18 -69,-43 -23,-25 -46,-59 -68,-97l0 121 0 347 0 62 0 124 0 122c5,21 10,42 15,63 21,84 41,174 59,257 8,37 16,73 23,106 24,114 40,197 40,197 0,0 -49,13 -117,23 -6,1 -13,2 -20,3l0 44 0 349 0 446 0 19 0 334 0 242 0 24 0 40c0,32 3,64 10,94 7,30 18,58 31,85 3,8 7,15 11,21 0,1 0,1 0,2 20,35 45,67 74,95 11,11 23,21 36,31 17,7 35,14 52,21 4,2 9,4 13,6 38,16 75,33 102,49 7,1 13,2 19,3 21,4 42,5 64,5l3421 0c81,0 156,-23 220,-64 24,-15 46,-32 66,-51 15,-15 29,-31 42,-48 12,-15 23,-31 32,-49 4,-6 8,-13 11,-21 13,-27 23,-55 30,-85 7,-30 11,-62 11,-94l0 -40 0 -24 0 -242 0 -334 0 -19 0 -446 0 -349 0 -111 0 -142 0 -90 0 -297 0 -175 0 -125 0 -61 0 -347 0 -243 0 -426 0 -21 0 -1557 0 -645 0 -1452c0,-166 -99,-309 -240,-374 -53,-24 -111,-38 -172,-38l-3421 0c-29,0 -58,3 -85,9 -187,39 -327,205 -327,403l0 1452 0 645 0 1322c31,81 61,167 87,244 21,60 39,116 53,159 9,27 16,50 21,66l0 -200 0 -528 0 -417 0 -419 0 -572 0 -1462 0 -142c0,-1 0,-3 0,-5 1,-219 178,-396 397,-397l33 0 814 0c32,0 61,20 73,50l61 147c11,28 38,46 68,46z"/>
  <path class="fil88" d="M13244 17180c-19,23 -37,48 -57,75 -82,116 -171,269 -256,429 -6,17 -11,33 -16,49l0 334 0 242 0 24c45,-60 91,-119 138,-176 200,-243 421,-460 642,-630 38,-30 73,-60 104,-91 282,-271 294,-561 138,-655 -50,-30 -104,-40 -163,-30 -118,20 -255,119 -413,292 -38,42 -77,87 -117,137z"/>
  <path class="fil88" d="M13083 17259c46,-116 96,-234 149,-349 10,-20 19,-39 28,-59l25 -52c0,-1 0,-1 0,-1 112,-246 160,-454 165,-617 1,-41 -1,-80 -5,-115 -16,-135 -68,-226 -140,-266 -61,-35 -137,-33 -215,10 -10,5 -20,12 -31,19 -26,18 -52,40 -77,66 -23,25 -45,53 -67,84l0 125 0 175 0 297 0 90 0 142 0 111 0 349 0 446 0 19c5,-16 10,-32 16,-49 45,-137 96,-280 152,-425z"/>
  <path class="fil88" d="M8276 17102l-51 -206 -43 -175c-40,-32 -75,-67 -109,-103 -3,88 -7,183 -11,268 23,19 46,40 70,63 46,44 94,95 144,153z"/>
  <path class="fil87" d="M8276 17102c-50,-58 -98,-109 -144,-153 -24,-23 -47,-44 -70,-63 -1,37 -3,72 -5,104 -1,31 -3,59 -4,83 -2,28 -4,50 -5,64 -2,18 -4,63 -7,125 84,75 182,173 287,300 -9,-150 -16,-271 -22,-325 -1,-14 -2,-23 -4,-28l-26 -107z"/>
  <path class="fil89" d="M8276 17102c-50,-58 -98,-109 -144,-153 -24,-23 -47,-44 -70,-63 -1,37 -3,72 -5,104 -1,31 -3,59 -4,83 0,0 0,0 0,0 -2,28 -4,50 -5,64 -2,18 -4,63 -7,125 84,75 182,173 287,300 -9,-150 -16,-271 -22,-325 -1,-14 -2,-23 -4,-28l-26 -107z"/>
  <path class="fil89" d="M8328 17562c-105,-127 -203,-225 -287,-300 -5,94 -10,228 -17,374 110,95 219,199 325,312 -8,-134 -15,-269 -21,-386z"/>
  <path class="fil89" d="M7719 17140l-26 -251c-68,1 -120,-6 -128,-8 -30,78 -23,184 31,300 32,67 79,138 143,208 -4,-73 -6,-116 -6,-116l-14 -133z"/>
  <path class="fil89" d="M8352 18003c-99,-73 -210,-137 -335,-185 -3,63 -6,126 -9,187 103,42 227,103 355,191 -4,-62 -8,-128 -11,-193z"/>
  <path class="fil89" d="M8363 18196c-128,-88 -252,-149 -355,-191 -5,96 -9,187 -14,266 136,26 265,70 382,119 -5,-59 -9,-125 -13,-194z"/>
  <path class="fil89" d="M7793 18237c-8,-105 -16,-210 -22,-311 -4,-59 -8,-116 -12,-170 -403,-31 -376,376 34,481z"/>
  <path class="fil89" d="M8568 18202c-4,53 -7,103 -10,146 41,36 82,76 122,119 -7,-30 -10,-62 -10,-94l0 -40c-34,-45 -68,-88 -102,-131z"/>
  <path class="fil89" d="M8568 18202c34,43 68,86 102,131l0 -24 0 -242c-29,-51 -58,-100 -86,-146 -5,96 -11,190 -16,273 0,3 0,5 0,8z"/>
  <path class="fil89" d="M8584 17921c28,46 57,95 86,146l0 -334c-6,-16 -11,-32 -16,-49 -18,-33 -36,-66 -54,-99 -5,109 -11,224 -16,336z"/>
  <path class="fil89" d="M8377 18409c-133,-39 -267,-63 -387,-72 -4,61 -8,111 -12,145 153,13 305,38 454,74 2,1 4,1 6,2l0 -2 0 -19c-17,0 -34,-1 -51,-4 -3,-36 -7,-77 -10,-124z"/>
  <path class="fil89" d="M8558 18348c-4,50 -8,92 -11,122 -1,1 -1,1 -1,2 66,34 125,69 176,101 -4,-6 -8,-13 -11,-21 -13,-27 -24,-55 -31,-85 -40,-43 -81,-83 -122,-119z"/>
  <path class="fil89" d="M8722 18573c-51,-32 -110,-67 -176,-101 -1,11 -2,21 -4,28l93 28 -1 29 0 56c54,17 108,36 162,57 -29,-28 -54,-60 -74,-95 0,-1 0,-1 0,-2z"/>
  <path class="fil89" d="M8796 18670c-54,-21 -108,-40 -162,-57l-1 16 2 0c12,4 103,35 197,72 -13,-10 -25,-20 -36,-31z"/>
  <path class="fil89" d="M13608 17804c-228,78 -412,211 -555,353 -47,57 -93,116 -138,176l0 40c0,32 -4,64 -11,94 -7,30 -17,58 -30,85 -3,8 -7,15 -11,21 55,-34 118,-72 190,-109 177,-92 400,-180 642,-209 572,-70 572,-676 -87,-451z"/>
  <path class="fil89" d="M14041 18480c66,-171 -510,-212 -988,-16 -72,37 -135,75 -190,109 -9,18 -20,34 -32,49 -13,17 -27,33 -42,48 -20,19 -42,36 -66,51 43,-1 103,-3 175,-6 381,-17 1081,-72 1143,-235z"/>
  <path class="fil90" d="M14310 15133c101,-14 183,-41 245,-68 20,-43 37,-87 52,-131 -5,-28 -10,-62 -15,-98l-180 9 7 173 -32 -171 -18 1c-2,16 -33,161 -59,285z"/>
  <path class="fil90" d="M14555 15065c-62,27 -144,54 -245,68 -5,21 -10,42 -14,61l-9 42c65,19 178,-6 206,-53 23,-38 44,-77 62,-118z"/>
  <path class="fil90" d="M14681 14831c85,34 175,57 267,69 -2,-30 -6,-58 -14,-83l-253 14z"/>
 </g>
</svg>
