<?xml version="1.0" encoding="UTF-8"?>
<!DOCTYPE svg PUBLIC "-//W3C//DTD SVG 1.1//EN" "http://www.w3.org/Graphics/SVG/1.1/DTD/svg11.dtd">
<!-- Creator: CorelDRAW X7 -->
<svg xmlns="http://www.w3.org/2000/svg" xml:space="preserve" width="362.514mm" height="209.55mm" version="1.1" style="shape-rendering:geometricPrecision; text-rendering:geometricPrecision; image-rendering:optimizeQuality; fill-rule:evenodd; clip-rule:evenodd"
viewBox="0 0 36251 20955"
 xmlns:xlink="http://www.w3.org/1999/xlink">
 <defs>
  <style type="text/css">
   <![CDATA[
    .fil4 {fill:none}
    .fil6 {fill:#FFF000}
    .fil15 {fill:#FFF000}
    .fil5 {fill:#F4A00F}
    .fil12 {fill:#E62129}
    .fil16 {fill:#C84039}
    .fil3 {fill:white;fill-opacity:0.200000}
    .fil7 {fill:url(#id0)}
    .fil14 {fill:url(#id1)}
    .fil10 {fill:url(#id2)}
    .fil11 {fill:url(#id3)}
    .fil13 {fill:url(#id4)}
    .fil8 {fill:url(#id5)}
    .fil9 {fill:url(#id6)}
    .fil0 {fill:url(#id7)}
    .fil2 {fill:url(#id8)}
    .fil1 {fill:url(#id9)}
   ]]>
  </style>
  <linearGradient id="id0" gradientUnits="userSpaceOnUse" x1="3737.83" y1="8704.55" x2="9395.49" y2="12250.5">
   <stop offset="0" style="stop-opacity:1; stop-color:#FFF000"/>
   <stop offset="1" style="stop-opacity:1; stop-color:#F70D0D"/>
  </linearGradient>
  <linearGradient id="id1" gradientUnits="userSpaceOnUse" x1="30576.2" y1="1210.38" x2="30542.5" y2="1594.2">
   <stop offset="0" style="stop-opacity:1; stop-color:#E62129"/>
   <stop offset="1" style="stop-opacity:1; stop-color:#FC0303"/>
  </linearGradient>
  <linearGradient id="id2" gradientUnits="userSpaceOnUse" x1="31118.4" y1="711.77" x2="32023.8" y2="2086.39">
   <stop offset="0" style="stop-opacity:1; stop-color:#C83939"/>
   <stop offset="1" style="stop-opacity:1; stop-color:#D0D62F"/>
  </linearGradient>
  <linearGradient id="id3" gradientUnits="userSpaceOnUse" x1="8632.54" y1="1199.25" x2="9333.12" y2="2002.19">
   <stop offset="0" style="stop-opacity:1; stop-color:#E62129"/>
   <stop offset="1" style="stop-opacity:1; stop-color:#F7E30D"/>
  </linearGradient>
  <linearGradient id="id4" gradientUnits="userSpaceOnUse" x1="33158.6" y1="15802.5" x2="33331.1" y2="14862.7">
   <stop offset="0" style="stop-opacity:1; stop-color:#FFF000"/>
   <stop offset="1" style="stop-opacity:1; stop-color:#FC0303"/>
  </linearGradient>
  <linearGradient id="id5" gradientUnits="userSpaceOnUse" x1="17115.2" y1="13420.4" x2="26194.6" y2="6647.11">
   <stop offset="0" style="stop-opacity:1; stop-color:#E62129"/>
   <stop offset="1" style="stop-opacity:1; stop-color:#FCFC00"/>
  </linearGradient>
  <linearGradient id="id6" gradientUnits="userSpaceOnUse" x1="28322.9" y1="940.77" x2="27151.9" y2="15303.4">
   <stop offset="0" style="stop-opacity:1; stop-color:#FFF000"/>
   <stop offset="1" style="stop-opacity:1; stop-color:#FA0303"/>
  </linearGradient>
  <linearGradient id="id7" gradientUnits="userSpaceOnUse" x1="31589.4" y1="2813.13" x2="4662" y2="18141.9">
   <stop offset="0" style="stop-opacity:1; stop-color:#A52EFF"/>
   <stop offset="1" style="stop-opacity:1; stop-color:#3D58F3"/>
  </linearGradient>
  <linearGradient id="id8" gradientUnits="userSpaceOnUse" x1="33791.7" y1="2541.89" x2="21683.1" y2="13702.3">
   <stop offset="0" style="stop-opacity:0.2; stop-color:white"/>
   <stop offset="1" style="stop-opacity:0; stop-color:white"/>
  </linearGradient>
  <linearGradient id="id9" gradientUnits="userSpaceOnUse" x1="11962.6" y1="3446.29" x2="1170.7" y2="17508.7">
   <stop offset="0" style="stop-opacity:0.160784; stop-color:white"/>
   <stop offset="1" style="stop-opacity:0; stop-color:white"/>
  </linearGradient>
 </defs>
 <g id="Layer_x0020_1">
  <metadata id="CorelCorpID_0Corel-Layer"/>
  <g id="Group_182" data-name="Group 182">
   <path id="Path_152" class="fil0" d="M0 20955c0,0 3664,-2988 8202,-3212 4538,-223 5517,2133 9948,2317 4432,184 4220,-3054 8150,-3317 3929,-264 4987,2448 7567,2264 2579,-184 2381,-1264 2381,-1264l0 -17743 -36248 0 0 20955z" data-name="Path 152"/>
   <path id="Path_196" class="fil1" d="M0 0l8361 0c475,5443 7561,6206 3545,7990 -4286,1905 -5609,4498 -4445,7144 513,1166 872,2013 1113,2597 -121,2 -245,6 -372,12 -4538,224 -8202,3212 -8202,3212l0 -20955z" data-name="Path 196"/>
   <path id="Path_197" class="fil2" d="M25665 8625c2592,-3175 -5292,-264 -6192,-3069 -675,-2105 133,-4002 1278,-5556l6143 0c1372,1456 4303,2675 7872,2434 729,-49 1207,84 1482,364l0 2214c-926,2525 -3813,6431 -5768,9540 -758,1205 -1567,1692 -2330,1692 -2487,0 -4470,-5189 -2485,-7619z" data-name="Path 197"/>
   <path id="Ellipse_68" class="fil3" d="M13494 15068c0,-197 -160,-357 -357,-357 -198,0 -358,160 -358,357 0,197 160,357 358,357 197,0 357,-160 357,-357z" data-name="Ellipse 68"/>
   <path id="Ellipse_69" class="fil3" d="M9340 1601c0,-227 -184,-410 -410,-410 -227,0 -410,183 -410,410 0,226 183,410 410,410 226,0 410,-184 410,-410z" data-name="Ellipse 69"/>
   <path id="Ellipse_70" class="fil3" d="M30771 1402c0,-117 -95,-211 -212,-211 -117,0 -211,94 -211,211 0,117 94,212 211,212 117,0 212,-95 212,-212z" data-name="Ellipse 70"/>
   <g id="Path_155" data-name="Path 155">
    <path class="fil4" d="M1804 10035c113,29 201,117 231,230 30,112 -2,232 -85,314l-747 741c-40,40 -90,69 -145,83 -173,47 -351,-56 -397,-229l-271 -1009c-46,-173 57,-351 230,-397 54,-15 112,-15 166,-1l1018 268z"/>
    <path class="fil3" d="M1831 10319c-5,-19 -23,-64 -80,-79l-1019 -268c-56,-15 -94,15 -108,29 -14,14 -44,52 -29,109l270 1009c16,57 61,75 80,80 19,5 67,12 109,-29l747 -741c42,-42 35,-91 30,-110m204 -54c29,106 4,226 -85,314l-747 741c-177,176 -478,95 -542,-146l-271 -1009c-64,-241 155,-461 396,-398l1018 268c122,32 203,124 231,230z"/>
   </g>
   <path id="Path_195" class="fil3" d="M33245 15954c-1,0 -1,0 -2,0 -164,0 -322,-65 -438,-182 -116,-116 -182,-273 -182,-438 0,0 0,-1 0,-1 0,-1 0,-2 0,-2 0,-164 66,-322 182,-438 116,-117 274,-182 438,-182 1,0 1,0 2,0 0,0 1,0 2,0 164,0 322,65 438,182 116,116 182,274 182,438 0,0 0,1 0,2 0,0 0,1 0,1 0,165 -66,322 -182,438 -116,117 -274,182 -438,182 -1,0 -2,0 -2,0l0 0zm440 -1248c-26,-4 -51,-6 -77,-6 -144,0 -280,70 -363,188l440 -182z" data-name="Path 195"/>
  </g>
  <path class="fil5" d="M7461 15134c-1164,-2646 159,-5239 4445,-7144 3459,-1537 -1319,-2316 -3013,-5981 -209,-18 -373,-194 -373,-408 0,-106 40,-203 106,-276 -131,-408 -223,-849 -265,-1325l-8361 0 0 20955c0,0 3664,-2988 8202,-3212 127,-6 251,-10 372,-12 -241,-584 -600,-1431 -1113,-2597zm-5623 -5089c96,37 170,118 197,220 30,112 -2,232 -85,314l-747 741c-76,75 -173,103 -266,92 -22,-2 -44,-7 -65,-14 -1,0 -2,-1 -2,-1 -99,-34 -180,-115 -209,-223l-271 -1009c-30,-112 3,-227 77,-306 10,-11 22,-22 34,-31 0,-1 1,-1 1,-1 75,-60 178,-88 284,-60l1018 268c12,3 23,6 33,10 0,0 0,0 1,0z"/>
  <path class="fil6" d="M7461 15134c-1164,-2646 159,-5239 4445,-7144 3459,-1537 -1319,-2316 -3013,-5981 -209,-18 -373,-194 -373,-408 0,-106 40,-203 106,-276 -131,-408 -223,-849 -265,-1325l-8361 0 0 20955c0,0 3664,-2988 8202,-3212 127,-6 251,-10 372,-12 -241,-584 -600,-1431 -1113,-2597zm-5623 -5089c103,39 172,124 197,220 30,112 -2,232 -85,314l-747 741c-76,75 -173,103 -266,92 -22,-2 -44,-7 -65,-14 -1,0 -2,-1 -2,-1 -97,-33 -179,-110 -209,-223l-271 -1009c-30,-112 3,-227 77,-306 11,-11 22,-22 35,-32 75,-60 178,-88 284,-60l1018 268c12,3 23,6 34,10zm-968 1352l2 1c0,0 -1,0 -1,-1 -1,0 -1,0 -1,0z"/>
  <path class="fil6" d="M1054 11170l747 -741c42,-42 35,-91 30,-110 -5,-19 -23,-64 -80,-79l-1019 -268c-56,-15 -94,15 -108,29 -14,14 -44,52 -29,109l270 1009c16,57 61,75 80,80 19,5 67,12 109,-29z"/>
  <path class="fil6" d="M1054 11170l747 -741c42,-42 35,-91 30,-110 -5,-19 -23,-64 -80,-79l-1019 -268c-56,-15 -94,15 -108,29 -14,14 -44,52 -29,109l270 1009c16,57 61,75 80,80 19,5 67,12 109,-29z"/>
  <path class="fil7" d="M1801 10429l-747 741c-42,41 -90,34 -109,29 -19,-5 -64,-23 -80,-80l-270 -1009c-15,-57 15,-95 29,-109 14,-14 52,-44 108,-29l1019 268c57,15 75,60 80,79 5,19 12,68 -30,110zm149 150c83,-82 115,-202 85,-314 29,106 4,226 -85,314zm5511 4555c-1164,-2646 159,-5239 4445,-7144 3459,-1537 -1319,-2316 -3013,-5981 -209,-18 -373,-194 -373,-408 0,-106 40,-203 106,-276 -131,-408 -223,-849 -265,-1325l-8361 0 0 20955c0,0 3664,-2988 8202,-3212 127,-6 251,-10 372,-12 -241,-584 -600,-1431 -1113,-2597zm-6524 -3722c0,0 0,0 -1,0 1,0 1,0 1,0zm0 0c1,0 1,0 1,0 40,5 80,2 120,-9 55,-14 105,-43 145,-83 -76,75 -173,103 -266,92zm-63 -13c21,6 41,11 62,13 0,0 0,0 0,0 -21,-2 -42,-7 -62,-13zm-4 -2l2 1c0,0 -1,0 -1,-1 -1,0 -1,0 -1,0zm1 0c0,0 0,0 -1,0l1 0zm933 -1362c12,3 23,6 34,10l-1 0c-10,-4 -21,-7 -33,-10zm0 0c12,3 23,6 34,10 -1,0 -1,0 -1,0 -11,-4 -21,-7 -33,-10zm34 10c0,1 0,1 0,1 96,36 170,117 197,218 0,0 0,0 0,1 -25,-96 -94,-181 -197,-220z"/>
  <path class="fil8" d="M11906 7990c-4286,1905 -5609,4498 -4445,7144 513,1166 872,2013 1113,2596 4223,-81 5268,2151 9576,2330 4432,184 4220,-3054 8150,-3317 3929,-264 4987,2448 7567,2264 2579,-184 2381,-1264 2381,-1264l0 -12731c-926,2525 -3813,6431 -5768,9540 -758,1205 -1567,1692 -2330,1692 -2487,0 -4470,-5189 -2485,-7619 2592,-3175 -5292,-264 -6192,-3069 -675,-2105 133,-4002 1278,-5556l-12390 0c42,476 134,917 265,1325 75,-82 183,-134 304,-134 226,0 410,183 410,410 0,226 -184,410 -410,410 -13,0 -25,-1 -37,-2 1694,3665 6472,4444 3013,5981zm20899 7782c-116,-116 -182,-273 -182,-438l0 -1 0 -2c0,-164 66,-322 182,-438 116,-117 274,-182 438,-182l2 0 2 0c62,0 123,9 181,27 56,-25 117,-38 180,-38 26,0 51,2 77,6l-165 69c60,29 116,69 165,118 116,116 182,274 182,438l0 2 0 1c0,165 -66,322 -182,438 -116,117 -274,182 -438,182l-2 0 -2 0c-164,0 -322,-65 -438,-182zm-19668 -1061c197,0 357,160 357,357 0,197 -160,357 -357,357 -198,0 -358,-160 -358,-357 0,-197 160,-357 358,-357z"/>
  <path class="fil9" d="M19473 5556c900,2805 8784,-106 6192,3069 -1985,2430 -2,7619 2485,7619 763,0 1572,-487 2330,-1692 1955,-3109 4842,-7015 5768,-9540l0 -2214c-275,-280 -753,-413 -1482,-364 -3569,241 -6500,-978 -7872,-2434l-6143 0c-1145,1554 -1953,3451 -1278,5556z"/>
  <path class="fil10" d="M26894 0c1372,1456 4303,2675 7872,2434 729,-49 1207,84 1482,364l0 -2798 -9354 0zm3665 1191c117,0 212,94 212,211 0,117 -95,212 -212,212 -117,0 -211,-95 -211,-212 0,-117 94,-211 211,-211z"/>
  <path class="fil6" d="M8520 1600c0,0 0,1 0,1 0,0 0,-1 0,-1zm373 409c-101,-217 -191,-445 -267,-684 0,0 0,1 -1,1 -65,72 -105,169 -105,274 0,0 0,1 0,1 0,91 32,181 87,253 0,0 1,1 1,1 63,82 159,141 278,154 3,0 5,0 7,0z"/>
  <path class="fil11" d="M8626 1325c76,239 166,467 267,684 12,1 24,2 37,2 226,0 410,-184 410,-410 0,-227 -184,-410 -410,-410 -121,0 -229,52 -304,134z"/>
  <path class="fil12" d="M13494 15068c0,-197 -160,-357 -357,-357 -198,0 -358,160 -358,357 0,197 160,357 358,357 197,0 357,-160 357,-357z"/>
  <path class="fil13" d="M32623 15334c0,165 66,322 182,438 116,117 274,182 438,182l2 0 2 0c164,0 322,-65 438,-182 116,-116 182,-273 182,-438l0 -1 0 -2c0,-164 -66,-322 -182,-438 -49,-49 -105,-89 -165,-118l-275 113c47,-66 110,-118 183,-150 -58,-18 -119,-27 -181,-27l-2 0 -2 0c-164,0 -322,65 -438,182 -116,116 -182,274 -182,438l0 2 0 1z"/>
  <path class="fil14" d="M30559 1614c117,0 212,-95 212,-212 0,-117 -95,-211 -212,-211 -117,0 -211,94 -211,211 0,117 94,212 211,212z"/>
  <path class="fil15" d="M33520 14775l-275 113c47,-66 110,-118 183,-150 -58,-18 -119,-27 -181,-27l-2 0 -2 0c-164,0 -322,65 -438,182 -116,116 -182,274 -182,438l0 2 0 1c0,165 66,322 182,438 116,117 274,182 438,182l2 0 2 0c164,0 322,-65 438,-182 116,-116 182,-273 182,-438l0 -1 0 -2c0,-164 -66,-322 -182,-438 -49,-49 -105,-89 -165,-118z"/>
  <path class="fil6" d="M33520 14775l-275 113c47,-66 110,-118 183,-150 -58,-18 -119,-27 -181,-27l-2 0 -2 0c-164,0 -322,65 -438,182 -116,116 -182,274 -182,438l0 2 0 1c0,165 66,322 182,438 116,117 274,182 438,182l2 0 2 0c164,0 322,-65 438,-182 116,-116 182,-273 182,-438l0 -1 0 -2c0,-164 -66,-322 -182,-438 -49,-49 -105,-89 -165,-118z"/>
  <path class="fil6" d="M33520 14775l-275 113c47,-66 110,-118 183,-150 -58,-18 -119,-27 -181,-27l-2 0 -2 0c-164,0 -322,65 -438,182 -116,116 -182,274 -182,438l0 2 0 1c0,165 66,322 182,438 116,117 274,182 438,182l2 0 2 0c164,0 322,-65 438,-182 116,-116 182,-273 182,-438l0 -1 0 -2c0,-164 -66,-322 -182,-438 -49,-49 -105,-89 -165,-118z"/>
  <path class="fil6" d="M33428 14738c31,10 62,22 92,37l165 -69c-26,-4 -51,-6 -77,-6 -63,0 -124,13 -180,38z"/>
  <path class="fil6" d="M33520 14775c-30,-15 -61,-27 -92,-37 -73,32 -136,84 -183,150l275 -113z"/>
  <path class="fil6" d="M33428 14738c31,10 62,22 92,37l165 -69c-26,-4 -51,-6 -77,-6 -63,0 -124,13 -180,38z"/>
  <path class="fil6" d="M33520 14775l165 -69c-26,-4 -51,-6 -77,-6 -63,0 -124,13 -180,38 31,10 62,22 92,37z"/>
  <path class="fil16" d="M30559 1614c117,0 212,-95 212,-212 0,-117 -95,-211 -212,-211 -117,0 -211,94 -211,211 0,117 94,212 211,212z"/>
  <path class="fil6" d="M33520 14775l-275 113c47,-66 110,-118 183,-150 -58,-18 -119,-27 -181,-27l-2 0 -2 0c-164,0 -322,65 -438,182 -116,116 -182,274 -182,438l0 2 0 1c0,165 66,322 182,438 116,117 274,182 438,182l2 0 2 0c164,0 322,-65 438,-182 116,-116 182,-273 182,-438l0 -1 0 -2c0,-164 -66,-322 -182,-438 -49,-49 -105,-89 -165,-118z"/>
  <path class="fil15" d="M33520 14775l-275 113c47,-66 110,-118 183,-150 -58,-18 -119,-27 -181,-27l-2 0 -2 0c-164,0 -322,65 -438,182 -116,116 -182,274 -182,438l0 2 0 1c0,165 66,322 182,438 116,117 274,182 438,182l2 0 2 0c164,0 322,-65 438,-182 116,-116 182,-273 182,-438l0 -1 0 -2c0,-164 -66,-322 -182,-438 -49,-49 -105,-89 -165,-118z"/>
  <path class="fil6" d="M33520 14775l-275 113c47,-66 110,-118 183,-150 -58,-18 -119,-27 -181,-27l-2 0 -2 0c-164,0 -322,65 -438,182 -116,116 -182,274 -182,438l0 2 0 1c0,165 66,322 182,438 116,117 274,182 438,182l2 0 2 0c164,0 322,-65 438,-182 116,-116 182,-273 182,-438l0 -1 0 -2c0,-164 -66,-322 -182,-438 -49,-49 -105,-89 -165,-118z"/>
  <path class="fil6" d="M33520 14775l-275 113c47,-66 110,-118 183,-150 -58,-18 -119,-27 -181,-27l-2 0 -2 0c-164,0 -322,65 -438,182 -116,116 -182,274 -182,438l0 2 0 1c0,165 66,322 182,438 116,117 274,182 438,182l2 0 2 0c164,0 322,-65 438,-182 116,-116 182,-273 182,-438l0 -1 0 -2c0,-164 -66,-322 -182,-438 -49,-49 -105,-89 -165,-118z"/>
 </g>
</svg>
